{
.appVersion = "939";
classes = (
{
code = "hungarumlaut acute ampersand circumflex grave a b c d e f g h i j k l m n o p q r s t u v w x y z tilde lslash scaron zcaron dieresis breve caron dotaccent macron ogonek ring cedilla agrave aacute acircumflex atilde adieresis aring ae ccedilla egrave eacute ecircumflex edieresis igrave iacute icircumflex idieresis eth ntilde ograve oacute ocircumflex otilde odieresis oe oslash ugrave uacute ucircumflex udieresis yacute thorn ydieresis fi fl germandbls ordfeminine ordmasculine exclam question exclamdown questiondown";
name = normal;
},
{
code = "parenleft parenright";
name = num_lfig;
},
{
code = "zero one two three four five six seven eight nine parenleft parenright";
name = snum;
},
{
code = "onesuperior twosuperior threesuperior";
name = num_sups;
},
{
code = "onehalf onequarter threequarters";
name = num_frac;
},
{
code = "A B C D E F G H I J K L M N O P Q R S T U V W X Y Z AE OE germandbls Eth Aacute Acircumflex Adieresis Agrave Aring Atilde Ccedilla Eacute Ecircumflex Edieresis Egrave Iacute Icircumflex Idieresis Igrave Ntilde Oacute Ocircumflex Odieresis Ograve Otilde Scaron Uacute Ucircumflex Udieresis Ugrave Yacute Ydieresis Zcaron";
name = mayusculas;
},
{
code = "parenleft parenright hyphen bracketleft bracketright braceleft bar braceright brokenbar guillemotleft guillemotright endash emdash bullet guilsinglleft guilsinglright";
name = case1;
}
);
copyright = "Copyright 2013 The Gabriela Project Authors (edu@tipo.net.ar), with Reserved Font Name \"Gabriela\".";
customParameters = (
{
name = licenseURL;
value = "http://scripts.sil.org/OFL";
},
{
name = trademark;
value = "Gabriela is a trademark of Eduardo Rodriguez Tunni.";
},
{
name = license;
value = "This Font Software is licensed under the SIL Open Font License, Version 1.1. This license is available with a FAQ at: http://scripts.sil.org/OFL";
},
{
name = fsType;
value = (
);
},
{
name = "Use Typo Metrics";
value = 1;
},
{
name = "Disable Last Change";

glyphs = (
{
glyphname = A;
layers = (
{
hints = (
{
horizontal = 1;
place = "{273, 62}";
},
{
horizontal = 1;
place = "{0, 21}";
target = up;
type = BottomGhost;
},
{
horizontal = 1;
place = "{718, -20}";
target = down;
type = TopGhost;
}
);
layerId = UUID0;
paths = (
{
closed = 1;
nodes = (
"682 0 LINE",
"695 16 LINE",
"652 49 OFFCURVE",
"628 72 OFFCURVE",
"605 138 CURVE SMOOTH",
"404 718 LINE",
"211 718 LINE",
"199 684 LINE",
"222 678 LINE SMOOTH",
"253 670 OFFCURVE",
"267 659 OFFCURVE",
"267 634 CURVE SMOOTH",
"267 621 OFFCURVE",
"263 606 OFFCURVE",
"256 585 CURVE SMOOTH",
"99 133 LINE SMOOTH",
"78 71 OFFCURVE",
"60 55 OFFCURVE",
"7 40 CURVE SMOOTH",
"-16 34 LINE",
"-4 0 LINE",
"180 0 LINE",
"199 16 LINE",
"190 34 LINE SMOOTH",
"180 53 OFFCURVE",
"176 73 OFFCURVE",
"176 95 CURVE SMOOTH",
"176 123 OFFCURVE",
"184 155 OFFCURVE",
"199 200 CURVE SMOOTH",
"223 273 LINE",
"454 273 LINE",
"502 133 LINE SMOOTH",
"509 112 OFFCURVE",
"513 97 OFFCURVE",
"513 84 CURVE SMOOTH",
"513 59 OFFCURVE",
"499 48 OFFCURVE",
"468 40 CURVE SMOOTH",
"445 34 LINE",
"457 0 LINE"
);
},
{
closed = 1;
nodes = (
"337 615 LINE",
"433 335 LINE",
"244 335 LINE"
);
}
);
width = 706;
}
);
leftKerningGroup = A;
rightKerningGroup = A;
unicode = 0041;
},
{
glyphname = AE;
layers = (
{
hints = (
{
place = "{481, 99}";
},
{
horizontal = 1;
place = "{0, 57}";
},
{
horizontal = 1;
place = "{306, 57}";
},
{
horizontal = 1;
place = "{661, 57}";
},
{
horizontal = 1;
place = "{752, -20}";
target = down;
type = TopGhost;
},
{
horizontal = 1;
place = "{-25, 21}";
target = up;
type = BottomGhost;
}
);
layerId = UUID0;
paths = (
{
closed = 1;
nodes = (
"665 306 LINE SMOOTH",
"736 306 OFFCURVE",
"762 296 OFFCURVE",
"774 249 CURVE SMOOTH",
"780 226 LINE",
"814 238 LINE",
"814 409 LINE",
"794 420 LINE",
"786 409 LINE SMOOTH",
"761 374 OFFCURVE",
"738 363 OFFCURVE",
"707 363 CURVE SMOOTH",
"580 363 LINE",
"580 585 LINE SMOOTH",
"580 647 OFFCURVE",
"592 661 OFFCURVE",
"644 661 CURVE SMOOTH",
"741 661 LINE SMOOTH",
"812 661 OFFCURVE",
"831 643 OFFCURVE",
"850 572 CURVE SMOOTH",
"856 549 LINE",
"890 561 LINE",
"890 739 LINE",
"874 752 LINE",
"856 739 LINE SMOOTH",
"836 724 OFFCURVE",
"800 718 OFFCURVE",
"742 718 CURVE SMOOTH",
"435 718 LINE",
"87 94 LINE SMOOTH",
"66 57 OFFCURVE",
"38 48 OFFCURVE",
"9 40 CURVE SMOOTH",
"-14 34 LINE",
"-2 0 LINE",
"182 0 LINE",
"201 16 LINE",
"192 34 LINE SMOOTH",
"187 45 OFFCURVE",
"179 63 OFFCURVE",
"179 79 CURVE SMOOTH",
"179 100 OFFCURVE",
"180 117 OFFCURVE",
"200 154 CURVE SMOOTH",
"283 306 LINE",
"481 306 LINE",
"481 126 LINE SMOOTH",
"481 67 OFFCURVE",
"468 52 OFFCURVE",
"420 38 CURVE SMOOTH",
"399 32 LINE",
"410 0 LINE",
"831 0 LINE SMOOTH",
"852 0 OFFCURVE",
"865 -4 OFFCURVE",
"873 -14 CURVE SMOOTH",
"881 -25 LINE",
"901 -14 LINE",
"901 157 LINE",
"867 169 LINE",
"861 146 LINE SMOOTH",
"842 75 OFFCURVE",
"823 57 OFFCURVE",
"752 57 CURVE SMOOTH",
"644 57 LINE SMOOTH",
"592 57 OFFCURVE",
"580 71 OFFCURVE",
"580 133 CURVE SMOOTH",
"580 306 LINE"
);
},
{
closed = 1;
nodes = (
"315 363 LINE",
"481 665 LINE",
"481 363 LINE"
);
}
);
width = 964;
}
);
unicode = 00C6;
},
{
glyphname = B;
layers = (
{
hints = (
{
place = "{132, 99}";
},
{
place = "{460, 99}";
},
{
place = "{492, 104}";
},
{
horizontal = 1;
place = "{0, 52}";
},
{
horizontal = 1;
place = "{341, 46}";
},
{
horizontal = 1;
place = "{676, 56}";
}
);
layerId = UUID0;
paths = (
{
closed = 1;
nodes = (
"559 643 OFFCURVE",
"481 732 OFFCURVE",
"288 732 CURVE SMOOTH",
"195 732 OFFCURVE",
"91 708 OFFCURVE",
"40 688 CURVE",
"52 651 LINE",
"110 651 LINE SMOOTH",
"125 651 OFFCURVE",
"132 645 OFFCURVE",
"132 627 CURVE SMOOTH",
"132 133 LINE SMOOTH",
"132 71 OFFCURVE",
"118 55 OFFCURVE",
"68 40 CURVE SMOOTH",
"45 34 LINE",
"57 0 LINE",
"336 0 LINE SMOOTH",
"526 0 OFFCURVE",
"596 83 OFFCURVE",
"596 197 CURVE SMOOTH",
"596 269 OFFCURVE",
"544 334 OFFCURVE",
"454 364 CURVE",
"526 398 OFFCURVE",
"559 464 OFFCURVE",
"559 535 CURVE SMOOTH"
);
},
{
closed = 1;
nodes = (
"231 630 LINE SMOOTH",
"231 648 OFFCURVE",
"238 676 OFFCURVE",
"298 676 CURVE SMOOTH",
"404 676 OFFCURVE",
"460 614 OFFCURVE",
"460 533 CURVE SMOOTH",
"460 447 OFFCURVE",
"409 387 OFFCURVE",
"317 387 CURVE SMOOTH",
"286 387 OFFCURVE",
"275 394 OFFCURVE",
"267 394 CURVE SMOOTH",
"257 394 OFFCURVE",
"253 386 OFFCURVE",
"253 376 CURVE SMOOTH",
"253 368 OFFCURVE",
"257 359 OFFCURVE",
"268 354 CURVE SMOOTH",
"282 347 OFFCURVE",
"309 341 OFFCURVE",
"333 341 CURVE SMOOTH",
"432 341 OFFCURVE",
"492 277 OFFCURVE",
"492 202 CURVE SMOOTH",
"492 115 OFFCURVE",
"438 52 OFFCURVE",
"342 52 CURVE SMOOTH",
"303 52 OFFCURVE",
"231 58 OFFCURVE",
"231 183 CURVE SMOOTH"
);
}
);
width = 651;
}
);
unicode = 0042;
},
{
glyphname = C;
layers = (
{
hints = (
{
place = "{35, 113}";
},
{
place = "{485, 98}";
},
{
horizontal = 1;
place = "{-14, 69}";
},
{
horizontal = 1;
place = "{676, 56}";
}
);
layerId = UUID0;
paths = (
{
closed = 1;
nodes = (
"139 732 OFFCURVE",
"35 564 OFFCURVE",
"35 358 CURVE SMOOTH",
"35 153 OFFCURVE",
"139 -14 OFFCURVE",
"355 -14 CURVE SMOOTH",
"461 -14 OFFCURVE",
"536 36 OFFCURVE",
"588 113 CURVE SMOOTH",
"590 116 OFFCURVE",
"591 119 OFFCURVE",
"591 121 CURVE SMOOTH",
"591 134 OFFCURVE",
"571 149 OFFCURVE",
"559 149 CURVE SMOOTH",
"556 149 OFFCURVE",
"554 148 OFFCURVE",
"552 145 CURVE SMOOTH",
"514 90 OFFCURVE",
"452 55 OFFCURVE",
"364 55 CURVE SMOOTH",
"230 55 OFFCURVE",
"148 192 OFFCURVE",
"148 358 CURVE SMOOTH",
"148 508 OFFCURVE",
"201 676 OFFCURVE",
"358 676 CURVE SMOOTH",
"434 676 OFFCURVE",
"485 633 OFFCURVE",
"485 571 CURVE SMOOTH",
"485 515 OFFCURVE",
"455 490 OFFCURVE",
"455 480 CURVE SMOOTH",
"455 472 OFFCURVE",
"461 468 OFFCURVE",
"476 468 CURVE SMOOTH",
"537 468 OFFCURVE",
"583 516 OFFCURVE",
"583 585 CURVE SMOOTH",
"583 672 OFFCURVE",
"490 732 OFFCURVE",
"358 732 CURVE SMOOTH"
);
}
);
width = 617;
}
);
leftKerningGroup = C;
unicode = 0043;
},
{
glyphname = D;
layers = (
{
hints = (
{
place = "{127, 99}";
},
{
place = "{589, 109}";
},
{
horizontal = 1;
place = "{0, 51}";
},
{
horizontal = 1;
place = "{676, 56}";
}
);
layerId = UUID0;
paths = (
{
closed = 1;
nodes = (
"366 0 LINE SMOOTH",
"589 0 OFFCURVE",
"698 159 OFFCURVE",
"698 358 CURVE SMOOTH",
"698 557 OFFCURVE",
"605 732 OFFCURVE",
"306 732 CURVE SMOOTH",
"204 732 OFFCURVE",
"91 708 OFFCURVE",
"35 688 CURVE",
"47 651 LINE",
"105 651 LINE SMOOTH",
"120 651 OFFCURVE",
"127 645 OFFCURVE",
"127 627 CURVE SMOOTH",
"127 122 LINE SMOOTH",
"127 67 OFFCURVE",
"100 50 OFFCURVE",
"63 40 CURVE SMOOTH",
"40 34 LINE",
"52 0 LINE"
);
},
{
closed = 1;
nodes = (
"226 630 LINE",
"226 648 OFFCURVE",
"236 676 OFFCURVE",
"324 676 CURVE SMOOTH",
"508 676 OFFCURVE",
"589 521 OFFCURVE",
"589 360 CURVE SMOOTH",
"589 160 OFFCURVE",
"508 51 OFFCURVE",
"334 51 CURVE SMOOTH",
"279 51 OFFCURVE",
"226 71 OFFCURVE",
"226 175 CURVE SMOOTH"
);
}
);
width = 733;
}
);
rightKerningGroup = D;
unicode = 0044;
},
{
glyphname = Eth;
layers = (
{
components = (
{
name = D;
}
);
hints = (
{
horizontal = 1;
place = "{332, 63}";
}
);
layerId = UUID0;
paths = (
{
closed = 1;
nodes = (
"398 332 LINE",
"416 346 OFFCURVE",
"421 373 OFFCURVE",
"421 395 CURVE",
"33 395 LINE",
"15 382 OFFCURVE",
"10 354 OFFCURVE",
"10 332 CURVE"
);
}
);
width = 733;
}
);
rightKerningGroup = D;
unicode = 00D0;
},
{
glyphname = E;
layers = (
{
hints = (
{
place = "{127, 99}";
},
{
horizontal = 1;
place = "{0, 57}";
},
{
horizontal = 1;
place = "{336, 57}";
},
{
horizontal = 1;
place = "{661, 57}";
},
{
horizontal = 1;
place = "{752, -20}";
target = down;
type = TopGhost;
},
{
horizontal = 1;
place = "{-25, 21}";
target = up;
type = BottomGhost;
}
);
layerId = UUID0;
paths = (
{
closed = 1;
nodes = (
"311 336 LINE SMOOTH",
"382 336 OFFCURVE",
"408 326 OFFCURVE",
"420 279 CURVE SMOOTH",
"426 256 LINE",
"460 268 LINE",
"460 439 LINE",
"440 450 LINE",
"432 439 LINE SMOOTH",
"407 404 OFFCURVE",
"384 393 OFFCURVE",
"353 393 CURVE SMOOTH",
"226 393 LINE",
"226 585 LINE SMOOTH",
"226 647 OFFCURVE",
"238 661 OFFCURVE",
"290 661 CURVE SMOOTH",
"387 661 LINE SMOOTH",
"458 661 OFFCURVE",
"477 643 OFFCURVE",
"496 572 CURVE SMOOTH",
"502 549 LINE",
"536 561 LINE",
"536 739 LINE",
"520 752 LINE",
"502 739 LINE SMOOTH",
"482 724 OFFCURVE",
"446 718 OFFCURVE",
"388 718 CURVE SMOOTH",
"82 718 LINE",
"69 702 LINE",
"82 684 LINE SMOOTH",
"115 640 OFFCURVE",
"127 598 OFFCURVE",
"127 517 CURVE SMOOTH",
"127 126 LINE SMOOTH",
"127 67 OFFCURVE",
"114 52 OFFCURVE",
"66 38 CURVE SMOOTH",
"45 32 LINE",
"56 0 LINE",
"477 0 LINE SMOOTH",
"498 0 OFFCURVE",
"511 -4 OFFCURVE",
"519 -14 CURVE SMOOTH",
"527 -25 LINE",
"547 -14 LINE",
"547 157 LINE",
"513 169 LINE",
"507 146 LINE SMOOTH",
"488 75 OFFCURVE",
"469 57 OFFCURVE",
"398 57 CURVE SMOOTH",
"290 57 LINE SMOOTH",
"238 57 OFFCURVE",
"226 71 OFFCURVE",
"226 133 CURVE SMOOTH",
"226 336 LINE"
);
}
);
width = 610;
}
);
unicode = 0045;
},
{
glyphname = F;
layers = (
{
hints = (
{
place = "{103, 99}";
},
{
horizontal = 1;
place = "{326, 57}";
},
{
horizontal = 1;
place = "{661, 57}";
},
{
horizontal = 1;
place = "{752, -20}";
target = down;
type = TopGhost;
},
{
horizontal = 1;
place = "{0, 21}";
target = up;
type = BottomGhost;
}
);
layerId = UUID0;
paths = (
{
closed = 1;
nodes = (
"468 549 LINE",
"502 561 LINE",
"502 739 LINE",
"486 752 LINE",
"468 739 LINE SMOOTH",
"448 724 OFFCURVE",
"412 718 OFFCURVE",
"354 718 CURVE SMOOTH",
"58 718 LINE",
"45 702 LINE",
"58 684 LINE SMOOTH",
"91 640 OFFCURVE",
"103 598 OFFCURVE",
"103 517 CURVE SMOOTH",
"103 201 LINE SMOOTH",
"103 120 OFFCURVE",
"91 78 OFFCURVE",
"58 34 CURVE SMOOTH",
"45 16 LINE",
"58 0 LINE",
"277 0 LINE",
"289 34 LINE",
"266 40 LINE SMOOTH",
"216 55 OFFCURVE",
"202 71 OFFCURVE",
"202 133 CURVE SMOOTH",
"202 326 LINE",
"277 326 LINE SMOOTH",
"348 326 OFFCURVE",
"374 316 OFFCURVE",
"386 269 CURVE SMOOTH",
"392 246 LINE",
"426 258 LINE",
"426 429 LINE",
"406 440 LINE",
"398 429 LINE SMOOTH",
"373 394 OFFCURVE",
"350 383 OFFCURVE",
"319 383 CURVE SMOOTH",
"202 383 LINE",
"202 585 LINE SMOOTH",
"202 647 OFFCURVE",
"214 661 OFFCURVE",
"266 661 CURVE SMOOTH",
"353 661 LINE SMOOTH",
"424 661 OFFCURVE",
"443 643 OFFCURVE",
"462 572 CURVE SMOOTH"
);
}
);
width = 547;
}
);
rightKerningGroup = F;
unicode = 0046;
},
{
glyphname = G;
layers = (
{
hints = (
{
place = "{35, 108}";
},
{
place = "{191, 97}";
},
{
place = "{509, 102}";
},
{
place = "{521, 90}";
},
{
horizontal = 1;
place = "{-278, 52}";
},
{
horizontal = 1;
place = "{17, 64}";
},
{
horizontal = 1;
place = "{676, 56}";
},
{
horizontal = 1;
place = "{-14, 21}";
target = up;
type = BottomGhost;
}
);
layerId = UUID0;
paths = (
{
closed = 1;
nodes = (
"521 -12 LINE SMOOTH",
"521 -168 OFFCURVE",
"474 -226 OFFCURVE",
"390 -226 CURVE SMOOTH",
"325 -226 OFFCURVE",
"288 -184 OFFCURVE",
"288 -133 CURVE SMOOTH",
"288 -60 OFFCURVE",
"337 -38 OFFCURVE",
"337 -25 CURVE SMOOTH",
"337 -20 OFFCURVE",
"332 -14 OFFCURVE",
"318 -14 CURVE SMOOTH",
"235 -14 OFFCURVE",
"191 -73 OFFCURVE",
"191 -135 CURVE SMOOTH",
"191 -205 OFFCURVE",
"250 -278 OFFCURVE",
"373 -278 CURVE SMOOTH",
"518 -278 OFFCURVE",
"611 -197 OFFCURVE",
"611 16 CURVE SMOOTH",
"611 132 LINE SMOOTH",
"611 213 OFFCURVE",
"623 255 OFFCURVE",
"656 299 CURVE SMOOTH",
"669 317 LINE",
"656 333 LINE",
"446 333 LINE",
"434 299 LINE",
"457 293 LINE SMOOTH",
"507 278 OFFCURVE",
"521 262 OFFCURVE",
"521 200 CURVE SMOOTH",
"521 149 LINE",
"478 106 OFFCURVE",
"423 81 OFFCURVE",
"354 81 CURVE SMOOTH",
"222 81 OFFCURVE",
"143 216 OFFCURVE",
"143 381 CURVE SMOOTH",
"143 508 OFFCURVE",
"198 676 OFFCURVE",
"366 676 CURVE SMOOTH",
"452 676 OFFCURVE",
"509 629 OFFCURVE",
"509 561 CURVE SMOOTH",
"509 505 OFFCURVE",
"479 480 OFFCURVE",
"479 470 CURVE SMOOTH",
"479 460 OFFCURVE",
"479 458 OFFCURVE",
"500 458 CURVE SMOOTH",
"561 458 OFFCURVE",
"607 506 OFFCURVE",
"607 575 CURVE SMOOTH",
"607 668 OFFCURVE",
"507 732 OFFCURVE",
"366 732 CURVE SMOOTH",
"142 732 OFFCURVE",
"35 564 OFFCURVE",
"35 376 CURVE SMOOTH",
"35 177 OFFCURVE",
"136 17 OFFCURVE",
"345 17 CURVE SMOOTH",
"415 17 OFFCURVE",
"473 42 OFFCURVE",
"521 82 CURVE"
);
}
);
width = 691;
}
);
leftKerningGroup = C;
unicode = 0047;
},
{
glyphname = H;
layers = (
{
background = {
paths = (
{
closed = 1;
nodes = (
"270 0 LINE",
"278 29 LINE",
"260 34 LINE SMOOTH",
"217 47 OFFCURVE",
"205 61 OFFCURVE",
"205 114 CURVE SMOOTH",
"205 303 LINE",
"501 303 LINE",
"501 120 LINE SMOOTH",
"501 63 OFFCURVE",
"488 50 OFFCURVE",
"442 36 CURVE SMOOTH",
"423 31 LINE",
"434 0 LINE",
"655 0 LINE",
"665 29 LINE",
"646 34 LINE SMOOTH",
"603 47 OFFCURVE",
"590 61 OFFCURVE",
"590 114 CURVE SMOOTH",
"590 469 LINE SMOOTH",
"590 541 OFFCURVE",
"602 580 OFFCURVE",
"631 619 CURVE SMOOTH",
"645 636 LINE",
"631 650 LINE",
"434 650 LINE",
"423 619 LINE",
"442 614 LINE SMOOTH",
"488 602 OFFCURVE",
"501 586 OFFCURVE",
"501 530 CURVE SMOOTH",
"501 357 LINE",
"205 357 LINE",
"205 469 LINE SMOOTH",
"205 541 OFFCURVE",
"216 580 OFFCURVE",
"246 619 CURVE SMOOTH",
"258 636 LINE",
"246 650 LINE",
"47 650 LINE",
"36 619 LINE",
"58 614 LINE",
"103 602 OFFCURVE",
"115 586 OFFCURVE",
"115 530 CURVE SMOOTH",
"115 120 LINE SMOOTH",
"115 63 OFFCURVE",
"103 50 OFFCURVE",
"58 36 CURVE",
"36 31 LINE",
"47 0 LINE"
);
}
);
};
hints = (
{
place = "{127, 99}";
},
{
place = "{553, 99}";
},
{
horizontal = 1;
place = "{334, 61}";
},
{
horizontal = 1;
place = "{0, 21}";
target = up;
type = BottomGhost;
},
{
horizontal = 1;
place = "{718, -20}";
target = down;
type = TopGhost;
}
);
layerId = UUID0;
paths = (
{
closed = 1;
nodes = (
"723 0 LINE",
"734 32 LINE",
"713 38 LINE SMOOTH",
"665 52 OFFCURVE",
"652 67 OFFCURVE",
"652 126 CURVE SMOOTH",
"652 517 LINE SMOOTH",
"652 598 OFFCURVE",
"664 640 OFFCURVE",
"697 684 CURVE SMOOTH",
"710 702 LINE",
"697 718 LINE",
"478 718 LINE",
"466 684 LINE",
"489 678 LINE SMOOTH",
"539 663 OFFCURVE",
"553 647 OFFCURVE",
"553 585 CURVE SMOOTH",
"553 395 LINE",
"226 395 LINE",
"226 517 LINE SMOOTH",
"226 598 OFFCURVE",
"238 640 OFFCURVE",
"271 684 CURVE SMOOTH",
"284 702 LINE",
"271 718 LINE",
"52 718 LINE",
"40 684 LINE",
"63 678 LINE SMOOTH",
"113 663 OFFCURVE",
"127 647 OFFCURVE",
"127 585 CURVE SMOOTH",
"127 133 LINE SMOOTH",
"127 71 OFFCURVE",
"113 55 OFFCURVE",
"63 40 CURVE SMOOTH",
"40 34 LINE",
"52 0 LINE",
"297 0 LINE",
"308 32 LINE",
"287 38 LINE SMOOTH",
"239 52 OFFCURVE",
"226 67 OFFCURVE",
"226 126 CURVE SMOOTH",
"226 334 LINE",
"553 334 LINE",
"553 133 LINE SMOOTH",
"553 71 OFFCURVE",
"539 55 OFFCURVE",
"489 40 CURVE SMOOTH",
"466 34 LINE",
"478 0 LINE"
);
}
);
width = 779;
}
);
unicode = 0048;
},
{
glyphname = I;
layers = (
{
anchors = (
{
name = bottom;
position = "{177, 0}";
},
{
name = ogonek;
position = "{318, 10}";
},
{
name = top;
position = "{177, 718}";
},
{
name = topleft;
position = "{20, 718}";
}
);
hints = (
{
place = "{127, 99}";
},
{
horizontal = 1;
place = "{0, 21}";
target = up;
type = BottomGhost;
},
{
horizontal = 1;
place = "{718, -20}";
target = down;
type = TopGhost;
}
);
layerId = UUID0;
paths = (
{
closed = 1;
nodes = (
"297 0 LINE",
"308 32 LINE",
"287 38 LINE SMOOTH",
"239 52 OFFCURVE",
"226 67 OFFCURVE",
"226 126 CURVE SMOOTH",
"226 517 LINE SMOOTH",
"226 598 OFFCURVE",
"238 640 OFFCURVE",
"271 684 CURVE SMOOTH",
"284 702 LINE",
"271 718 LINE",
"52 718 LINE",
"40 684 LINE",
"63 678 LINE SMOOTH",
"113 663 OFFCURVE",
"127 647 OFFCURVE",
"127 585 CURVE SMOOTH",
"127 133 LINE SMOOTH",
"127 71 OFFCURVE",
"113 55 OFFCURVE",
"63 40 CURVE SMOOTH",
"40 34 LINE",
"52 0 LINE"
);
}
);
width = 353;
}
);
unicode = 0049;
},
{
glyphname = J;
layers = (
{
hints = (
{
place = "{-20, 97}";
},
{
place = "{272, 99}";
},
{
horizontal = 1;
place = "{-14, 52}";
},
{
horizontal = 1;
place = "{718, -20}";
target = down;
type = TopGhost;
}
);
layerId = UUID0;
paths = (
{
closed = 1;
nodes = (
"272 175 LINE SMOOTH",
"272 65 OFFCURVE",
"223 38 OFFCURVE",
"169 38 CURVE SMOOTH",
"110 38 OFFCURVE",
"77 80 OFFCURVE",
"77 131 CURVE SMOOTH",
"77 204 OFFCURVE",
"126 226 OFFCURVE",
"126 239 CURVE SMOOTH",
"126 244 OFFCURVE",
"121 250 OFFCURVE",
"107 250 CURVE SMOOTH",
"24 250 OFFCURVE",
"-20 191 OFFCURVE",
"-20 129 CURVE SMOOTH",
"-20 59 OFFCURVE",
"39 -14 OFFCURVE",
"162 -14 CURVE SMOOTH",
"285 -14 OFFCURVE",
"371 55 OFFCURVE",
"371 236 CURVE SMOOTH",
"371 517 LINE SMOOTH",
"371 598 OFFCURVE",
"383 640 OFFCURVE",
"416 684 CURVE SMOOTH",
"429 702 LINE",
"416 718 LINE",
"197 718 LINE",
"185 684 LINE",
"208 678 LINE SMOOTH",
"258 663 OFFCURVE",
"272 647 OFFCURVE",
"272 585 CURVE SMOOTH"
);
}
);
width = 469;
}
);
rightKerningGroup = J;
unicode = 004A;
},
{
glyphname = K;
layers = (
{
hints = (
{
place = "{127, 99}";
},
{
horizontal = 1;
place = "{-14, 55}";
},
{
horizontal = 1;
place = "{718, -20}";
target = down;
type = TopGhost;
},
{
horizontal = 1;
place = "{0, 21}";
target = up;
type = BottomGhost;
}
);
layerId = UUID0;
paths = (
{
closed = 1;
nodes = (
"297 0 LINE",
"308 32 LINE",
"287 38 LINE SMOOTH",
"239 52 OFFCURVE",
"226 67 OFFCURVE",
"226 126 CURVE SMOOTH",
"226 517 LINE SMOOTH",
"226 598 OFFCURVE",
"238 640 OFFCURVE",
"271 684 CURVE SMOOTH",
"284 702 LINE",
"271 718 LINE",
"52 718 LINE",
"40 684 LINE",
"63 678 LINE SMOOTH",
"113 663 OFFCURVE",
"127 647 OFFCURVE",
"127 585 CURVE SMOOTH",
"127 133 LINE SMOOTH",
"127 71 OFFCURVE",
"113 55 OFFCURVE",
"63 40 CURVE SMOOTH",
"40 34 LINE",
"52 0 LINE"
);
},
{
closed = 1;
nodes = (
"429 299 LINE SMOOTH",
"410 332 OFFCURVE",
"386 352 OFFCURVE",
"360 364 CURVE",
"540 624 LINE SMOOTH",
"564 659 OFFCURVE",
"589 670 OFFCURVE",
"618 678 CURVE SMOOTH",
"641 684 LINE",
"629 718 LINE",
"448 718 LINE",
"429 702 LINE",
"438 684 LINE SMOOTH",
"443 673 OFFCURVE",
"451 655 OFFCURVE",
"451 639 CURVE SMOOTH",
"451 623 OFFCURVE",
"448 611 OFFCURVE",
"430 583 CURVE SMOOTH",
"294 380 LINE",
"286 381 OFFCURVE",
"278 381 OFFCURVE",
"270 381 CURVE SMOOTH",
"253 381 OFFCURVE",
"250 366 OFFCURVE",
"250 357 CURVE SMOOTH",
"250 352 OFFCURVE",
"251 348 OFFCURVE",
"255 346 CURVE SMOOTH",
"280 335 OFFCURVE",
"291 327 OFFCURVE",
"306 301 CURVE SMOOTH",
"425 83 LINE SMOOTH",
"459 22 OFFCURVE",
"496 -14 OFFCURVE",
"559 -14 CURVE SMOOTH",
"590 -14 OFFCURVE",
"622 -2 OFFCURVE",
"651 26 CURVE",
"634 55 LINE",
"620 45 OFFCURVE",
"608 41 OFFCURVE",
"595 41 CURVE SMOOTH",
"577 41 OFFCURVE",
"567 54 OFFCURVE",
"557 72 CURVE SMOOTH"
);
}
);
width = 668;
}
);
rightKerningGroup = K;
unicode = 004B;
},
{
glyphname = L;
layers = (
{
hints = (
{
place = "{127, 99}";
},
{
horizontal = 1;
place = "{0, 57}";
},
{
horizontal = 1;
place = "{718, -20}";
target = down;
type = TopGhost;
},
{
horizontal = 1;
place = "{-25, 21}";
target = up;
type = BottomGhost;
}
);
layerId = UUID0;
paths = (
{
closed = 1;
nodes = (
"226 517 LINE SMOOTH",
"226 598 OFFCURVE",
"238 640 OFFCURVE",
"271 684 CURVE SMOOTH",
"284 702 LINE",
"271 718 LINE",
"52 718 LINE",
"40 684 LINE",
"63 678 LINE SMOOTH",
"113 663 OFFCURVE",
"127 647 OFFCURVE",
"127 585 CURVE SMOOTH",
"127 126 LINE SMOOTH",
"127 67 OFFCURVE",
"114 52 OFFCURVE",
"66 38 CURVE SMOOTH",
"45 32 LINE",
"56 0 LINE",
"456 0 LINE SMOOTH",
"477 0 OFFCURVE",
"490 -4 OFFCURVE",
"498 -14 CURVE SMOOTH",
"506 -25 LINE",
"526 -14 LINE",
"526 157 LINE",
"492 169 LINE",
"486 146 LINE SMOOTH",
"467 75 OFFCURVE",
"448 57 OFFCURVE",
"377 57 CURVE SMOOTH",
"290 57 LINE SMOOTH",
"238 57 OFFCURVE",
"226 71 OFFCURVE",
"226 133 CURVE SMOOTH"
);
}
);
width = 550;
}
);
rightKerningGroup = L;
unicode = 004C;
},
{
glyphname = M;
layers = (
{
hints = (
{
place = "{109, 72}";
},
{
place = "{122, 59}";
},
{
place = "{695, 87}";
},
{
place = "{712, 85}";
},
{
place = "{122, 76}";
},
{
horizontal = 1;
place = "{718, -20}";
target = down;
type = TopGhost;
},
{
horizontal = 1;
place = "{0, 21}";
target = up;
type = BottomGhost;
}
);
layerId = UUID0;
paths = (
{
closed = 1;
nodes = (
"787 468 LINE SMOOTH",
"786 483 OFFCURVE",
"782 546 OFFCURVE",
"782 558 CURVE SMOOTH",
"782 614 OFFCURVE",
"793 648 OFFCURVE",
"818 684 CURVE SMOOTH",
"830 702 LINE",
"815 718 LINE",
"671 718 LINE",
"459 215 LINE",
"253 718 LINE",
"71 718 LINE",
"60 684 LINE",
"83 678 LINE SMOOTH",
"127 667 OFFCURVE",
"141 652 OFFCURVE",
"141 606 CURVE SMOOTH",
"141 590 OFFCURVE",
"137 537 OFFCURVE",
"136 529 CURVE SMOOTH",
"109 133 LINE SMOOTH",
"105 71 OFFCURVE",
"89 55 OFFCURVE",
"38 40 CURVE SMOOTH",
"15 34 LINE",
"26 0 LINE",
"214 0 LINE",
"229 16 LINE",
"217 34 LINE SMOOTH",
"192 70 OFFCURVE",
"181 104 OFFCURVE",
"181 160 CURVE SMOOTH",
"181 172 OFFCURVE",
"184 223 OFFCURVE",
"187 258 CURVE SMOOTH",
"209 566 LINE",
"418 72 LINE",
"472 72 LINE",
"681 566 LINE",
"710 149 LINE SMOOTH",
"711 138 OFFCURVE",
"712 121 OFFCURVE",
"712 112 CURVE SMOOTH",
"712 71 OFFCURVE",
"698 53 OFFCURVE",
"655 40 CURVE SMOOTH",
"632 34 LINE",
"644 0 LINE",
"863 0 LINE",
"876 16 LINE",
"831 61 OFFCURVE",
"813 113 OFFCURVE",
"807 194 CURVE SMOOTH"
);
}
);
width = 921;
}
);
unicode = 004D;
},
{
glyphname = N;
layers = (
{
hints = (
{
place = "{121, 70}";
},
{
place = "{589, 70}";
},
{
horizontal = 1;
place = "{0, 21}";
target = up;
type = BottomGhost;
},
{
horizontal = 1;
place = "{718, -20}";
target = down;
type = TopGhost;
}
);
layerId = UUID0;
paths = (
{
closed = 1;
nodes = (
"572 0 LINE",
"673 0 LINE",
"686 16 LINE",
"673 34 LINE SMOOTH",
"663 48 OFFCURVE",
"659 62 OFFCURVE",
"659 88 CURVE SMOOTH",
"659 517 LINE SMOOTH",
"659 598 OFFCURVE",
"671 640 OFFCURVE",
"704 684 CURVE SMOOTH",
"717 702 LINE",
"704 718 LINE",
"514 718 LINE",
"502 684 LINE",
"525 678 LINE SMOOTH",
"575 663 OFFCURVE",
"589 647 OFFCURVE",
"589 585 CURVE SMOOTH",
"589 151 LINE",
"207 718 LINE",
"46 718 LINE",
"34 684 LINE",
"57 678 LINE SMOOTH",
"107 663 OFFCURVE",
"121 647 OFFCURVE",
"121 585 CURVE SMOOTH",
"121 133 LINE SMOOTH",
"121 71 OFFCURVE",
"107 55 OFFCURVE",
"57 40 CURVE SMOOTH",
"34 34 LINE",
"46 0 LINE",
"236 0 LINE",
"249 16 LINE",
"236 34 LINE SMOOTH",
"203 78 OFFCURVE",
"191 120 OFFCURVE",
"191 201 CURVE SMOOTH",
"191 565 LINE"
);
}
);
width = 779;
}
);
rightKerningGroup = N;
unicode = 004E;
},
{
glyphname = O;
layers = (
{
hints = (
{
place = "{35, 108}";
},
{
place = "{589, 109}";
},
{
horizontal = 1;
place = "{-14, 59}";
},
{
horizontal = 1;
place = "{675, 57}";
}
);
layerId = UUID0;
paths = (
{
closed = 1;
nodes = (
"589 183 OFFCURVE",
"506 45 OFFCURVE",
"362 45 CURVE SMOOTH",
"217 45 OFFCURVE",
"143 180 OFFCURVE",
"143 350 CURVE SMOOTH",
"143 527 OFFCURVE",
"225 675 OFFCURVE",
"371 675 CURVE SMOOTH",
"541 675 OFFCURVE",
"589 480 OFFCURVE",
"589 355 CURVE SMOOTH"
);
},
{
closed = 1;
nodes = (
"35 152 OFFCURVE",
"142 -14 OFFCURVE",
"366 -14 CURVE SMOOTH",
"589 -14 OFFCURVE",
"698 152 OFFCURVE",
"698 358 CURVE SMOOTH",
"698 564 OFFCURVE",
"589 732 OFFCURVE",
"366 732 CURVE SMOOTH",
"142 732 OFFCURVE",
"35 564 OFFCURVE",
"35 358 CURVE SMOOTH"
);
}
);
width = 733;
}
);
leftKerningGroup = C;
rightKerningGroup = D;
unicode = 004F;
},
{
glyphname = OE;
layers = (
{
hints = (
{
place = "{35, 108}";
},
{
place = "{473, 99}";
},
{
horizontal = 1;
place = "{0, 45}";
},
{
horizontal = 1;
place = "{336, 57}";
},
{
horizontal = 1;
place = "{661, 57}";
},
{
horizontal = 1;
place = "{674, 44}";
},
{
horizontal = 1;
place = "{0, 57}";
},
{
horizontal = 1;
place = "{-25, 21}";
target = up;
type = BottomGhost;
},
{
horizontal = 1;
place = "{752, -20}";
target = down;
type = TopGhost;
}
);
layerId = UUID0;
paths = (
{
closed = 1;
nodes = (
"366 718 LINE SMOOTH",
"142 718 OFFCURVE",
"35 556 OFFCURVE",
"35 358 CURVE SMOOTH",
"35 160 OFFCURVE",
"142 0 OFFCURVE",
"366 0 CURVE SMOOTH",
"823 0 LINE SMOOTH",
"844 0 OFFCURVE",
"857 -4 OFFCURVE",
"865 -14 CURVE SMOOTH",
"873 -25 LINE",
"893 -14 LINE",
"893 157 LINE",
"859 169 LINE",
"853 146 LINE SMOOTH",
"834 75 OFFCURVE",
"815 57 OFFCURVE",
"744 57 CURVE SMOOTH",
"636 57 LINE SMOOTH",
"584 57 OFFCURVE",
"572 71 OFFCURVE",
"572 133 CURVE SMOOTH",
"572 336 LINE",
"657 336 LINE SMOOTH",
"728 336 OFFCURVE",
"754 326 OFFCURVE",
"766 279 CURVE SMOOTH",
"772 256 LINE",
"806 268 LINE",
"806 439 LINE",
"786 450 LINE",
"778 439 LINE SMOOTH",
"753 404 OFFCURVE",
"730 393 OFFCURVE",
"699 393 CURVE SMOOTH",
"572 393 LINE",
"572 585 LINE SMOOTH",
"572 647 OFFCURVE",
"584 661 OFFCURVE",
"636 661 CURVE SMOOTH",
"733 661 LINE SMOOTH",
"804 661 OFFCURVE",
"823 643 OFFCURVE",
"842 572 CURVE SMOOTH",
"848 549 LINE",
"882 561 LINE",
"882 739 LINE",
"866 752 LINE",
"848 739 LINE SMOOTH",
"828 724 OFFCURVE",
"792 718 OFFCURVE",
"734 718 CURVE SMOOTH"
);
},
{
closed = 1;
nodes = (
"230 45 OFFCURVE",
"143 185 OFFCURVE",
"143 358 CURVE SMOOTH",
"143 508 OFFCURVE",
"195 674 OFFCURVE",
"355 674 CURVE SMOOTH",
"399 674 OFFCURVE",
"440 658 OFFCURVE",
"473 633 CURVE",
"473 70 LINE",
"445 54 OFFCURVE",
"412 45 OFFCURVE",
"375 45 CURVE SMOOTH"
);
}
);
width = 956;
}
);
leftKerningGroup = C;
unicode = 0152;
},
{
glyphname = P;
layers = (
{
hints = (
{
place = "{127, 99}";
},
{
place = "{472, 104}";
},
{
horizontal = 1;
place = "{261, 52}";
},
{
horizontal = 1;
place = "{676, 56}";
},
{
horizontal = 1;
place = "{0, 21}";
target = up;
type = BottomGhost;
}
);
layerId = UUID0;
paths = (
{
closed = 1;
nodes = (
"226 630 LINE SMOOTH",
"226 648 OFFCURVE",
"234 676 OFFCURVE",
"302 676 CURVE SMOOTH",
"414 676 OFFCURVE",
"472 595 OFFCURVE",
"472 491 CURVE SMOOTH",
"472 384 OFFCURVE",
"415 313 OFFCURVE",
"313 313 CURVE SMOOTH",
"283 313 OFFCURVE",
"272 320 OFFCURVE",
"264 320 CURVE SMOOTH",
"253 320 OFFCURVE",
"248 308 OFFCURVE",
"248 296 CURVE SMOOTH",
"248 272 OFFCURVE",
"291 261 OFFCURVE",
"336 261 CURVE SMOOTH",
"502 261 OFFCURVE",
"576 369 OFFCURVE",
"576 494 CURVE SMOOTH",
"576 624 OFFCURVE",
"492 732 OFFCURVE",
"284 732 CURVE SMOOTH",
"190 732 OFFCURVE",
"86 708 OFFCURVE",
"35 688 CURVE",
"47 651 LINE",
"105 651 LINE SMOOTH",
"120 651 OFFCURVE",
"127 645 OFFCURVE",
"127 627 CURVE SMOOTH",
"127 133 LINE SMOOTH",
"127 72 OFFCURVE",
"113 53 OFFCURVE",
"63 40 CURVE SMOOTH",
"40 34 LINE",
"52 0 LINE",
"271 0 LINE",
"284 16 LINE",
"271 34 LINE SMOOTH",
"238 78 OFFCURVE",
"226 119 OFFCURVE",
"226 201 CURVE SMOOTH"
);
}
);
width = 596;
}
);
rightKerningGroup = P;
unicode = 0050;
},
{
glyphname = Thorn;
layers = (
{
hints = (
{
place = "{127, 99}";
},
{
place = "{472, 104}";
},
{
horizontal = 1;
place = "{130, 52}";
},
{
horizontal = 1;
place = "{548, 53}";
},
{
horizontal = 1;
place = "{0, 21}";
target = up;
type = BottomGhost;
},
{
horizontal = 1;
place = "{718, -20}";
target = down;
type = TopGhost;
}
);
layerId = UUID0;
paths = (
{
closed = 1;
nodes = (
"297 0 LINE",
"308 32 LINE",
"287 38 LINE SMOOTH",
"239 52 OFFCURVE",
"226 67 OFFCURVE",
"226 126 CURVE SMOOTH",
"226 498 LINE SMOOTH",
"226 518 OFFCURVE",
"235 548 OFFCURVE",
"313 548 CURVE SMOOTH",
"418 548 OFFCURVE",
"472 466 OFFCURVE",
"472 360 CURVE SMOOTH",
"472 253 OFFCURVE",
"415 182 OFFCURVE",
"313 182 CURVE SMOOTH",
"283 182 OFFCURVE",
"272 189 OFFCURVE",
"264 189 CURVE SMOOTH",
"253 189 OFFCURVE",
"248 177 OFFCURVE",
"248 165 CURVE SMOOTH",
"248 141 OFFCURVE",
"291 130 OFFCURVE",
"336 130 CURVE SMOOTH",
"502 130 OFFCURVE",
"576 238 OFFCURVE",
"576 363 CURVE SMOOTH",
"576 496 OFFCURVE",
"477 601 OFFCURVE",
"340 601 CURVE SMOOTH",
"305 601 OFFCURVE",
"268 595 OFFCURVE",
"229 581 CURVE",
"235 623 OFFCURVE",
"248 653 OFFCURVE",
"271 684 CURVE SMOOTH",
"284 702 LINE",
"271 718 LINE",
"52 718 LINE",
"40 684 LINE",
"63 678 LINE SMOOTH",
"113 663 OFFCURVE",
"127 647 OFFCURVE",
"127 585 CURVE SMOOTH",
"127 133 LINE SMOOTH",
"127 71 OFFCURVE",
"113 55 OFFCURVE",
"63 40 CURVE SMOOTH",
"40 34 LINE",
"52 0 LINE"
);
}
);
width = 596;
}
);
unicode = 00DE;
},
{
glyphname = Q;
layers = (
{
hints = (
{
place = "{35, 108}";
},
{
place = "{201, 43}";
},
{
place = "{589, 109}";
},
{
horizontal = 1;
place = "{-222, 80}";
},
{
horizontal = 1;
place = "{-14, 59}";
},
{
horizontal = 1;
place = "{196, 58}";
},
{
horizontal = 1;
place = "{675, 57}";
}
);
layerId = UUID0;
paths = (
{
closed = 1;
nodes = (
"35 152 OFFCURVE",
"142 -14 OFFCURVE",
"366 -14 CURVE SMOOTH",
"411 -14 OFFCURVE",
"451 -7 OFFCURVE",
"487 5 CURVE",
"526 -80 LINE SMOOTH",
"559 -154 OFFCURVE",
"606 -222 OFFCURVE",
"690 -222 CURVE SMOOTH",
"737 -222 OFFCURVE",
"783 -189 OFFCURVE",
"783 -139 CURVE SMOOTH",
"783 -134 OFFCURVE",
"780 -129 OFFCURVE",
"774 -129 CURVE SMOOTH",
"766 -129 OFFCURVE",
"749 -142 OFFCURVE",
"719 -142 CURVE SMOOTH",
"670 -142 OFFCURVE",
"638 -119 OFFCURVE",
"614 -65 CURVE SMOOTH",
"564 46 LINE",
"654 112 OFFCURVE",
"698 227 OFFCURVE",
"698 358 CURVE SMOOTH",
"698 564 OFFCURVE",
"589 732 OFFCURVE",
"366 732 CURVE SMOOTH",
"142 732 OFFCURVE",
"35 564 OFFCURVE",
"35 358 CURVE SMOOTH"
);
},
{
closed = 1;
nodes = (
"589 264 OFFCURVE",
"565 183 OFFCURVE",
"522 126 CURVE",
"466 214 OFFCURVE",
"398 254 OFFCURVE",
"327 254 CURVE SMOOTH",
"249 254 OFFCURVE",
"201 213 OFFCURVE",
"201 147 CURVE SMOOTH",
"201 140 OFFCURVE",
"201 134 OFFCURVE",
"203 127 CURVE",
"163 182 OFFCURVE",
"143 261 OFFCURVE",
"143 350 CURVE SMOOTH",
"143 527 OFFCURVE",
"225 675 OFFCURVE",
"371 675 CURVE SMOOTH",
"541 675 OFFCURVE",
"589 480 OFFCURVE",
"589 355 CURVE SMOOTH"
);
},
{
closed = 1;
nodes = (
"244 172 OFFCURVE",
"272 196 OFFCURVE",
"310 196 CURVE SMOOTH",
"354 196 OFFCURVE",
"412 163 OFFCURVE",
"458 70 CURVE",
"430 54 OFFCURVE",
"398 45 OFFCURVE",
"362 45 CURVE SMOOTH",
"304 45 OFFCURVE",
"244 70 OFFCURVE",
"244 133 CURVE SMOOTH"
);
}
);
width = 733;
}
);
leftKerningGroup = C;
rightKerningGroup = D;
unicode = 0051;
},
{
glyphname = R;
layers = (
{
hints = (
{
place = "{107, 99}";
},
{
place = "{452, 104}";
},
{
horizontal = 1;
place = "{-14, 55}";
},
{
horizontal = 1;
place = "{676, 56}";
},
{
horizontal = 1;
place = "{0, 21}";
target = up;
type = BottomGhost;
}
);
layerId = UUID0;
paths = (
{
closed = 1;
nodes = (
"604 55 LINE",
"590 45 OFFCURVE",
"578 41 OFFCURVE",
"565 41 CURVE SMOOTH",
"547 41 OFFCURVE",
"536 54 OFFCURVE",
"527 72 CURVE SMOOTH",
"434 261 LINE SMOOTH",
"423 282 OFFCURVE",
"412 298 OFFCURVE",
"394 310 CURVE",
"505 336 OFFCURVE",
"556 419 OFFCURVE",
"556 513 CURVE SMOOTH",
"556 633 OFFCURVE",
"472 732 OFFCURVE",
"264 732 CURVE SMOOTH",
"170 732 OFFCURVE",
"66 708 OFFCURVE",
"15 688 CURVE",
"27 651 LINE",
"85 651 LINE SMOOTH",
"100 651 OFFCURVE",
"107 645 OFFCURVE",
"107 627 CURVE SMOOTH",
"107 133 LINE SMOOTH",
"107 72 OFFCURVE",
"93 53 OFFCURVE",
"43 40 CURVE SMOOTH",
"20 34 LINE",
"32 0 LINE",
"251 0 LINE",
"264 16 LINE",
"251 34 LINE SMOOTH",
"219 78 OFFCURVE",
"206 119 OFFCURVE",
"206 201 CURVE SMOOTH",
"206 630 LINE SMOOTH",
"206 648 OFFCURVE",
"214 676 OFFCURVE",
"282 676 CURVE SMOOTH",
"394 676 OFFCURVE",
"452 603 OFFCURVE",
"452 510 CURVE SMOOTH",
"452 417 OFFCURVE",
"395 354 OFFCURVE",
"293 354 CURVE SMOOTH",
"263 354 OFFCURVE",
"252 361 OFFCURVE",
"244 361 CURVE SMOOTH",
"233 361 OFFCURVE",
"228 349 OFFCURVE",
"228 337 CURVE SMOOTH",
"228 327 OFFCURVE",
"234 319 OFFCURVE",
"247 314 CURVE SMOOTH",
"286 300 OFFCURVE",
"302 293 OFFCURVE",
"315 264 CURVE SMOOTH",
"391 103 LINE SMOOTH",
"426 28 OFFCURVE",
"459 -14 OFFCURVE",
"529 -14 CURVE SMOOTH",
"560 -14 OFFCURVE",
"592 -2 OFFCURVE",
"621 26 CURVE"
);
}
);
width = 640;
}
);
unicode = 0052;
},
{
glyphname = S;
layers = (
{
hints = (
{
place = "{45, 111}";
},
{
place = "{61, 95}";
},
{
place = "{406, 98}";
},
{
place = "{421, 83}";
},
{
place = "{421, 101}";
},
{
horizontal = 1;
place = "{-14, 56}";
},
{
horizontal = 1;
place = "{676, 56}";
}
);
layerId = UUID0;
paths = (
{
closed = 1;
nodes = (
"206 42 OFFCURVE",
"148 91 OFFCURVE",
"148 161 CURVE SMOOTH",
"148 217 OFFCURVE",
"180 243 OFFCURVE",
"180 252 CURVE SMOOTH",
"180 258 OFFCURVE",
"174 264 OFFCURVE",
"159 264 CURVE SMOOTH",
"94 264 OFFCURVE",
"45 216 OFFCURVE",
"45 147 CURVE SMOOTH",
"45 52 OFFCURVE",
"147 -14 OFFCURVE",
"292 -14 CURVE SMOOTH",
"443 -14 OFFCURVE",
"522 65 OFFCURVE",
"522 181 CURVE SMOOTH",
"522 429 OFFCURVE",
"156 386 OFFCURVE",
"156 561 CURVE SMOOTH",
"156 620 OFFCURVE",
"196 676 OFFCURVE",
"279 676 CURVE SMOOTH",
"355 676 OFFCURVE",
"406 633 OFFCURVE",
"406 571 CURVE SMOOTH",
"406 515 OFFCURVE",
"376 490 OFFCURVE",
"376 480 CURVE SMOOTH",
"376 472 OFFCURVE",
"382 468 OFFCURVE",
"397 468 CURVE SMOOTH",
"458 468 OFFCURVE",
"504 516 OFFCURVE",
"504 585 CURVE SMOOTH",
"504 672 OFFCURVE",
"411 732 OFFCURVE",
"279 732 CURVE SMOOTH",
"131 732 OFFCURVE",
"61 636 OFFCURVE",
"61 538 CURVE SMOOTH",
"61 294 OFFCURVE",
"421 350 OFFCURVE",
"421 155 CURVE SMOOTH",
"421 83 OFFCURVE",
"367 42 OFFCURVE",
"292 42 CURVE SMOOTH"
);
}
);
width = 572;
}
);
rightKerningGroup = S;
unicode = 0053;
},
{
glyphname = T;
layers = (
{
hints = (
{
place = "{248, 99}";
},
{
horizontal = 1;
place = "{661, 57}";
},
{
horizontal = 1;
place = "{752, -20}";
target = down;
type = TopGhost;
},
{
horizontal = 1;
place = "{0, 21}";
target = up;
type = BottomGhost;
}
);
layerId = UUID0;
paths = (
{
closed = 1;
nodes = (
"541 549 LINE",
"575 561 LINE",
"575 739 LINE",
"559 752 LINE",
"541 739 LINE SMOOTH",
"521 724 OFFCURVE",
"485 718 OFFCURVE",
"427 718 CURVE SMOOTH",
"168 718 LINE SMOOTH",
"110 718 OFFCURVE",
"74 724 OFFCURVE",
"54 739 CURVE SMOOTH",
"36 752 LINE",
"20 739 LINE",
"20 561 LINE",
"54 549 LINE",
"60 572 LINE SMOOTH",
"79 643 OFFCURVE",
"98 661 OFFCURVE",
"169 661 CURVE SMOOTH",
"214 661 LINE SMOOTH",
"242 661 OFFCURVE",
"248 647 OFFCURVE",
"248 585 CURVE SMOOTH",
"248 201 LINE SMOOTH",
"248 120 OFFCURVE",
"236 78 OFFCURVE",
"203 34 CURVE SMOOTH",
"190 16 LINE",
"203 0 LINE",
"422 0 LINE",
"434 34 LINE",
"411 40 LINE SMOOTH",
"361 55 OFFCURVE",
"347 71 OFFCURVE",
"347 133 CURVE SMOOTH",
"347 585 LINE SMOOTH",
"347 647 OFFCURVE",
"353 661 OFFCURVE",
"381 661 CURVE SMOOTH",
"426 661 LINE SMOOTH",
"497 661 OFFCURVE",
"516 643 OFFCURVE",
"535 572 CURVE SMOOTH"
);
}
);
width = 595;
}
);
leftKerningGroup = T;
rightKerningGroup = T;
unicode = 0054;
},
{
glyphname = U;
layers = (
{
hints = (
{
place = "{111, 99}";
},
{
place = "{562, 70}";
},
{
horizontal = 1;
place = "{-14, 63}";
},
{
horizontal = 1;
place = "{718, -20}";
target = down;
type = TopGhost;
}
);
layerId = UUID0;
paths = (
{
closed = 1;
nodes = (
"210 517 LINE SMOOTH",
"210 598 OFFCURVE",
"222 640 OFFCURVE",
"255 684 CURVE SMOOTH",
"268 702 LINE",
"255 718 LINE",
"36 718 LINE",
"24 684 LINE",
"47 678 LINE SMOOTH",
"97 663 OFFCURVE",
"111 647 OFFCURVE",
"111 585 CURVE SMOOTH",
"111 220 LINE SMOOTH",
"111 55 OFFCURVE",
"227 -14 OFFCURVE",
"373 -14 CURVE SMOOTH",
"517 -14 OFFCURVE",
"632 55 OFFCURVE",
"632 220 CURVE SMOOTH",
"632 517 LINE SMOOTH",
"632 598 OFFCURVE",
"644 640 OFFCURVE",
"677 684 CURVE SMOOTH",
"690 702 LINE",
"677 718 LINE",
"487 718 LINE",
"475 684 LINE",
"498 678 LINE SMOOTH",
"548 663 OFFCURVE",
"562 647 OFFCURVE",
"562 585 CURVE SMOOTH",
"562 220 LINE SMOOTH",
"562 111 OFFCURVE",
"484 49 OFFCURVE",
"386 49 CURVE SMOOTH",
"288 49 OFFCURVE",
"210 111 OFFCURVE",
"210 220 CURVE SMOOTH"
);
}
);
width = 739;
}
);
leftKerningGroup = U;
rightKerningGroup = U;
unicode = 0055;
},
{
glyphname = V;
layers = (
{
hints = (
{
horizontal = 1;
place = "{718, -20}";
target = down;
type = TopGhost;
},
{
horizontal = 1;
place = "{0, 21}";
target = up;
type = BottomGhost;
}
);
layerId = UUID0;
paths = (
{
closed = 1;
nodes = (
"597 584 LINE SMOOTH",
"609 621 OFFCURVE",
"626 653 OFFCURVE",
"652 684 CURVE SMOOTH",
"667 702 LINE",
"654 718 LINE",
"464 718 LINE",
"452 684 LINE",
"475 678 LINE SMOOTH",
"505 670 OFFCURVE",
"519 647 OFFCURVE",
"520 611 CURVE SMOOTH",
"520 587 OFFCURVE",
"513 556 OFFCURVE",
"501 518 CURVE SMOOTH",
"361 83 LINE",
"198 585 LINE SMOOTH",
"191 606 OFFCURVE",
"187 621 OFFCURVE",
"187 634 CURVE SMOOTH",
"187 659 OFFCURVE",
"201 670 OFFCURVE",
"232 678 CURVE SMOOTH",
"255 684 LINE",
"243 718 LINE",
"18 718 LINE",
"5 702 LINE",
"48 669 OFFCURVE",
"73 646 OFFCURVE",
"95 580 CURVE SMOOTH",
"290 0 LINE",
"404 0 LINE"
);
}
);
width = 682;
}
);
leftKerningGroup = V;
rightKerningGroup = V;
unicode = 0056;
},
{
glyphname = W;
layers = (
{
hints = (
{
horizontal = 1;
place = "{718, -20}";
target = down;
type = TopGhost;
},
{
horizontal = 1;
place = "{0, 21}";
target = up;
type = BottomGhost;
}
);
layerId = UUID0;
paths = (
{
closed = 1;
nodes = (
"1002 584 LINE SMOOTH",
"1014 621 OFFCURVE",
"1031 653 OFFCURVE",
"1057 684 CURVE SMOOTH",
"1072 702 LINE",
"1059 718 LINE",
"869 718 LINE",
"857 684 LINE",
"880 678 LINE SMOOTH",
"910 670 OFFCURVE",
"924 647 OFFCURVE",
"925 611 CURVE SMOOTH",
"925 587 OFFCURVE",
"918 556 OFFCURVE",
"906 518 CURVE SMOOTH",
"766 83 LINE",
"603 585 LINE SMOOTH",
"596 606 OFFCURVE",
"592 621 OFFCURVE",
"592 634 CURVE SMOOTH",
"592 659 OFFCURVE",
"606 670 OFFCURVE",
"637 678 CURVE SMOOTH",
"660 684 LINE",
"648 718 LINE",
"423 718 LINE",
"410 702 LINE",
"453 669 OFFCURVE",
"478 646 OFFCURVE",
"500 580 CURVE SMOOTH",
"510 548 LINE",
"361 83 LINE",
"198 585 LINE SMOOTH",
"191 606 OFFCURVE",
"187 621 OFFCURVE",
"187 634 CURVE SMOOTH",
"187 659 OFFCURVE",
"201 670 OFFCURVE",
"232 678 CURVE SMOOTH",
"255 684 LINE",
"243 718 LINE",
"18 718 LINE",
"5 702 LINE",
"48 669 OFFCURVE",
"73 646 OFFCURVE",
"95 580 CURVE SMOOTH",
"290 0 LINE",
"404 0 LINE",
"548 436 LINE",
"695 0 LINE",
"809 0 LINE"
);
}
);
width = 1087;
}
);
leftKerningGroup = V;
rightKerningGroup = V;
unicode = 0057;
},
{
glyphname = X;
layers = (
{
hints = (
{
horizontal = 1;
place = "{718, -20}";
target = down;
type = TopGhost;
},
{
horizontal = 1;
place = "{0, 21}";
target = up;
type = BottomGhost;
}
);
layerId = UUID0;
paths = (
{
closed = 1;
nodes = (
"250 576 LINE SMOOTH",
"240 591 OFFCURVE",
"228 614 OFFCURVE",
"228 635 CURVE SMOOTH",
"228 654 OFFCURVE",
"238 670 OFFCURVE",
"267 678 CURVE SMOOTH",
"290 684 LINE",
"278 718 LINE",
"41 718 LINE",
"28 702 LINE",
"63 672 OFFCURVE",
"94 631 OFFCURVE",
"119 596 CURVE SMOOTH",
"290 353 LINE",
"111 94 LINE SMOOTH",
"87 59 OFFCURVE",
"62 48 OFFCURVE",
"33 40 CURVE SMOOTH",
"10 34 LINE",
"22 0 LINE",
"206 0 LINE",
"225 16 LINE",
"216 34 LINE SMOOTH",
"211 45 OFFCURVE",
"203 63 OFFCURVE",
"203 79 CURVE SMOOTH",
"203 95 OFFCURVE",
"206 107 OFFCURVE",
"224 135 CURVE SMOOTH",
"330 295 LINE",
"439 142 LINE SMOOTH",
"449 127 OFFCURVE",
"461 104 OFFCURVE",
"461 83 CURVE SMOOTH",
"461 64 OFFCURVE",
"451 48 OFFCURVE",
"422 40 CURVE SMOOTH",
"399 34 LINE",
"411 0 LINE",
"648 0 LINE",
"661 16 LINE",
"622 48 OFFCURVE",
"601 78 OFFCURVE",
"574 116 CURVE SMOOTH",
"394 371 LINE",
"569 624 LINE SMOOTH",
"593 659 OFFCURVE",
"618 670 OFFCURVE",
"647 678 CURVE SMOOTH",
"670 684 LINE",
"658 718 LINE",
"474 718 LINE",
"455 702 LINE",
"464 684 LINE SMOOTH",
"469 673 OFFCURVE",
"477 655 OFFCURVE",
"477 639 CURVE SMOOTH",
"477 623 OFFCURVE",
"474 611 OFFCURVE",
"456 583 CURVE SMOOTH",
"353 429 LINE"
);
}
);
width = 680;
}
);
unicode = 0058;
},
{
glyphname = Y;
layers = (
{
hints = (
{
horizontal = 1;
place = "{718, -20}";
target = down;
type = TopGhost;
},
{
horizontal = 1;
place = "{0, 21}";
target = up;
type = BottomGhost;
}
);
layerId = UUID0;
paths = (
{
closed = 1;
nodes = (
"218 571 LINE SMOOTH",
"207 590 OFFCURVE",
"187 621 OFFCURVE",
"187 634 CURVE SMOOTH",
"187 659 OFFCURVE",
"201 670 OFFCURVE",
"232 678 CURVE SMOOTH",
"255 684 LINE",
"243 718 LINE",
"18 718 LINE",
"5 702 LINE",
"48 669 OFFCURVE",
"71 636 OFFCURVE",
"105 576 CURVE SMOOTH",
"265 295 LINE",
"265 201 LINE SMOOTH",
"265 119 OFFCURVE",
"250 78 OFFCURVE",
"218 34 CURVE SMOOTH",
"205 16 LINE",
"218 0 LINE",
"437 0 LINE",
"449 34 LINE",
"426 40 LINE SMOOTH",
"376 53 OFFCURVE",
"360 72 OFFCURVE",
"360 133 CURVE SMOOTH",
"360 303 LINE",
"515 578 LINE SMOOTH",
"534 612 OFFCURVE",
"560 653 OFFCURVE",
"586 684 CURVE SMOOTH",
"601 702 LINE",
"588 718 LINE",
"398 718 LINE",
"386 684 LINE",
"409 678 LINE SMOOTH",
"430 672 OFFCURVE",
"451 654 OFFCURVE",
"451 625 CURVE SMOOTH",
"451 613 OFFCURVE",
"447 599 OFFCURVE",
"439 584 CURVE SMOOTH",
"326 382 LINE"
);
}
);
width = 626;
}
);
leftKerningGroup = V;
rightKerningGroup = V;
unicode = 0059;
},
{
glyphname = Z;
layers = (
{
hints = (
{
horizontal = 1;
place = "{0, 57}";
},
{
horizontal = 1;
place = "{661, 57}";
},
{
horizontal = 1;
place = "{-25, 21}";
target = up;
type = BottomGhost;
},
{
horizontal = 1;
place = "{752, -20}";
target = down;
type = TopGhost;
}
);
layerId = UUID0;
paths = (
{
closed = 1;
nodes = (
"97 572 LINE SMOOTH",
"116 643 OFFCURVE",
"135 661 OFFCURVE",
"206 661 CURVE SMOOTH",
"417 661 LINE",
"20 0 LINE",
"480 0 LINE SMOOTH",
"501 0 OFFCURVE",
"514 -4 OFFCURVE",
"522 -14 CURVE SMOOTH",
"530 -25 LINE",
"550 -14 LINE",
"550 157 LINE",
"516 169 LINE",
"510 146 LINE SMOOTH",
"491 75 OFFCURVE",
"472 57 OFFCURVE",
"401 57 CURVE SMOOTH",
"175 57 LINE",
"570 718 LINE",
"205 718 LINE SMOOTH",
"147 718 OFFCURVE",
"111 724 OFFCURVE",
"91 739 CURVE SMOOTH",
"73 752 LINE",
"57 739 LINE",
"57 561 LINE",
"91 549 LINE"
);
}
);
width = 590;
}
);
unicode = 005A;
},
{
glyphname = a;
layers = (
{
hints = (
{
place = "{45, 105}";
},
{
place = "{401, 89}";
},
{
horizontal = 1;
place = "{-14, 77}";
},
{
horizontal = 1;
place = "{455, 55}";
}
);
layerId = UUID0;
paths = (
{
closed = 1;
nodes = (
"401 17 OFFCURVE",
"423 -14 OFFCURVE",
"478 -14 CURVE SMOOTH",
"512 -14 OFFCURVE",
"554 10 OFFCURVE",
"589 49 CURVE",
"570 75 LINE",
"553 63 OFFCURVE",
"535 57 OFFCURVE",
"520 57 CURVE SMOOTH",
"501 57 OFFCURVE",
"490 67 OFFCURVE",
"490 88 CURVE SMOOTH",
"490 415 LINE SMOOTH",
"490 432 OFFCURVE",
"495 442 OFFCURVE",
"503 454 CURVE SMOOTH",
"515 472 LINE",
"504 485 LINE",
"436 490 OFFCURVE",
"366 510 OFFCURVE",
"304 510 CURVE SMOOTH",
"145 510 OFFCURVE",
"45 402 OFFCURVE",
"45 229 CURVE SMOOTH",
"45 67 OFFCURVE",
"130 -14 OFFCURVE",
"224 -14 CURVE SMOOTH",
"286 -14 OFFCURVE",
"343 11 OFFCURVE",
"401 92 CURVE"
);
},
{
closed = 1;
nodes = (
"150 379 OFFCURVE",
"206 455 OFFCURVE",
"303 455 CURVE SMOOTH",
"336 455 OFFCURVE",
"370 445 OFFCURVE",
"401 424 CURVE",
"401 154 LINE",
"364 91 OFFCURVE",
"315 63 OFFCURVE",
"264 63 CURVE SMOOTH",
"205 63 OFFCURVE",
"150 112 OFFCURVE",
"150 248 CURVE SMOOTH"
);
}
);
width = 604;
}
);
leftKerningGroup = a;
unicode = 0061;
},
{
glyphname = ae;
layers = (
{
hints = (
{
place = "{45, 95}";
},
{
place = "{381, 103}";
},
{
place = "{715, 95}";
},
{
horizontal = 1;
place = "{-14, 54}";
},
{
horizontal = 1;
place = "{194, 56}";
},
{
horizontal = 1;
place = "{250, 56}";
},
{
horizontal = 1;
place = "{444, 66}";
},
{
horizontal = 1;
place = "{460, 50}";
},
{
horizontal = 1;
place = "{-14, 66}";
}
);
layerId = UUID0;
paths = (
{
closed = 1;
nodes = (
"138 510 OFFCURVE",
"59 448 OFFCURVE",
"59 428 CURVE SMOOTH",
"59 415 OFFCURVE",
"74 399 OFFCURVE",
"85 399 CURVE SMOOTH",
"99 399 OFFCURVE",
"123 444 OFFCURVE",
"233 444 CURVE SMOOTH",
"330 444 OFFCURVE",
"381 371 OFFCURVE",
"381 254 CURVE SMOOTH",
"381 116 OFFCURVE",
"326 40 OFFCURVE",
"235 40 CURVE SMOOTH",
"172 40 OFFCURVE",
"140 85 OFFCURVE",
"140 132 CURVE SMOOTH",
"140 191 OFFCURVE",
"182 250 OFFCURVE",
"267 250 CURVE SMOOTH",
"314 250 OFFCURVE",
"329 237 OFFCURVE",
"341 237 CURVE SMOOTH",
"349 237 OFFCURVE",
"356 248 OFFCURVE",
"356 259 CURVE SMOOTH",
"356 294 OFFCURVE",
"267 306 OFFCURVE",
"236 306 CURVE SMOOTH",
"111 306 OFFCURVE",
"45 217 OFFCURVE",
"45 133 CURVE SMOOTH",
"45 58 OFFCURVE",
"100 -14 OFFCURVE",
"215 -14 CURVE SMOOTH",
"308 -14 OFFCURVE",
"376 31 OFFCURVE",
"410 106 CURVE",
"447 31 OFFCURVE",
"518 -14 OFFCURVE",
"611 -14 CURVE SMOOTH",
"690 -14 OFFCURVE",
"759 17 OFFCURVE",
"809 75 CURVE SMOOTH",
"811 77 OFFCURVE",
"813 80 OFFCURVE",
"813 84 CURVE SMOOTH",
"813 97 OFFCURVE",
"798 113 OFFCURVE",
"787 113 CURVE SMOOTH",
"782 113 OFFCURVE",
"780 111 OFFCURVE",
"778 109 CURVE SMOOTH",
"738 70 OFFCURVE",
"688 52 OFFCURVE",
"632 52 CURVE SMOOTH",
"535 52 OFFCURVE",
"484 125 OFFCURVE",
"484 242 CURVE SMOOTH",
"484 383 OFFCURVE",
"535 460 OFFCURVE",
"620 460 CURVE SMOOTH",
"683 460 OFFCURVE",
"715 413 OFFCURVE",
"715 364 CURVE SMOOTH",
"715 307 OFFCURVE",
"673 250 OFFCURVE",
"588 250 CURVE SMOOTH",
"547 250 OFFCURVE",
"534 263 OFFCURVE",
"524 263 CURVE SMOOTH",
"516 263 OFFCURVE",
"509 252 OFFCURVE",
"509 241 CURVE SMOOTH",
"509 206 OFFCURVE",
"591 194 OFFCURVE",
"619 194 CURVE SMOOTH",
"744 194 OFFCURVE",
"810 281 OFFCURVE",
"810 363 CURVE SMOOTH",
"810 438 OFFCURVE",
"755 510 OFFCURVE",
"640 510 CURVE SMOOTH",
"552 510 OFFCURVE",
"482 476 OFFCURVE",
"437 419 CURVE",
"397 476 OFFCURVE",
"333 510 OFFCURVE",
"254 510 CURVE SMOOTH"
);
}
);
width = 865;
}
);
leftKerningGroup = a;
unicode = 00E6;
},
{
glyphname = b;
layers = (
{
hints = (
{
place = "{98, 91}";
},
{
place = "{439, 106}";
},
{
horizontal = 1;
place = "{-14, 56}";
},
{
horizontal = 1;
place = "{441, 69}";
},
{
horizontal = 1;
place = "{454, 56}";
},
{
horizontal = 1;
place = "{782, -20}";
target = down;
type = TopGhost;
}
);
layerId = UUID0;
paths = (
{
closed = 1;
nodes = (
"383 454 OFFCURVE",
"439 370 OFFCURVE",
"439 248 CURVE SMOOTH",
"439 122 OFFCURVE",
"383 42 OFFCURVE",
"294 42 CURVE SMOOTH",
"251 42 OFFCURVE",
"220 52 OFFCURVE",
"189 74 CURVE",
"189 750 LINE SMOOTH",
"189 769 OFFCURVE",
"176 782 OFFCURVE",
"157 782 CURVE SMOOTH",
"119 782 OFFCURVE",
"64 757 OFFCURVE",
"25 722 CURVE",
"34 696 LINE",
"78 696 LINE SMOOTH",
"92 696 OFFCURVE",
"98 690 OFFCURVE",
"98 674 CURVE SMOOTH",
"98 49 LINE",
"137 10 OFFCURVE",
"208 -14 OFFCURVE",
"285 -14 CURVE SMOOTH",
"434 -14 OFFCURVE",
"545 106 OFFCURVE",
"545 268 CURVE SMOOTH",
"545 410 OFFCURVE",
"457 510 OFFCURVE",
"332 510 CURVE SMOOTH",
"298 510 OFFCURVE",
"264 502 OFFCURVE",
"231 481 CURVE SMOOTH",
"225 477 OFFCURVE",
"222 470 OFFCURVE",
"222 463 CURVE SMOOTH",
"222 452 OFFCURVE",
"229 441 OFFCURVE",
"237 441 CURVE SMOOTH",
"247 441 OFFCURVE",
"260 454 OFFCURVE",
"301 454 CURVE SMOOTH"
);
}
);
width = 590;
}
);
unicode = 0062;
},
{
glyphname = c;
layers = (
{
hints = (
{
place = "{45, 104}";
},
{
place = "{370, 93}";
},
{
horizontal = 1;
place = "{-14, 67}";
},
{
horizontal = 1;
place = "{458, 52}";
}
);
layerId = UUID0;
paths = (
{
closed = 1;
nodes = (
"394 69 OFFCURVE",
"352 53 OFFCURVE",
"303 53 CURVE SMOOTH",
"208 53 OFFCURVE",
"149 131 OFFCURVE",
"149 255 CURVE SMOOTH",
"149 376 OFFCURVE",
"200 458 OFFCURVE",
"276 458 CURVE SMOOTH",
"333 458 OFFCURVE",
"370 424 OFFCURVE",
"370 371 CURVE SMOOTH",
"370 315 OFFCURVE",
"346 298 OFFCURVE",
"346 289 CURVE SMOOTH",
"346 281 OFFCURVE",
"352 278 OFFCURVE",
"365 278 CURVE SMOOTH",
"422 278 OFFCURVE",
"463 318 OFFCURVE",
"463 376 CURVE SMOOTH",
"463 455 OFFCURVE",
"390 510 OFFCURVE",
"287 510 CURVE SMOOTH",
"140 510 OFFCURVE",
"45 407 OFFCURVE",
"45 247 CURVE SMOOTH",
"45 96 OFFCURVE",
"146 -14 OFFCURVE",
"286 -14 CURVE SMOOTH",
"355 -14 OFFCURVE",
"419 15 OFFCURVE",
"466 69 CURVE SMOOTH",
"468 71 OFFCURVE",
"469 74 OFFCURVE",
"469 78 CURVE SMOOTH",
"469 91 OFFCURVE",
"455 106 OFFCURVE",
"444 106 CURVE SMOOTH",
"439 106 OFFCURVE",
"436 104 OFFCURVE",
"435 103 CURVE SMOOTH"
);
}
);
width = 509;
}
);
leftKerningGroup = c;
unicode = 0063;
},
{
glyphname = d;
layers = (
{
hints = (
{
place = "{45, 105}";
},
{
place = "{401, 89}";
},
{
horizontal = 1;
place = "{-14, 77}";
},
{
horizontal = 1;
place = "{455, 55}";
},
{
horizontal = 1;
place = "{782, -20}";
target = down;
type = TopGhost;
}
);
layerId = UUID0;
paths = (
{
closed = 1;
nodes = (
"150 379 OFFCURVE",
"206 455 OFFCURVE",
"303 455 CURVE SMOOTH",
"336 455 OFFCURVE",
"370 445 OFFCURVE",
"401 424 CURVE",
"401 154 LINE",
"364 91 OFFCURVE",
"315 63 OFFCURVE",
"264 63 CURVE SMOOTH",
"205 63 OFFCURVE",
"150 112 OFFCURVE",
"150 248 CURVE SMOOTH"
);
},
{
closed = 1;
nodes = (
"490 750 LINE SMOOTH",
"490 769 OFFCURVE",
"477 782 OFFCURVE",
"458 782 CURVE SMOOTH",
"420 782 OFFCURVE",
"365 757 OFFCURVE",
"326 722 CURVE",
"335 696 LINE",
"379 696 LINE SMOOTH",
"393 696 OFFCURVE",
"399 690 OFFCURVE",
"399 674 CURVE SMOOTH",
"399 497 LINE",
"369 506 OFFCURVE",
"338 510 OFFCURVE",
"304 510 CURVE SMOOTH",
"145 510 OFFCURVE",
"45 402 OFFCURVE",
"45 229 CURVE SMOOTH",
"45 67 OFFCURVE",
"130 -14 OFFCURVE",
"224 -14 CURVE SMOOTH",
"286 -14 OFFCURVE",
"343 11 OFFCURVE",
"401 92 CURVE",
"401 17 OFFCURVE",
"423 -14 OFFCURVE",
"478 -14 CURVE SMOOTH",
"512 -14 OFFCURVE",
"554 10 OFFCURVE",
"589 49 CURVE",
"570 75 LINE",
"553 63 OFFCURVE",
"535 57 OFFCURVE",
"520 57 CURVE SMOOTH",
"501 57 OFFCURVE",
"490 67 OFFCURVE",
"490 88 CURVE SMOOTH"
);
}
);
width = 604;
}
);
leftKerningGroup = c;
unicode = 0064;
},
{
glyphname = eth;
layers = (
{
components = (
{
name = eslash;
transform = "{0.9, 0, 0, 0.9, 266, 324}";
}
);
hints = (
{
place = "{43, 104}";
},
{
place = "{74, 85}";
},
{
place = "{448, 93}";
},
{
horizontal = 1;
place = "{-14, 54}";
},
{
horizontal = 1;
place = "{438, 52}";
},
{
horizontal = 1;
place = "{745, 45}";
}
);
layerId = UUID0;
paths = (
{
closed = 1;
nodes = (
"126 790 OFFCURVE",
"74 727 OFFCURVE",
"74 665 CURVE SMOOTH",
"74 611 OFFCURVE",
"113 559 OFFCURVE",
"186 559 CURVE SMOOTH",
"198 559 OFFCURVE",
"202 564 OFFCURVE",
"202 569 CURVE SMOOTH",
"202 580 OFFCURVE",
"159 599 OFFCURVE",
"159 664 CURVE SMOOTH",
"159 708 OFFCURVE",
"187 745 OFFCURVE",
"236 745 CURVE SMOOTH",
"327 745 OFFCURVE",
"399 607 OFFCURVE",
"431 430 CURVE",
"393 472 OFFCURVE",
"344 490 OFFCURVE",
"292 490 CURVE SMOOTH",
"139 490 OFFCURVE",
"43 393 OFFCURVE",
"43 238 CURVE SMOOTH",
"43 84 OFFCURVE",
"139 -14 OFFCURVE",
"292 -14 CURVE SMOOTH",
"444 -14 OFFCURVE",
"541 84 OFFCURVE",
"541 238 CURVE SMOOTH",
"541 411 OFFCURVE",
"473 790 OFFCURVE",
"237 790 CURVE SMOOTH"
);
},
{
closed = 1;
nodes = (
"147 361 OFFCURVE",
"202 438 OFFCURVE",
"289 438 CURVE SMOOTH",
"383 438 OFFCURVE",
"448 352 OFFCURVE",
"448 229 CURVE SMOOTH",
"448 113 OFFCURVE",
"392 40 OFFCURVE",
"304 40 CURVE SMOOTH",
"213 40 OFFCURVE",
"147 119 OFFCURVE",
"147 238 CURVE SMOOTH"
);
}
);
width = 584;
}
);
leftKerningGroup = c;
unicode = 00F0;
},
{
glyphname = e;
layers = (
{
hints = (
{
place = "{45, 103}";
},
{
place = "{379, 95}";
},
{
horizontal = 1;
place = "{-14, 66}";
},
{
horizontal = 1;
place = "{194, 56}";
},
{
horizontal = 1;
place = "{460, 50}";
}
);
layerId = UUID0;
paths = (
{
closed = 1;
nodes = (
"475 77 OFFCURVE",
"477 80 OFFCURVE",
"477 84 CURVE SMOOTH",
"477 97 OFFCURVE",
"462 113 OFFCURVE",
"451 113 CURVE SMOOTH",
"446 113 OFFCURVE",
"444 111 OFFCURVE",
"442 109 CURVE SMOOTH",
"402 70 OFFCURVE",
"352 52 OFFCURVE",
"296 52 CURVE SMOOTH",
"199 52 OFFCURVE",
"148 125 OFFCURVE",
"148 242 CURVE SMOOTH",
"148 383 OFFCURVE",
"199 460 OFFCURVE",
"284 460 CURVE SMOOTH",
"347 460 OFFCURVE",
"379 413 OFFCURVE",
"379 364 CURVE SMOOTH",
"379 307 OFFCURVE",
"337 250 OFFCURVE",
"252 250 CURVE SMOOTH",
"211 250 OFFCURVE",
"198 263 OFFCURVE",
"188 263 CURVE SMOOTH",
"180 263 OFFCURVE",
"173 252 OFFCURVE",
"173 241 CURVE SMOOTH",
"173 206 OFFCURVE",
"255 194 OFFCURVE",
"283 194 CURVE SMOOTH",
"408 194 OFFCURVE",
"474 281 OFFCURVE",
"474 363 CURVE SMOOTH",
"474 438 OFFCURVE",
"419 510 OFFCURVE",
"304 510 CURVE SMOOTH",
"147 510 OFFCURVE",
"45 403 OFFCURVE",
"45 242 CURVE SMOOTH",
"45 88 OFFCURVE",
"135 -14 OFFCURVE",
"275 -14 CURVE SMOOTH",
"354 -14 OFFCURVE",
"423 17 OFFCURVE",
"473 75 CURVE SMOOTH"
);
}
);
width = 529;
}
);
leftKerningGroup = c;
unicode = 0065;
},
{
glyphname = f;
layers = (
{
hints = (
{
place = "{-105, 89}";
},
{
place = "{109, 90}";
},
{
place = "{351, 93}";
},
{
horizontal = 1;
place = "{-238, 43}";
},
{
horizontal = 1;
place = "{434, 63}";
},
{
horizontal = 1;
place = "{737, 45}";
}
);
layerId = UUID0;
paths = (
{
closed = 1;
nodes = (
"45 481 LINE SMOOTH",
"24 476 OFFCURVE",
"21 470 OFFCURVE",
"21 434 CURVE",
"109 434 LINE",
"109 -90 LINE SMOOTH",
"109 -163 OFFCURVE",
"76 -195 OFFCURVE",
"39 -195 CURVE SMOOTH",
"8 -195 OFFCURVE",
"-16 -171 OFFCURVE",
"-16 -129 CURVE SMOOTH",
"-16 -82 OFFCURVE",
"12 -66 OFFCURVE",
"12 -57 CURVE SMOOTH",
"12 -49 OFFCURVE",
"6 -46 OFFCURVE",
"-7 -46 CURVE SMOOTH",
"-64 -46 OFFCURVE",
"-105 -85 OFFCURVE",
"-105 -136 CURVE SMOOTH",
"-105 -200 OFFCURVE",
"-51 -238 OFFCURVE",
"19 -238 CURVE SMOOTH",
"142 -238 OFFCURVE",
"199 -147 OFFCURVE",
"199 -13 CURVE SMOOTH",
"199 434 LINE",
"316 434 LINE",
"330 445 OFFCURVE",
"339 468 OFFCURVE",
"339 497 CURVE",
"199 497 LINE",
"199 573 LINE SMOOTH",
"199 670 OFFCURVE",
"223 737 OFFCURVE",
"284 737 CURVE SMOOTH",
"325 737 OFFCURVE",
"351 709 OFFCURVE",
"351 666 CURVE SMOOTH",
"351 610 OFFCURVE",
"327 593 OFFCURVE",
"327 584 CURVE SMOOTH",
"327 576 OFFCURVE",
"333 573 OFFCURVE",
"346 573 CURVE SMOOTH",
"403 573 OFFCURVE",
"444 613 OFFCURVE",
"444 671 CURVE SMOOTH",
"444 736 OFFCURVE",
"382 782 OFFCURVE",
"295 782 CURVE SMOOTH",
"170 782 OFFCURVE",
"109 670 OFFCURVE",
"109 497 CURVE"
);
}
);
width = 334;
}
);
rightKerningGroup = f;
unicode = 0066;
},
{
glyphname = g;
layers = (
{
hints = (
{
place = "{60, 105}";
},
{
place = "{112, 53}";
},
{
place = "{416, 89}";
},
{
place = "{112, 97}";
},
{
horizontal = 1;
place = "{-278, 52}";
},
{
horizontal = 1;
place = "{15, 77}";
},
{
horizontal = 1;
place = "{455, 55}";
},
{
horizontal = 1;
place = "{-14, 21}";
target = up;
type = BottomGhost;
}
);
layerId = UUID0;
paths = (
{
closed = 1;
nodes = (
"165 379 OFFCURVE",
"221 455 OFFCURVE",
"318 455 CURVE SMOOTH",
"351 455 OFFCURVE",
"385 445 OFFCURVE",
"416 424 CURVE",
"416 183 LINE",
"379 120 OFFCURVE",
"330 92 OFFCURVE",
"279 92 CURVE SMOOTH",
"220 92 OFFCURVE",
"165 133 OFFCURVE",
"165 248 CURVE SMOOTH"
);
},
{
closed = 1;
nodes = (
"241 -226 OFFCURVE",
"209 -184 OFFCURVE",
"209 -133 CURVE SMOOTH",
"209 -60 OFFCURVE",
"258 -38 OFFCURVE",
"258 -25 CURVE SMOOTH",
"258 -20 OFFCURVE",
"253 -14 OFFCURVE",
"239 -14 CURVE SMOOTH",
"156 -14 OFFCURVE",
"112 -73 OFFCURVE",
"112 -135 CURVE SMOOTH",
"112 -205 OFFCURVE",
"167 -278 OFFCURVE",
"283 -278 CURVE SMOOTH",
"418 -278 OFFCURVE",
"505 -188 OFFCURVE",
"505 -22 CURVE SMOOTH",
"505 415 LINE SMOOTH",
"505 432 OFFCURVE",
"510 442 OFFCURVE",
"518 454 CURVE SMOOTH",
"530 472 LINE",
"519 485 LINE",
"451 490 OFFCURVE",
"381 510 OFFCURVE",
"319 510 CURVE SMOOTH",
"160 510 OFFCURVE",
"60 402 OFFCURVE",
"60 229 CURVE SMOOTH",
"60 86 OFFCURVE",
"145 15 OFFCURVE",
"239 15 CURVE SMOOTH",
"301 15 OFFCURVE",
"358 40 OFFCURVE",
"416 121 CURVE",
"416 -38 LINE SMOOTH",
"416 -146 OFFCURVE",
"382 -226 OFFCURVE",
"296 -226 CURVE SMOOTH"
);
}
);
width = 602;
}
);
leftKerningGroup = c;
unicode = 0067;
},
{
glyphname = h;
layers = (
{
hints = (
{
place = "{108, 91}";
},
{
place = "{430, 90}";
},
{
horizontal = 1;
place = "{-16, 68}";
},
{
horizontal = 1;
place = "{432, 78}";
},
{
horizontal = 1;
place = "{0, 21}";
target = up;
type = BottomGhost;
},
{
horizontal = 1;
place = "{782, -20}";
target = down;
type = TopGhost;
}
);
layerId = UUID0;
paths = (
{
closed = 1;
nodes = (
"108 111 LINE SMOOTH",
"108 61 OFFCURVE",
"100 44 OFFCURVE",
"66 36 CURVE SMOOTH",
"45 31 LINE",
"56 0 LINE",
"231 0 LINE",
"243 15 LINE",
"231 31 LINE SMOOTH",
"207 65 OFFCURVE",
"199 97 OFFCURVE",
"199 160 CURVE SMOOTH",
"199 322 OFFCURVE",
"258 432 OFFCURVE",
"344 432 CURVE SMOOTH",
"408 432 OFFCURVE",
"430 396 OFFCURVE",
"430 328 CURVE SMOOTH",
"430 90 LINE SMOOTH",
"430 15 OFFCURVE",
"452 -16 OFFCURVE",
"507 -16 CURVE SMOOTH",
"541 -16 OFFCURVE",
"584 8 OFFCURVE",
"619 47 CURVE",
"600 73 LINE",
"583 59 OFFCURVE",
"565 52 OFFCURVE",
"550 52 CURVE SMOOTH",
"530 52 OFFCURVE",
"520 64 OFFCURVE",
"520 86 CURVE SMOOTH",
"520 328 LINE SMOOTH",
"520 453 OFFCURVE",
"486 510 OFFCURVE",
"386 510 CURVE SMOOTH",
"310 510 OFFCURVE",
"233 448 OFFCURVE",
"199 361 CURVE",
"199 750 LINE SMOOTH",
"199 769 OFFCURVE",
"186 782 OFFCURVE",
"167 782 CURVE SMOOTH",
"129 782 OFFCURVE",
"74 757 OFFCURVE",
"35 722 CURVE",
"44 696 LINE",
"88 696 LINE SMOOTH",
"102 696 OFFCURVE",
"108 690 OFFCURVE",
"108 674 CURVE SMOOTH"
);
}
);
width = 639;
}
);
unicode = 0068;
},
{
glyphname = i;
layers = (
{
hints = (
{
place = "{108, 90}";
},
{
horizontal = 1;
place = "{-14, 68}";
},
{
horizontal = 1;
place = "{724, -20}";
target = down;
type = TopGhost;
},
{
horizontal = 1;
place = "{510, -20}";
target = down;
type = TopGhost;
}
);
layerId = UUID0;
paths = (
{
closed = 1;
nodes = (
"92 632 OFFCURVE",
"130 593 OFFCURVE",
"153 593 CURVE SMOOTH",
"178 593 OFFCURVE",
"216 632 OFFCURVE",
"216 658 CURVE SMOOTH",
"216 684 OFFCURVE",
"178 724 OFFCURVE",
"153 724 CURVE SMOOTH",
"129 724 OFFCURVE",
"92 684 OFFCURVE",
"92 658 CURVE SMOOTH"
);
},
{
closed = 1;
nodes = (
"199 478 LINE SMOOTH",
"199 497 OFFCURVE",
"186 510 OFFCURVE",
"167 510 CURVE SMOOTH",
"129 510 OFFCURVE",
"74 485 OFFCURVE",
"35 450 CURVE",
"44 424 LINE",
"88 424 LINE SMOOTH",
"102 424 OFFCURVE",
"108 418 OFFCURVE",
"108 402 CURVE SMOOTH",
"108 92 LINE SMOOTH",
"108 17 OFFCURVE",
"130 -14 OFFCURVE",
"185 -14 CURVE SMOOTH",
"219 -14 OFFCURVE",
"262 10 OFFCURVE",
"297 49 CURVE",
"278 75 LINE",
"261 61 OFFCURVE",
"243 54 OFFCURVE",
"228 54 CURVE SMOOTH",
"208 54 OFFCURVE",
"198 66 OFFCURVE",
"198 88 CURVE SMOOTH"
);
}
);
width = 312;
}
);
leftKerningGroup = i;
unicode = 0069;
},
{
glyphname = idotless;
layers = (
{
hints = (
{
place = "{108, 90}";
},
{
horizontal = 1;
place = "{-14, 68}";
},
{
horizontal = 1;
place = "{510, -20}";
target = down;
type = TopGhost;
}
);
layerId = UUID0;
paths = (
{
closed = 1;
nodes = (
"199 478 LINE SMOOTH",
"199 497 OFFCURVE",
"186 510 OFFCURVE",
"167 510 CURVE SMOOTH",
"129 510 OFFCURVE",
"74 485 OFFCURVE",
"35 450 CURVE",
"44 424 LINE",
"88 424 LINE SMOOTH",
"102 424 OFFCURVE",
"108 418 OFFCURVE",
"108 402 CURVE SMOOTH",
"108 92 LINE SMOOTH",
"108 17 OFFCURVE",
"130 -14 OFFCURVE",
"185 -14 CURVE SMOOTH",
"219 -14 OFFCURVE",
"262 10 OFFCURVE",
"297 49 CURVE",
"278 75 LINE",
"261 61 OFFCURVE",
"243 54 OFFCURVE",
"228 54 CURVE SMOOTH",
"208 54 OFFCURVE",
"198 66 OFFCURVE",
"198 88 CURVE SMOOTH"
);
}
);
width = 312;
}
);
leftKerningGroup = m;
unicode = 0131;
},
{
glyphname = j;
layers = (
{
hints = (
{
place = "{-111, 89}";
},
{
place = "{103, 91}";
},
{
horizontal = 1;
place = "{-278, 43}";
},
{
horizontal = 1;
place = "{724, -20}";
target = down;
type = TopGhost;
},
{
horizontal = 1;
place = "{510, -20}";
target = down;
type = TopGhost;
}
);
layerId = UUID0;
paths = (
{
closed = 1;
nodes = (
"87 632 OFFCURVE",
"125 593 OFFCURVE",
"148 593 CURVE SMOOTH",
"173 593 OFFCURVE",
"211 632 OFFCURVE",
"211 658 CURVE SMOOTH",
"211 684 OFFCURVE",
"173 724 OFFCURVE",
"148 724 CURVE SMOOTH",
"124 724 OFFCURVE",
"87 684 OFFCURVE",
"87 658 CURVE SMOOTH"
);
},
{
closed = 1;
nodes = (
"103 -130 LINE SMOOTH",
"103 -203 OFFCURVE",
"70 -235 OFFCURVE",
"33 -235 CURVE SMOOTH",
"2 -235 OFFCURVE",
"-22 -211 OFFCURVE",
"-22 -169 CURVE SMOOTH",
"-22 -122 OFFCURVE",
"6 -106 OFFCURVE",
"6 -97 CURVE SMOOTH",
"6 -89 OFFCURVE",
"0 -86 OFFCURVE",
"-13 -86 CURVE SMOOTH",
"-70 -86 OFFCURVE",
"-111 -125 OFFCURVE",
"-111 -176 CURVE SMOOTH",
"-111 -240 OFFCURVE",
"-57 -278 OFFCURVE",
"13 -278 CURVE SMOOTH",
"136 -278 OFFCURVE",
"194 -187 OFFCURVE",
"194 -53 CURVE SMOOTH",
"194 478 LINE SMOOTH",
"194 497 OFFCURVE",
"181 510 OFFCURVE",
"162 510 CURVE SMOOTH",
"124 510 OFFCURVE",
"69 485 OFFCURVE",
"30 450 CURVE",
"39 424 LINE",
"83 424 LINE SMOOTH",
"97 424 OFFCURVE",
"103 418 OFFCURVE",
"103 402 CURVE SMOOTH"
);
}
);
width = 291;
}
);
leftKerningGroup = i;
unicode = 006A;
},
{
glyphname = k;
layers = (
{
hints = (
{
place = "{108, 91}";
},
{
place = "{428, 90}";
},
{
horizontal = 1;
place = "{-14, 63}";
},
{
horizontal = 1;
place = "{441, 69}";
},
{
horizontal = 1;
place = "{782, -20}";
target = down;
type = TopGhost;
},
{
horizontal = 1;
place = "{0, 21}";
target = up;
type = BottomGhost;
}
);
layerId = UUID0;
paths = (
{
closed = 1;
nodes = (
"336 92 LINE SMOOTH",
"371 25 OFFCURVE",
"394 -14 OFFCURVE",
"457 -14 CURVE SMOOTH",
"494 -14 OFFCURVE",
"531 4 OFFCURVE",
"564 49 CURVE",
"543 75 LINE",
"528 60 OFFCURVE",
"508 49 OFFCURVE",
"490 49 CURVE SMOOTH",
"473 49 OFFCURVE",
"459 55 OFFCURVE",
"448 77 CURVE SMOOTH",
"370 225 LINE",
"466 236 OFFCURVE",
"518 310 OFFCURVE",
"518 379 CURVE SMOOTH",
"518 447 OFFCURVE",
"473 510 OFFCURVE",
"380 510 CURVE SMOOTH",
"306 510 OFFCURVE",
"232 448 OFFCURVE",
"199 361 CURVE",
"199 750 LINE SMOOTH",
"199 769 OFFCURVE",
"186 782 OFFCURVE",
"167 782 CURVE SMOOTH",
"129 782 OFFCURVE",
"74 757 OFFCURVE",
"35 722 CURVE",
"44 696 LINE",
"88 696 LINE SMOOTH",
"102 696 OFFCURVE",
"108 690 OFFCURVE",
"108 674 CURVE SMOOTH",
"108 111 LINE SMOOTH",
"108 61 OFFCURVE",
"100 44 OFFCURVE",
"66 36 CURVE SMOOTH",
"45 31 LINE",
"56 0 LINE",
"231 0 LINE",
"243 15 LINE",
"231 31 LINE SMOOTH",
"206 64 OFFCURVE",
"199 97 OFFCURVE",
"199 160 CURVE SMOOTH",
"199 327 OFFCURVE",
"261 441 OFFCURVE",
"361 441 CURVE SMOOTH",
"406 441 OFFCURVE",
"428 408 OFFCURVE",
"428 370 CURVE SMOOTH",
"428 322 OFFCURVE",
"390 267 OFFCURVE",
"313 267 CURVE SMOOTH",
"272 267 OFFCURVE",
"259 276 OFFCURVE",
"249 276 CURVE SMOOTH",
"238 276 OFFCURVE",
"234 266 OFFCURVE",
"234 257 CURVE SMOOTH",
"234 247 OFFCURVE",
"238 240 OFFCURVE",
"253 236 CURVE SMOOTH",
"262 233 LINE"
);
}
);
width = 584;
}
);
unicode = 006B;
},
{
glyphname = l;
layers = (
{
hints = (
{
place = "{98, 90}";
},
{
horizontal = 1;
place = "{-14, 68}";
},
{
horizontal = 1;
place = "{782, -20}";
target = down;
type = TopGhost;
}
);
layerId = UUID0;
paths = (
{
closed = 1;
nodes = (
"189 750 LINE SMOOTH",
"189 769 OFFCURVE",
"176 782 OFFCURVE",
"157 782 CURVE SMOOTH",
"119 782 OFFCURVE",
"64 757 OFFCURVE",
"25 722 CURVE",
"34 696 LINE",
"78 696 LINE SMOOTH",
"92 696 OFFCURVE",
"98 690 OFFCURVE",
"98 674 CURVE SMOOTH",
"98 92 LINE SMOOTH",
"98 17 OFFCURVE",
"120 -14 OFFCURVE",
"175 -14 CURVE SMOOTH",
"209 -14 OFFCURVE",
"252 10 OFFCURVE",
"287 49 CURVE",
"268 75 LINE",
"251 61 OFFCURVE",
"233 54 OFFCURVE",
"218 54 CURVE SMOOTH",
"198 54 OFFCURVE",
"188 66 OFFCURVE",
"188 88 CURVE SMOOTH"
);
}
);
width = 302;
}
);
unicode = 006C;
},
{
glyphname = m;
layers = (
{
hints = (
{
place = "{113, 91}";
},
{
place = "{423, 90}";
},
{
place = "{732, 90}";
},
{
horizontal = 1;
place = "{-14, 68}";
},
{
horizontal = 1;
place = "{432, 78}";
},
{
horizontal = 1;
place = "{0, 21}";
target = up;
type = BottomGhost;
},
{
horizontal = 1;
place = "{500, -20}";
target = down;
type = TopGhost;
}
);
layerId = UUID0;
paths = (
{
closed = 1;
nodes = (
"204 322 OFFCURVE",
"263 432 OFFCURVE",
"349 432 CURVE SMOOTH",
"398 432 OFFCURVE",
"423 398 OFFCURVE",
"423 330 CURVE SMOOTH",
"423 0 LINE",
"545 0 LINE",
"557 15 LINE",
"519 60 OFFCURVE",
"513 96 OFFCURVE",
"513 160 CURVE SMOOTH",
"513 172 LINE SMOOTH",
"516 327 OFFCURVE",
"574 432 OFFCURVE",
"658 432 CURVE SMOOTH",
"707 432 OFFCURVE",
"732 398 OFFCURVE",
"732 330 CURVE SMOOTH",
"732 92 LINE SMOOTH",
"732 17 OFFCURVE",
"754 -14 OFFCURVE",
"809 -14 CURVE SMOOTH",
"843 -14 OFFCURVE",
"886 10 OFFCURVE",
"921 49 CURVE",
"902 75 LINE",
"884 61 OFFCURVE",
"867 54 OFFCURVE",
"852 54 CURVE SMOOTH",
"832 54 OFFCURVE",
"822 66 OFFCURVE",
"822 88 CURVE SMOOTH",
"822 330 LINE SMOOTH",
"822 455 OFFCURVE",
"783 510 OFFCURVE",
"694 510 CURVE SMOOTH",
"621 510 OFFCURVE",
"547 448 OFFCURVE",
"513 361 CURVE",
"506 464 OFFCURVE",
"466 510 OFFCURVE",
"385 510 CURVE SMOOTH",
"312 510 OFFCURVE",
"238 448 OFFCURVE",
"204 361 CURVE",
"204 468 LINE SMOOTH",
"204 487 OFFCURVE",
"191 500 OFFCURVE",
"172 500 CURVE SMOOTH",
"134 500 OFFCURVE",
"79 475 OFFCURVE",
"40 440 CURVE",
"49 414 LINE",
"93 414 LINE SMOOTH",
"107 414 OFFCURVE",
"113 408 OFFCURVE",
"113 392 CURVE SMOOTH",
"113 111 LINE SMOOTH",
"113 61 OFFCURVE",
"105 44 OFFCURVE",
"71 36 CURVE SMOOTH",
"50 31 LINE",
"61 0 LINE",
"236 0 LINE",
"248 15 LINE",
"236 31 LINE SMOOTH",
"212 65 OFFCURVE",
"204 97 OFFCURVE",
"204 160 CURVE SMOOTH"
);
}
);
width = 941;
}
);
leftKerningGroup = m;
unicode = 006D;
},
{
glyphname = n;
layers = (
{
hints = (
{
place = "{113, 91}";
},
{
place = "{435, 90}";
},
{
horizontal = 1;
place = "{-14, 68}";
},
{
horizontal = 1;
place = "{432, 78}";
},
{
horizontal = 1;
place = "{500, -20}";
target = down;
type = TopGhost;
},
{
horizontal = 1;
place = "{0, 21}";
target = up;
type = BottomGhost;
}
);
layerId = UUID0;
paths = (
{
closed = 1;
nodes = (
"204 322 OFFCURVE",
"263 432 OFFCURVE",
"349 432 CURVE SMOOTH",
"406 432 OFFCURVE",
"435 398 OFFCURVE",
"435 330 CURVE SMOOTH",
"435 92 LINE SMOOTH",
"435 17 OFFCURVE",
"457 -14 OFFCURVE",
"512 -14 CURVE SMOOTH",
"546 -14 OFFCURVE",
"589 10 OFFCURVE",
"624 49 CURVE",
"605 75 LINE",
"587 61 OFFCURVE",
"570 54 OFFCURVE",
"555 54 CURVE SMOOTH",
"535 54 OFFCURVE",
"525 66 OFFCURVE",
"525 88 CURVE SMOOTH",
"525 330 LINE SMOOTH",
"525 455 OFFCURVE",
"484 510 OFFCURVE",
"391 510 CURVE SMOOTH",
"315 510 OFFCURVE",
"238 448 OFFCURVE",
"204 361 CURVE",
"204 468 LINE SMOOTH",
"204 487 OFFCURVE",
"191 500 OFFCURVE",
"172 500 CURVE SMOOTH",
"134 500 OFFCURVE",
"79 475 OFFCURVE",
"40 440 CURVE",
"49 414 LINE",
"93 414 LINE SMOOTH",
"107 414 OFFCURVE",
"113 408 OFFCURVE",
"113 392 CURVE SMOOTH",
"113 111 LINE SMOOTH",
"113 61 OFFCURVE",
"105 44 OFFCURVE",
"71 36 CURVE SMOOTH",
"50 31 LINE",
"61 0 LINE",
"236 0 LINE",
"248 15 LINE",
"236 31 LINE SMOOTH",
"212 65 OFFCURVE",
"204 97 OFFCURVE",
"204 160 CURVE SMOOTH"
);
}
);
width = 644;
}
);
leftKerningGroup = m;
unicode = 006E;
},
{
glyphname = o;
layers = (
{
hints = (
{
place = "{45, 104}";
},
{
place = "{428, 105}";
},
{
horizontal = 1;
place = "{-14, 54}";
},
{
horizontal = 1;
place = "{458, 52}";
}
);
layerId = UUID0;
paths = (
{
closed = 1;
nodes = (
"428 122 OFFCURVE",
"369 40 OFFCURVE",
"286 40 CURVE SMOOTH",
"202 40 OFFCURVE",
"149 121 OFFCURVE",
"149 247 CURVE SMOOTH",
"149 372 OFFCURVE",
"207 458 OFFCURVE",
"292 458 CURVE SMOOTH",
"398 458 OFFCURVE",
"428 326 OFFCURVE",
"428 245 CURVE SMOOTH"
);
},
{
closed = 1;
nodes = (
"45 88 OFFCURVE",
"139 -14 OFFCURVE",
"289 -14 CURVE SMOOTH",
"438 -14 OFFCURVE",
"533 88 OFFCURVE",
"533 248 CURVE SMOOTH",
"533 409 OFFCURVE",
"438 510 OFFCURVE",
"289 510 CURVE SMOOTH",
"139 510 OFFCURVE",
"45 409 OFFCURVE",
"45 248 CURVE SMOOTH"
);
}
);
width = 578;
}
);
leftKerningGroup = c;
unicode = 006F;
},
{
glyphname = oe;
layers = (
{
hints = (
{
place = "{45, 104}";
},
{
place = "{428, 105}";
},
{
horizontal = 1;
place = "{-14, 54}";
},
{
horizontal = 1;
place = "{458, 52}";
},
{
place = "{623, 103}";
},
{
place = "{957, 95}";
},
{
horizontal = 1;
place = "{-14, 66}";
},
{
horizontal = 1;
place = "{194, 56}";
},
{
horizontal = 1;
place = "{460, 50}";
}
);
layerId = UUID0;
paths = (
{
closed = 1;
nodes = (
"831 113 OFFCURVE",
"829 111 OFFCURVE",
"827 109 CURVE SMOOTH",
"787 69 OFFCURVE",
"737 52 OFFCURVE",
"681 52 CURVE SMOOTH",
"584 52 OFFCURVE",
"533 125 OFFCURVE",
"533 242 CURVE SMOOTH",
"533 383 OFFCURVE",
"584 460 OFFCURVE",
"669 460 CURVE SMOOTH",
"732 460 OFFCURVE",
"764 413 OFFCURVE",
"764 364 CURVE SMOOTH",
"764 307 OFFCURVE",
"722 250 OFFCURVE",
"637 250 CURVE SMOOTH",
"596 250 OFFCURVE",
"583 263 OFFCURVE",
"573 263 CURVE SMOOTH",
"565 263 OFFCURVE",
"558 252 OFFCURVE",
"558 241 CURVE SMOOTH",
"558 206 OFFCURVE",
"640 194 OFFCURVE",
"668 194 CURVE SMOOTH",
"793 194 OFFCURVE",
"859 281 OFFCURVE",
"859 363 CURVE SMOOTH",
"859 438 OFFCURVE",
"804 510 OFFCURVE",
"689 510 CURVE SMOOTH",
"601 510 OFFCURVE",
"530 476 OFFCURVE",
"485 418 CURVE",
"442 477 OFFCURVE",
"375 510 OFFCURVE",
"289 510 CURVE SMOOTH",
"139 510 OFFCURVE",
"45 409 OFFCURVE",
"45 248 CURVE SMOOTH",
"45 88 OFFCURVE",
"139 -14 OFFCURVE",
"289 -14 CURVE SMOOTH",
"371 -14 OFFCURVE",
"437 17 OFFCURVE",
"480 72 CURVE",
"520 18 OFFCURVE",
"582 -14 OFFCURVE",
"660 -14 CURVE SMOOTH",
"739 -14 OFFCURVE",
"804 21 OFFCURVE",
"858 75 CURVE SMOOTH",
"860 77 OFFCURVE",
"862 80 OFFCURVE",
"862 84 CURVE SMOOTH",
"862 97 OFFCURVE",
"847 113 OFFCURVE",
"836 113 CURVE SMOOTH"
);
},
{
closed = 1;
nodes = (
"202 40 OFFCURVE",
"149 121 OFFCURVE",
"149 247 CURVE SMOOTH",
"149 372 OFFCURVE",
"207 458 OFFCURVE",
"292 458 CURVE SMOOTH",
"398 458 OFFCURVE",
"428 326 OFFCURVE",
"428 245 CURVE SMOOTH",
"428 122 OFFCURVE",
"369 40 OFFCURVE",
"286 40 CURVE SMOOTH"
);
}
);
width = 914;
}
);
leftKerningGroup = c;
rightMetricsKey = e;
unicode = 0153;
},
{
glyphname = p;
layers = (
{
hints = (
{
place = "{103, 90}";
},
{
place = "{444, 106}";
},
{
horizontal = 1;
place = "{-14, 54}";
},
{
horizontal = 1;
place = "{444, 66}";
},
{
horizontal = 1;
place = "{-14, 70}";
},
{
horizontal = 1;
place = "{498, -20}";
target = down;
type = TopGhost;
},
{
horizontal = 1;
place = "{-266, 21}";
target = up;
type = BottomGhost;
}
);
layerId = UUID0;
paths = (
{
closed = 1;
nodes = (
"193 452 LINE SMOOTH",
"193 482 OFFCURVE",
"185 498 OFFCURVE",
"169 498 CURVE SMOOTH",
"125 498 OFFCURVE",
"52 477 OFFCURVE",
"30 458 CURVE",
"30 425 LINE",
"82 414 LINE SMOOTH",
"99 410 OFFCURVE",
"103 401 OFFCURVE",
"103 381 CURVE SMOOTH",
"103 -106 LINE SMOOTH",
"103 -169 OFFCURVE",
"95 -201 OFFCURVE",
"71 -235 CURVE SMOOTH",
"59 -251 LINE",
"71 -266 LINE",
"245 -266 LINE",
"256 -235 LINE",
"235 -230 LINE SMOOTH",
"201 -222 OFFCURVE",
"193 -205 OFFCURVE",
"193 -155 CURVE SMOOTH",
"193 405 LINE",
"228 432 OFFCURVE",
"263 444 OFFCURVE",
"305 444 CURVE SMOOTH",
"387 444 OFFCURVE",
"444 364 OFFCURVE",
"444 248 CURVE SMOOTH",
"444 128 OFFCURVE",
"387 40 OFFCURVE",
"307 40 CURVE SMOOTH",
"262 40 OFFCURVE",
"247 56 OFFCURVE",
"236 56 CURVE SMOOTH",
"225 56 OFFCURVE",
"221 43 OFFCURVE",
"221 31 CURVE SMOOTH",
"221 24 OFFCURVE",
"224 17 OFFCURVE",
"230 13 CURVE SMOOTH",
"257 -5 OFFCURVE",
"292 -14 OFFCURVE",
"330 -14 CURVE SMOOTH",
"457 -14 OFFCURVE",
"550 106 OFFCURVE",
"550 268 CURVE SMOOTH",
"550 410 OFFCURVE",
"462 510 OFFCURVE",
"337 510 CURVE SMOOTH",
"284 510 OFFCURVE",
"235 488 OFFCURVE",
"193 447 CURVE"
);
}
);
width = 595;
}
);
leftKerningGroup = m;
unicode = 0070;
},
{
glyphname = thorn;
layers = (
{
hints = (
{
place = "{103, 90}";
},
{
place = "{444, 106}";
},
{
horizontal = 1;
place = "{-14, 54}";
},
{
horizontal = 1;
place = "{444, 66}";
},
{
horizontal = 1;
place = "{-14, 70}";
},
{
horizontal = 1;
place = "{782, -20}";
target = down;
type = TopGhost;
},
{
horizontal = 1;
place = "{-266, 21}";
target = up;
type = BottomGhost;
}
);
layerId = UUID0;
paths = (
{
closed = 1;
nodes = (
"193 736 LINE SMOOTH",
"193 766 OFFCURVE",
"185 782 OFFCURVE",
"169 782 CURVE SMOOTH",
"125 782 OFFCURVE",
"52 761 OFFCURVE",
"30 742 CURVE",
"30 709 LINE",
"82 698 LINE SMOOTH",
"99 694 OFFCURVE",
"103 685 OFFCURVE",
"103 665 CURVE SMOOTH",
"103 -106 LINE SMOOTH",
"103 -169 OFFCURVE",
"95 -201 OFFCURVE",
"71 -235 CURVE SMOOTH",
"59 -251 LINE",
"71 -266 LINE",
"245 -266 LINE",
"256 -235 LINE",
"235 -230 LINE SMOOTH",
"201 -222 OFFCURVE",
"193 -205 OFFCURVE",
"193 -155 CURVE SMOOTH",
"193 405 LINE",
"228 432 OFFCURVE",
"263 444 OFFCURVE",
"305 444 CURVE SMOOTH",
"387 444 OFFCURVE",
"444 364 OFFCURVE",
"444 248 CURVE SMOOTH",
"444 128 OFFCURVE",
"387 40 OFFCURVE",
"307 40 CURVE SMOOTH",
"262 40 OFFCURVE",
"247 56 OFFCURVE",
"236 56 CURVE SMOOTH",
"225 56 OFFCURVE",
"221 43 OFFCURVE",
"221 31 CURVE SMOOTH",
"221 24 OFFCURVE",
"224 17 OFFCURVE",
"230 13 CURVE SMOOTH",
"257 -5 OFFCURVE",
"292 -14 OFFCURVE",
"330 -14 CURVE SMOOTH",
"457 -14 OFFCURVE",
"550 106 OFFCURVE",
"550 268 CURVE SMOOTH",
"550 410 OFFCURVE",
"462 510 OFFCURVE",
"337 510 CURVE SMOOTH",
"284 510 OFFCURVE",
"235 488 OFFCURVE",
"193 447 CURVE"
);
}
);
width = 595;
}
);
unicode = 00FE;
},
{
glyphname = q;
layers = (
{
hints = (
{
place = "{45, 105}";
},
{
place = "{401, 91}";
},
{
horizontal = 1;
place = "{-14, 77}";
},
{
horizontal = 1;
place = "{455, 55}";
},
{
horizontal = 1;
place = "{-266, 21}";
target = up;
type = BottomGhost;
}
);
layerId = UUID0;
paths = (
{
closed = 1;
nodes = (
"492 415 LINE SMOOTH",
"492 432 OFFCURVE",
"498 442 OFFCURVE",
"505 454 CURVE SMOOTH",
"517 472 LINE",
"506 485 LINE",
"438 490 OFFCURVE",
"366 510 OFFCURVE",
"304 510 CURVE SMOOTH",
"145 510 OFFCURVE",
"45 402 OFFCURVE",
"45 229 CURVE SMOOTH",
"45 67 OFFCURVE",
"130 -14 OFFCURVE",
"224 -14 CURVE SMOOTH",
"286 -14 OFFCURVE",
"343 11 OFFCURVE",
"401 92 CURVE",
"401 -146 LINE SMOOTH",
"401 -190 OFFCURVE",
"390 -205 OFFCURVE",
"359 -219 CURVE SMOOTH",
"328 -233 LINE",
"328 -266 LINE",
"514 -266 LINE",
"526 -251 LINE",
"516 -235 LINE SMOOTH",
"497 -208 OFFCURVE",
"492 -181 OFFCURVE",
"492 -118 CURVE SMOOTH"
);
},
{
closed = 1;
nodes = (
"150 379 OFFCURVE",
"206 455 OFFCURVE",
"303 455 CURVE SMOOTH",
"336 455 OFFCURVE",
"370 445 OFFCURVE",
"401 424 CURVE",
"401 154 LINE",
"364 91 OFFCURVE",
"315 63 OFFCURVE",
"264 63 CURVE SMOOTH",
"205 63 OFFCURVE",
"150 112 OFFCURVE",
"150 248 CURVE SMOOTH"
);
}
);
width = 589;
}
);
leftKerningGroup = c;
unicode = 0071;
},
{
glyphname = r;
layers = (
{
hints = (
{
place = "{113, 91}";
},
{
place = "{348, 89}";
},
{
horizontal = 1;
place = "{437, 63}";
},
{
horizontal = 1;
place = "{0, 21}";
target = up;
type = BottomGhost;
},
{
horizontal = 1;
place = "{510, -20}";
target = down;
type = TopGhost;
}
);
layerId = UUID0;
paths = (
{
closed = 1;
nodes = (
"204 468 LINE SMOOTH",
"204 487 OFFCURVE",
"191 500 OFFCURVE",
"172 500 CURVE SMOOTH",
"134 500 OFFCURVE",
"79 475 OFFCURVE",
"40 440 CURVE",
"49 414 LINE",
"93 414 LINE SMOOTH",
"107 414 OFFCURVE",
"113 408 OFFCURVE",
"113 392 CURVE SMOOTH",
"113 111 LINE SMOOTH",
"113 61 OFFCURVE",
"105 44 OFFCURVE",
"71 36 CURVE SMOOTH",
"50 31 LINE",
"61 0 LINE",
"236 0 LINE",
"248 15 LINE",
"236 31 LINE SMOOTH",
"212 64 OFFCURVE",
"204 96 OFFCURVE",
"204 156 CURVE SMOOTH",
"204 366 OFFCURVE",
"273 437 OFFCURVE",
"315 437 CURVE SMOOTH",
"334 437 OFFCURVE",
"348 422 OFFCURVE",
"348 398 CURVE SMOOTH",
"348 361 OFFCURVE",
"320 338 OFFCURVE",
"320 329 CURVE SMOOTH",
"320 321 OFFCURVE",
"326 318 OFFCURVE",
"339 318 CURVE SMOOTH",
"396 318 OFFCURVE",
"437 357 OFFCURVE",
"437 408 CURVE SMOOTH",
"437 472 OFFCURVE",
"395 510 OFFCURVE",
"340 510 CURVE SMOOTH",
"284 510 OFFCURVE",
"233 450 OFFCURVE",
"210 361 CURVE",
"204 361 LINE"
);
}
);
width = 437;
}
);
leftKerningGroup = m;
unicode = 0072;
},
{
glyphname = s;
layers = (
{
hints = (
{
place = "{54, 92}";
},
{
place = "{66, 80}";
},
{
place = "{323, 90}";
},
{
place = "{335, 91}";
},
{
horizontal = 1;
place = "{-14, 49}";
},
{
horizontal = 1;
place = "{462, 48}";
}
);
layerId = UUID0;
paths = (
{
closed = 1;
nodes = (
"199 35 OFFCURVE",
"146 60 OFFCURVE",
"146 121 CURVE SMOOTH",
"146 154 OFFCURVE",
"158 169 OFFCURVE",
"158 177 CURVE SMOOTH",
"158 186 OFFCURVE",
"147 189 OFFCURVE",
"137 189 CURVE SMOOTH",
"88 189 OFFCURVE",
"54 156 OFFCURVE",
"54 111 CURVE SMOOTH",
"54 34 OFFCURVE",
"129 -14 OFFCURVE",
"228 -14 CURVE SMOOTH",
"348 -14 OFFCURVE",
"426 45 OFFCURVE",
"426 136 CURVE SMOOTH",
"426 217 OFFCURVE",
"343 253 OFFCURVE",
"270 283 CURVE SMOOTH",
"209 308 OFFCURVE",
"153 334 OFFCURVE",
"153 389 CURVE SMOOTH",
"153 431 OFFCURVE",
"185 462 OFFCURVE",
"241 462 CURVE SMOOTH",
"278 462 OFFCURVE",
"323 442 OFFCURVE",
"323 389 CURVE SMOOTH",
"323 358 OFFCURVE",
"308 344 OFFCURVE",
"308 333 CURVE SMOOTH",
"308 325 OFFCURVE",
"314 320 OFFCURVE",
"329 320 CURVE SMOOTH",
"378 320 OFFCURVE",
"413 357 OFFCURVE",
"413 407 CURVE SMOOTH",
"413 471 OFFCURVE",
"341 510 OFFCURVE",
"248 510 CURVE SMOOTH",
"144 510 OFFCURVE",
"66 456 OFFCURVE",
"66 375 CURVE SMOOTH",
"66 279 OFFCURVE",
"153 241 OFFCURVE",
"226 211 CURVE SMOOTH",
"282 187 OFFCURVE",
"335 163 OFFCURVE",
"335 116 CURVE SMOOTH",
"335 68 OFFCURVE",
"296 35 OFFCURVE",
"241 35 CURVE SMOOTH"
);
}
);
width = 481;
}
);
leftKerningGroup = s;
unicode = 0073;
},
{
glyphname = germandbls;
layers = (
{
hints = (
{
place = "{100, 99}";
},
{
place = "{277, 89}";
},
{
place = "{408, 91}";
},
{
place = "{529, 88}";
},
{
horizontal = 1;
place = "{-14, 50}";
},
{
horizontal = 1;
place = "{730, 52}";
},
{
horizontal = 1;
place = "{-14, 70}";
},
{
horizontal = 1;
place = "{0, 21}";
target = up;
type = BottomGhost;
}
);
layerId = UUID0;
paths = (
{
closed = 1;
nodes = (
"366 36 OFFCURVE",
"343 56 OFFCURVE",
"326 56 CURVE SMOOTH",
"315 56 OFFCURVE",
"311 43 OFFCURVE",
"311 31 CURVE SMOOTH",
"311 24 OFFCURVE",
"314 15 OFFCURVE",
"320 11 CURVE SMOOTH",
"352 -6 OFFCURVE",
"391 -14 OFFCURVE",
"435 -14 CURVE SMOOTH",
"543 -14 OFFCURVE",
"617 60 OFFCURVE",
"617 145 CURVE SMOOTH",
"617 223 OFFCURVE",
"560 276 OFFCURVE",
"490 312 CURVE SMOOTH",
"419 348 LINE SMOOTH",
"382 367 OFFCURVE",
"366 391 OFFCURVE",
"366 424 CURVE SMOOTH",
"366 503 OFFCURVE",
"499 557 OFFCURVE",
"499 654 CURVE SMOOTH",
"499 740 OFFCURVE",
"433 782 OFFCURVE",
"350 782 CURVE SMOOTH",
"204 782 OFFCURVE",
"100 692 OFFCURVE",
"100 526 CURVE SMOOTH",
"100 133 LINE SMOOTH",
"100 71 OFFCURVE",
"86 55 OFFCURVE",
"36 40 CURVE SMOOTH",
"13 34 LINE",
"25 0 LINE",
"244 0 LINE",
"257 16 LINE",
"244 34 LINE SMOOTH",
"211 78 OFFCURVE",
"199 120 OFFCURVE",
"199 201 CURVE SMOOTH",
"199 542 LINE SMOOTH",
"199 650 OFFCURVE",
"235 730 OFFCURVE",
"326 730 CURVE SMOOTH",
"366 730 OFFCURVE",
"408 714 OFFCURVE",
"408 654 CURVE SMOOTH",
"408 553 OFFCURVE",
"277 475 OFFCURVE",
"277 395 CURVE SMOOTH",
"277 336 OFFCURVE",
"304 308 OFFCURVE",
"355 276 CURVE SMOOTH",
"430 238 LINE SMOOTH",
"491 207 OFFCURVE",
"529 170 OFFCURVE",
"529 117 CURVE SMOOTH",
"529 58 OFFCURVE",
"478 36 OFFCURVE",
"436 36 CURVE SMOOTH"
);
}
);
width = 635;
}
);
unicode = 00DF;
},
{
glyphname = t;
layers = (
{
hints = (
{
place = "{99, 91}";
},
{
horizontal = 1;
place = "{-14, 69}";
},
{
horizontal = 1;
place = "{434, 63}";
},
{
horizontal = 1;
place = "{632, -20}";
target = down;
type = TopGhost;
}
);
layerId = UUID0;
paths = (
{
closed = 1;
nodes = (
"190 632 LINE",
"151 632 OFFCURVE",
"147 629 OFFCURVE",
"143 608 CURVE SMOOTH",
"132 552 OFFCURVE",
"113 501 OFFCURVE",
"35 481 CURVE SMOOTH",
"14 476 OFFCURVE",
"11 470 OFFCURVE",
"11 434 CURVE",
"99 434 LINE",
"99 82 LINE SMOOTH",
"99 22 OFFCURVE",
"130 -14 OFFCURVE",
"185 -14 CURVE SMOOTH",
"228 -14 OFFCURVE",
"280 16 OFFCURVE",
"315 61 CURVE",
"296 87 LINE",
"271 66 OFFCURVE",
"247 55 OFFCURVE",
"228 55 CURVE SMOOTH",
"201 55 OFFCURVE",
"190 71 OFFCURVE",
"190 112 CURVE SMOOTH",
"190 434 LINE",
"297 434 LINE",
"311 445 OFFCURVE",
"320 468 OFFCURVE",
"320 497 CURVE",
"190 497 LINE"
);
}
);
width = 341;
}
);
leftKerningGroup = m;
unicode = 0074;
},
{
glyphname = u;
layers = (
{
hints = (
{
place = "{103, 91}";
},
{
place = "{432, 83}";
},
{
horizontal = 1;
place = "{-14, 67}";
},
{
horizontal = 1;
place = "{510, -20}";
target = down;
type = TopGhost;
}
);
layerId = UUID0;
paths = (
{
closed = 1;
nodes = (
"515 510 LINE",
"393 497 LINE",
"381 482 LINE",
"393 466 LINE SMOOTH",
"423 415 OFFCURVE",
"432 369 OFFCURVE",
"432 271 CURVE SMOOTH",
"432 135 OFFCURVE",
"379 53 OFFCURVE",
"290 53 CURVE SMOOTH",
"227 53 OFFCURVE",
"194 95 OFFCURVE",
"194 175 CURVE SMOOTH",
"194 478 LINE SMOOTH",
"194 497 OFFCURVE",
"181 510 OFFCURVE",
"162 510 CURVE SMOOTH",
"121 510 OFFCURVE",
"65 485 OFFCURVE",
"30 450 CURVE",
"39 424 LINE",
"83 424 LINE SMOOTH",
"96 424 OFFCURVE",
"103 418 OFFCURVE",
"103 402 CURVE SMOOTH",
"103 152 LINE SMOOTH",
"103 47 OFFCURVE",
"160 -14 OFFCURVE",
"256 -14 CURVE SMOOTH",
"330 -14 OFFCURVE",
"395 23 OFFCURVE",
"425 82 CURVE",
"425 16 OFFCURVE",
"449 -14 OFFCURVE",
"502 -14 CURVE SMOOTH",
"537 -14 OFFCURVE",
"581 11 OFFCURVE",
"612 49 CURVE",
"593 75 LINE",
"577 64 OFFCURVE",
"559 57 OFFCURVE",
"544 57 CURVE SMOOTH",
"525 57 OFFCURVE",
"515 67 OFFCURVE",
"515 88 CURVE SMOOTH"
);
}
);
width = 632;
}
);
leftKerningGroup = u;
unicode = 0075;
},
{
glyphname = v;
layers = (
{
hints = (
{
place = "{406, 82}";
},
{
horizontal = 1;
place = "{-14, 65}";
},
{
horizontal = 1;
place = "{510, -20}";
target = down;
type = TopGhost;
}
);
layerId = UUID0;
paths = (
{
closed = 1;
nodes = (
"235 51 OFFCURVE",
"215 84 OFFCURVE",
"203 166 CURVE SMOOTH",
"158 478 LINE SMOOTH",
"155 498 OFFCURVE",
"144 510 OFFCURVE",
"126 510 CURVE SMOOTH",
"89 510 OFFCURVE",
"35 484 OFFCURVE",
"0 450 CURVE",
"9 424 LINE",
"53 424 LINE SMOOTH",
"66 424 OFFCURVE",
"70 419 OFFCURVE",
"73 402 CURVE SMOOTH",
"104 190 LINE SMOOTH",
"126 38 OFFCURVE",
"166 -14 OFFCURVE",
"268 -14 CURVE SMOOTH",
"383 -14 OFFCURVE",
"488 128 OFFCURVE",
"488 404 CURVE SMOOTH",
"488 437 OFFCURVE",
"486 473 OFFCURVE",
"483 510 CURVE",
"364 496 LINE",
"352 483 LINE",
"362 467 LINE SMOOTH",
"392 419 OFFCURVE",
"406 356 OFFCURVE",
"406 294 CURVE SMOOTH",
"406 171 OFFCURVE",
"367 51 OFFCURVE",
"279 51 CURVE SMOOTH"
);
}
);
width = 553;
}
);
leftKerningGroup = v;
unicode = 0076;
},
{
glyphname = w;
layers = (
{
hints = (
{
place = "{388, 80}";
},
{
place = "{673, 80}";
},
{
horizontal = 1;
place = "{-14, 65}";
},
{
horizontal = 1;
place = "{510, -20}";
target = down;
type = TopGhost;
}
);
layerId = UUID0;
paths = (
{
closed = 1;
nodes = (
"235 51 OFFCURVE",
"215 84 OFFCURVE",
"203 166 CURVE SMOOTH",
"158 478 LINE SMOOTH",
"155 498 OFFCURVE",
"144 510 OFFCURVE",
"126 510 CURVE SMOOTH",
"89 510 OFFCURVE",
"35 484 OFFCURVE",
"0 450 CURVE",
"9 424 LINE",
"53 424 LINE SMOOTH",
"66 424 OFFCURVE",
"70 419 OFFCURVE",
"73 402 CURVE SMOOTH",
"104 190 LINE SMOOTH",
"126 38 OFFCURVE",
"166 -14 OFFCURVE",
"268 -14 CURVE SMOOTH",
"325 -14 OFFCURVE",
"379 28 OFFCURVE",
"416 112 CURVE",
"440 20 OFFCURVE",
"480 -14 OFFCURVE",
"557 -14 CURVE SMOOTH",
"659 -14 OFFCURVE",
"753 128 OFFCURVE",
"753 404 CURVE SMOOTH",
"753 437 OFFCURVE",
"751 473 OFFCURVE",
"748 510 CURVE",
"631 497 LINE",
"619 484 LINE",
"629 468 LINE SMOOTH",
"659 420 OFFCURVE",
"673 357 OFFCURVE",
"673 295 CURVE SMOOTH",
"673 172 OFFCURVE",
"631 51 OFFCURVE",
"564 51 CURVE SMOOTH",
"517 51 OFFCURVE",
"496 84 OFFCURVE",
"484 166 CURVE SMOOTH",
"463 306 LINE",
"466 337 OFFCURVE",
"468 369 OFFCURVE",
"468 404 CURVE SMOOTH",
"468 437 OFFCURVE",
"466 473 OFFCURVE",
"463 510 CURVE",
"346 497 LINE",
"334 484 LINE",
"344 468 LINE SMOOTH",
"374 420 OFFCURVE",
"388 357 OFFCURVE",
"388 295 CURVE SMOOTH",
"388 172 OFFCURVE",
"346 51 OFFCURVE",
"279 51 CURVE SMOOTH"
);
}
);
width = 813;
}
);
leftKerningGroup = v;
unicode = 0077;
},
{
glyphname = x;
layers = (
{
hints = (
{
horizontal = 1;
place = "{-14, 63}";
},
{
horizontal = 1;
place = "{447, 63}";
},
{
horizontal = 1;
place = "{497, -20}";
target = down;
type = TopGhost;
},
{
horizontal = 1;
place = "{0, 21}";
target = up;
type = BottomGhost;
}
);
layerId = UUID0;
paths = (
{
closed = 1;
nodes = (
"515 497 LINE",
"360 497 LINE",
"348 482 LINE",
"367 466 LINE SMOOTH",
"378 457 OFFCURVE",
"386 448 OFFCURVE",
"386 434 CURVE SMOOTH",
"386 412 OFFCURVE",
"349 362 OFFCURVE",
"298 304 CURVE",
"220 440 LINE SMOOTH",
"193 487 OFFCURVE",
"157 510 OFFCURVE",
"113 510 CURVE SMOOTH",
"81 510 OFFCURVE",
"51 497 OFFCURVE",
"20 464 CURVE",
"42 434 LINE",
"54 442 OFFCURVE",
"68 447 OFFCURVE",
"80 447 CURVE SMOOTH",
"97 447 OFFCURVE",
"109 441 OFFCURVE",
"122 419 CURVE SMOOTH",
"231 231 LINE",
"153 149 OFFCURVE",
"67 64 OFFCURVE",
"24 21 CURVE",
"35 0 LINE",
"190 0 LINE",
"202 15 LINE",
"183 31 LINE SMOOTH",
"172 40 OFFCURVE",
"164 49 OFFCURVE",
"164 63 CURVE SMOOTH",
"164 85 OFFCURVE",
"201 135 OFFCURVE",
"252 194 CURVE",
"333 56 LINE SMOOTH",
"360 9 OFFCURVE",
"396 -14 OFFCURVE",
"440 -14 CURVE SMOOTH",
"472 -14 OFFCURVE",
"502 -1 OFFCURVE",
"533 32 CURVE",
"511 62 LINE",
"499 54 OFFCURVE",
"485 49 OFFCURVE",
"473 49 CURVE SMOOTH",
"456 49 OFFCURVE",
"444 55 OFFCURVE",
"431 77 CURVE SMOOTH",
"320 267 LINE",
"397 349 OFFCURVE",
"483 432 OFFCURVE",
"526 476 CURVE"
);
}
);
width = 553;
}
);
unicode = 0078;
},
{
glyphname = y;
layers = (
{
hints = (
{
place = "{103, 91}";
},
{
place = "{120, 97}";
},
{
place = "{430, 83}";
},
{
horizontal = 1;
place = "{-278, 52}";
},
{
horizontal = 1;
place = "{15, 67}";
},
{
horizontal = 1;
place = "{511, -20}";
target = down;
type = TopGhost;
},
{
horizontal = 1;
place = "{-14, 21}";
target = up;
type = BottomGhost;
}
);
layerId = UUID0;
paths = (
{
closed = 1;
nodes = (
"426 -278 OFFCURVE",
"513 -188 OFFCURVE",
"513 -22 CURVE SMOOTH",
"513 511 LINE",
"391 498 LINE",
"379 483 LINE",
"391 467 LINE SMOOTH",
"427 420 OFFCURVE",
"430 370 OFFCURVE",
"430 272 CURVE SMOOTH",
"430 153 OFFCURVE",
"377 82 OFFCURVE",
"288 82 CURVE SMOOTH",
"227 82 OFFCURVE",
"194 124 OFFCURVE",
"194 204 CURVE SMOOTH",
"194 479 LINE SMOOTH",
"194 498 OFFCURVE",
"181 511 OFFCURVE",
"162 511 CURVE SMOOTH",
"121 511 OFFCURVE",
"65 486 OFFCURVE",
"30 451 CURVE",
"39 425 LINE",
"83 425 LINE SMOOTH",
"97 425 OFFCURVE",
"103 419 OFFCURVE",
"103 403 CURVE SMOOTH",
"103 181 LINE SMOOTH",
"103 76 OFFCURVE",
"159 15 OFFCURVE",
"254 15 CURVE SMOOTH",
"328 15 OFFCURVE",
"393 52 OFFCURVE",
"424 110 CURVE",
"424 -38 LINE SMOOTH",
"424 -146 OFFCURVE",
"390 -226 OFFCURVE",
"304 -226 CURVE SMOOTH",
"249 -226 OFFCURVE",
"217 -184 OFFCURVE",
"217 -133 CURVE SMOOTH",
"217 -60 OFFCURVE",
"266 -38 OFFCURVE",
"266 -25 CURVE SMOOTH",
"266 -20 OFFCURVE",
"261 -14 OFFCURVE",
"247 -14 CURVE SMOOTH",
"164 -14 OFFCURVE",
"120 -73 OFFCURVE",
"120 -135 CURVE SMOOTH",
"120 -205 OFFCURVE",
"175 -278 OFFCURVE",
"291 -278 CURVE SMOOTH"
);
}
);
width = 610;
}
);
leftKerningGroup = v;
unicode = 0079;
},
{
color = (187,255,0,1);
glyphname = z;
layers = (
{
hints = (
{
place = "{22, 93}";
},
{
place = "{364, 104}";
},
{
horizontal = 1;
place = "{-242, 58}";
},
{
horizontal = 1;
place = "{134, 37}";
},
{
horizontal = 1;
place = "{439, 58}";
},
{
horizontal = 1;
place = "{521, -20}";
target = down;
type = TopGhost;
}
);
layerId = UUID0;
paths = (
{
closed = 1;
nodes = (
"419 438 LINE",
"446 454 LINE",
"446 472 OFFCURVE",
"440 485 OFFCURVE",
"426 497 CURVE",
"177 497 LINE SMOOTH",
"116 497 OFFCURVE",
"87 502 OFFCURVE",
"58 521 CURVE",
"46 509 LINE",
"46 355 LINE",
"77 344 LINE",
"89 397 LINE SMOOTH",
"97 431 OFFCURVE",
"114 439 OFFCURVE",
"164 439 CURVE SMOOTH",
"314 439 LINE",
"33 31 LINE",
"44 0 LINE",
"300 0 LINE SMOOTH",
"361 0 OFFCURVE",
"390 -5 OFFCURVE",
"419 -24 CURVE",
"431 -12 LINE",
"431 142 LINE",
"400 153 LINE",
"388 100 LINE SMOOTH",
"380 66 OFFCURVE",
"363 58 OFFCURVE",
"313 58 CURVE SMOOTH",
"156 58 LINE"
);
}
);
width = 479;
}
);
leftKerningGroup = m;
unicode = 007A;
},
{
glyphname = f.alt;
layers = (
{
hints = (
{
place = "{-105, 89}";
},
{
place = "{109, 90}";
},
{
place = "{407, 93}";
},
{
horizontal = 1;
place = "{-238, 43}";
},
{
horizontal = 1;
place = "{434, 63}";
},
{
horizontal = 1;
place = "{737, 45}";
}
);
layerId = UUID0;
paths = (
{
closed = 1;
nodes = (
"45 481 LINE SMOOTH",
"24 476 OFFCURVE",
"21 470 OFFCURVE",
"21 434 CURVE",
"109 434 LINE",
"109 -90 LINE SMOOTH",
"109 -163 OFFCURVE",
"76 -195 OFFCURVE",
"39 -195 CURVE SMOOTH",
"8 -195 OFFCURVE",
"-16 -171 OFFCURVE",
"-16 -129 CURVE SMOOTH",
"-16 -82 OFFCURVE",
"12 -66 OFFCURVE",
"12 -57 CURVE SMOOTH",
"12 -49 OFFCURVE",
"6 -46 OFFCURVE",
"-7 -46 CURVE SMOOTH",
"-64 -46 OFFCURVE",
"-105 -85 OFFCURVE",
"-105 -136 CURVE SMOOTH",
"-105 -200 OFFCURVE",
"-51 -238 OFFCURVE",
"19 -238 CURVE SMOOTH",
"142 -238 OFFCURVE",
"199 -147 OFFCURVE",
"199 -13 CURVE SMOOTH",
"199 434 LINE",
"316 434 LINE",
"330 445 OFFCURVE",
"339 468 OFFCURVE",
"339 497 CURVE",
"199 497 LINE",
"199 640 OFFCURVE",
"239 737 OFFCURVE",
"340 737 CURVE SMOOTH",
"383 737 OFFCURVE",
"407 709 OFFCURVE",
"407 666 CURVE SMOOTH",
"407 610 OFFCURVE",
"383 593 OFFCURVE",
"383 584 CURVE SMOOTH",
"383 576 OFFCURVE",
"389 573 OFFCURVE",
"402 573 CURVE SMOOTH",
"458 573 OFFCURVE",
"500 613 OFFCURVE",
"500 671 CURVE SMOOTH",
"500 736 OFFCURVE",
"438 782 OFFCURVE",
"351 782 CURVE SMOOTH",
"205 782 OFFCURVE",
"127 668 OFFCURVE",
"112 497 CURVE"
);
}
);
width = 334;
}
);
},
{
glyphname = z.alt;
layers = (
{
hints = (
{
place = "{20, 93}";
},
{
place = "{362, 104}";
},
{
horizontal = 1;
place = "{-242, 58}";
},
{
horizontal = 1;
place = "{134, 37}";
},
{
horizontal = 1;
place = "{439, 58}";
},
{
horizontal = 1;
place = "{521, -20}";
target = down;
type = TopGhost;
}
);
layerId = UUID0;
paths = (
{
closed = 1;
nodes = (
"412 438 LINE",
"439 454 LINE",
"439 472 OFFCURVE",
"433 485 OFFCURVE",
"419 497 CURVE",
"175 497 LINE SMOOTH",
"114 497 OFFCURVE",
"85 502 OFFCURVE",
"56 521 CURVE",
"44 509 LINE",
"44 355 LINE",
"75 344 LINE",
"87 397 LINE SMOOTH",
"95 431 OFFCURVE",
"112 439 OFFCURVE",
"162 439 CURVE SMOOTH",
"307 439 LINE",
"123 147 LINE",
"131 127 LINE",
"149 132 OFFCURVE",
"167 134 OFFCURVE",
"182 134 CURVE SMOOTH",
"307 134 OFFCURVE",
"362 51 OFFCURVE",
"362 -31 CURVE SMOOTH",
"362 -108 OFFCURVE",
"309 -184 OFFCURVE",
"217 -184 CURVE SMOOTH",
"153 -184 OFFCURVE",
"113 -141 OFFCURVE",
"113 -80 CURVE SMOOTH",
"113 -4 OFFCURVE",
"166 20 OFFCURVE",
"166 32 CURVE SMOOTH",
"166 36 OFFCURVE",
"166 43 OFFCURVE",
"147 43 CURVE SMOOTH",
"64 43 OFFCURVE",
"20 -16 OFFCURVE",
"20 -78 CURVE SMOOTH",
"20 -158 OFFCURVE",
"79 -242 OFFCURVE",
"204 -242 CURVE SMOOTH",
"374 -242 OFFCURVE",
"466 -126 OFFCURVE",
"466 -18 CURVE SMOOTH",
"466 80 OFFCURVE",
"396 171 OFFCURVE",
"245 171 CURVE"
);
}
);
width = 486;
}
);
},
{
glyphname = y.calt;
layers = (
{
hints = (
{
place = "{85, 97}";
},
{
place = "{439, 76}";
},
{
horizontal = 1;
place = "{-278, 58}";
},
{
horizontal = 1;
place = "{15, 64}";
},
{
horizontal = 1;
place = "{510, -20}";
target = down;
type = TopGhost;
},
{
horizontal = 1;
place = "{-14, 21}";
target = up;
type = BottomGhost;
}
);
layerId = UUID0;
paths = (
{
closed = 1;
nodes = (
"245 79 OFFCURVE",
"222 103 OFFCURVE",
"213 166 CURVE SMOOTH",
"168 478 LINE SMOOTH",
"165 498 OFFCURVE",
"154 510 OFFCURVE",
"136 510 CURVE SMOOTH",
"99 510 OFFCURVE",
"45 484 OFFCURVE",
"10 450 CURVE",
"19 424 LINE",
"63 424 LINE SMOOTH",
"76 424 OFFCURVE",
"80 419 OFFCURVE",
"83 402 CURVE SMOOTH",
"114 190 LINE SMOOTH",
"133 59 OFFCURVE",
"176 15 OFFCURVE",
"261 15 CURVE SMOOTH",
"334 15 OFFCURVE",
"400 56 OFFCURVE",
"439 141 CURVE",
"439 -89 OFFCURVE",
"377 -220 OFFCURVE",
"269 -220 CURVE SMOOTH",
"214 -220 OFFCURVE",
"182 -184 OFFCURVE",
"182 -133 CURVE SMOOTH",
"182 -60 OFFCURVE",
"231 -38 OFFCURVE",
"231 -25 CURVE SMOOTH",
"231 -20 OFFCURVE",
"226 -14 OFFCURVE",
"212 -14 CURVE SMOOTH",
"129 -14 OFFCURVE",
"85 -73 OFFCURVE",
"85 -135 CURVE SMOOTH",
"85 -205 OFFCURVE",
"140 -278 OFFCURVE",
"256 -278 CURVE SMOOTH",
"439 -278 OFFCURVE",
"515 -70 OFFCURVE",
"515 217 CURVE SMOOTH",
"515 308 OFFCURVE",
"507 407 OFFCURVE",
"493 510 CURVE",
"380 497 LINE",
"368 484 LINE",
"378 468 LINE SMOOTH",
"410 417 OFFCURVE",
"431 357 OFFCURVE",
"431 295 CURVE SMOOTH",
"431 186 OFFCURVE",
"377 79 OFFCURVE",
"289 79 CURVE SMOOTH"
);
}
);
width = 610;
}
);
},
{
glyphname = f_f;
layers = (
{
hints = (
{
place = "{-105, 89}";
},
{
place = "{109, 90}";
},
{
place = "{393, 90}";
},
{
place = "{414, 69}";
},
{
place = "{635, 93}";
},
{
horizontal = 1;
place = "{-238, 43}";
},
{
horizontal = 1;
place = "{-169, 45}";
},
{
horizontal = 1;
place = "{434, 63}";
},
{
horizontal = 1;
place = "{737, 45}";
}
);
layerId = UUID0;
paths = (
{
closed = 1;
nodes = (
"600 434 LINE",
"614 445 OFFCURVE",
"623 468 OFFCURVE",
"623 497 CURVE",
"483 497 LINE",
"483 573 LINE SMOOTH",
"483 670 OFFCURVE",
"507 737 OFFCURVE",
"568 737 CURVE SMOOTH",
"609 737 OFFCURVE",
"635 709 OFFCURVE",
"635 666 CURVE SMOOTH",
"635 610 OFFCURVE",
"611 593 OFFCURVE",
"611 584 CURVE SMOOTH",
"611 576 OFFCURVE",
"617 573 OFFCURVE",
"630 573 CURVE SMOOTH",
"687 573 OFFCURVE",
"728 613 OFFCURVE",
"728 671 CURVE SMOOTH",
"728 736 OFFCURVE",
"666 782 OFFCURVE",
"579 782 CURVE SMOOTH",
"531 782 OFFCURVE",
"493 765 OFFCURVE",
"464 736 CURVE",
"438 764 OFFCURVE",
"394 782 OFFCURVE",
"341 782 CURVE SMOOTH",
"202 782 OFFCURVE",
"126 668 OFFCURVE",
"112 497 CURVE",
"47 481 LINE SMOOTH",
"26 476 OFFCURVE",
"23 470 OFFCURVE",
"23 434 CURVE",
"109 434 LINE",
"109 -90 LINE SMOOTH",
"109 -163 OFFCURVE",
"76 -195 OFFCURVE",
"39 -195 CURVE SMOOTH",
"8 -195 OFFCURVE",
"-16 -171 OFFCURVE",
"-16 -129 CURVE SMOOTH",
"-16 -82 OFFCURVE",
"12 -66 OFFCURVE",
"12 -57 CURVE SMOOTH",
"12 -49 OFFCURVE",
"6 -46 OFFCURVE",
"-7 -46 CURVE SMOOTH",
"-64 -46 OFFCURVE",
"-105 -85 OFFCURVE",
"-105 -136 CURVE SMOOTH",
"-105 -200 OFFCURVE",
"-51 -238 OFFCURVE",
"19 -238 CURVE SMOOTH",
"97 -238 OFFCURVE",
"148 -201 OFFCURVE",
"175 -140 CURVE",
"202 -159 OFFCURVE",
"234 -169 OFFCURVE",
"270 -169 CURVE SMOOTH",
"413 -169 OFFCURVE",
"483 -27 OFFCURVE",
"483 180 CURVE SMOOTH",
"483 434 LINE"
);
},
{
closed = 1;
nodes = (
"199 434 LINE",
"393 434 LINE",
"393 114 LINE SMOOTH",
"393 -27 OFFCURVE",
"358 -124 OFFCURVE",
"271 -124 CURVE SMOOTH",
"238 -124 OFFCURVE",
"212 -109 OFFCURVE",
"193 -82 CURVE",
"197 -61 OFFCURVE",
"199 -37 OFFCURVE",
"199 -13 CURVE"
);
},
{
closed = 1;
nodes = (
"199 497 LINE SMOOTH",
"199 638 OFFCURVE",
"237 737 OFFCURVE",
"330 737 CURVE SMOOTH",
"384 737 OFFCURVE",
"414 704 OFFCURVE",
"414 654 CURVE SMOOTH",
"406 620 OFFCURVE",
"393 594 OFFCURVE",
"393 507 CURVE SMOOTH",
"393 497 LINE"
);
}
);
width = 618;
}
);
rightKerningGroup = f;
},
{
glyphname = f_f_i;
layers = (
{
hints = (
{
place = "{-105, 89}";
},
{
place = "{109, 90}";
},
{
place = "{393, 90}";
},
{
place = "{676, 90}";
},
{
place = "{691, 93}";
},
{
horizontal = 1;
place = "{-238, 43}";
},
{
horizontal = 1;
place = "{-169, 45}";
},
{
horizontal = 1;
place = "{-14, 68}";
},
{
horizontal = 1;
place = "{434, 63}";
},
{
horizontal = 1;
place = "{737, 45}";
},
{
horizontal = 1;
place = "{510, -20}";
target = down;
type = TopGhost;
}
);
layerId = UUID0;
paths = (
{
closed = 1;
nodes = (
"483 497 LINE SMOOTH",
"483 638 OFFCURVE",
"523 737 OFFCURVE",
"624 737 CURVE SMOOTH",
"667 737 OFFCURVE",
"691 709 OFFCURVE",
"691 666 CURVE SMOOTH",
"691 610 OFFCURVE",
"667 593 OFFCURVE",
"667 584 CURVE SMOOTH",
"667 576 OFFCURVE",
"673 573 OFFCURVE",
"686 573 CURVE SMOOTH",
"742 573 OFFCURVE",
"784 613 OFFCURVE",
"784 671 CURVE SMOOTH",
"784 736 OFFCURVE",
"722 782 OFFCURVE",
"635 782 CURVE SMOOTH",
"569 782 OFFCURVE",
"517 759 OFFCURVE",
"479 718 CURVE",
"449 757 OFFCURVE",
"404 782 OFFCURVE",
"351 782 CURVE SMOOTH",
"205 782 OFFCURVE",
"127 668 OFFCURVE",
"112 497 CURVE",
"47 481 LINE SMOOTH",
"26 476 OFFCURVE",
"23 470 OFFCURVE",
"23 434 CURVE",
"109 434 LINE",
"109 -90 LINE SMOOTH",
"109 -163 OFFCURVE",
"76 -195 OFFCURVE",
"39 -195 CURVE SMOOTH",
"8 -195 OFFCURVE",
"-16 -171 OFFCURVE",
"-16 -129 CURVE SMOOTH",
"-16 -82 OFFCURVE",
"12 -66 OFFCURVE",
"12 -57 CURVE SMOOTH",
"12 -49 OFFCURVE",
"6 -46 OFFCURVE",
"-7 -46 CURVE SMOOTH",
"-64 -46 OFFCURVE",
"-105 -85 OFFCURVE",
"-105 -136 CURVE SMOOTH",
"-105 -200 OFFCURVE",
"-51 -238 OFFCURVE",
"19 -238 CURVE SMOOTH",
"97 -238 OFFCURVE",
"148 -201 OFFCURVE",
"175 -140 CURVE",
"202 -159 OFFCURVE",
"234 -169 OFFCURVE",
"270 -169 CURVE SMOOTH",
"420 -169 OFFCURVE",
"483 -27 OFFCURVE",
"483 180 CURVE SMOOTH",
"483 434 LINE",
"656 434 LINE SMOOTH",
"670 434 OFFCURVE",
"676 428 OFFCURVE",
"676 412 CURVE SMOOTH",
"676 92 LINE SMOOTH",
"676 17 OFFCURVE",
"698 -14 OFFCURVE",
"753 -14 CURVE SMOOTH",
"787 -14 OFFCURVE",
"830 10 OFFCURVE",
"865 49 CURVE",
"846 75 LINE",
"829 61 OFFCURVE",
"811 54 OFFCURVE",
"796 54 CURVE SMOOTH",
"776 54 OFFCURVE",
"766 66 OFFCURVE",
"766 88 CURVE SMOOTH",
"766 478 LINE SMOOTH",
"766 497 OFFCURVE",
"754 510 OFFCURVE",
"735 510 CURVE",
"713 502 OFFCURVE",
"693 497 OFFCURVE",
"656 497 CURVE SMOOTH"
);
},
{
closed = 1;
nodes = (
"199 434 LINE",
"393 434 LINE",
"393 114 LINE SMOOTH",
"393 -27 OFFCURVE",
"358 -124 OFFCURVE",
"267 -124 CURVE SMOOTH",
"236 -124 OFFCURVE",
"211 -109 OFFCURVE",
"193 -82 CURVE",
"197 -61 OFFCURVE",
"199 -37 OFFCURVE",
"199 -13 CURVE"
);
},
{
closed = 1;
nodes = (
"199 497 LINE",
"199 638 OFFCURVE",
"239 737 OFFCURVE",
"340 737 CURVE SMOOTH",
"393 737 OFFCURVE",
"426 704 OFFCURVE",
"434 652 CURVE",
"413 609 OFFCURVE",
"401 556 OFFCURVE",
"396 497 CURVE"
);
}
);
width = 880;
}
);
},
{
glyphname = f_f_l;
layers = (
{
hints = (
{
place = "{-105, 89}";
},
{
place = "{109, 90}";
},
{
place = "{393, 90}";
},
{
place = "{706, 90}";
},
{
horizontal = 1;
place = "{-238, 43}";
},
{
horizontal = 1;
place = "{-169, 45}";
},
{
horizontal = 1;
place = "{-14, 68}";
},
{
horizontal = 1;
place = "{434, 63}";
},
{
horizontal = 1;
place = "{737, 45}";
}
);
layerId = UUID0;
paths = (
{
closed = 1;
nodes = (
"797 746 LINE SMOOTH",
"797 765 OFFCURVE",
"795 778 OFFCURVE",
"776 778 CURVE SMOOTH",
"764 778 OFFCURVE",
"739 768 OFFCURVE",
"715 751 CURVE",
"689 770 OFFCURVE",
"657 782 OFFCURVE",
"621 782 CURVE SMOOTH",
"561 782 OFFCURVE",
"513 760 OFFCURVE",
"477 721 CURVE",
"447 758 OFFCURVE",
"403 782 OFFCURVE",
"351 782 CURVE SMOOTH",
"205 782 OFFCURVE",
"127 668 OFFCURVE",
"112 497 CURVE",
"47 481 LINE SMOOTH",
"26 476 OFFCURVE",
"23 470 OFFCURVE",
"23 434 CURVE",
"109 434 LINE",
"109 -90 LINE SMOOTH",
"109 -163 OFFCURVE",
"76 -195 OFFCURVE",
"39 -195 CURVE SMOOTH",
"8 -195 OFFCURVE",
"-16 -171 OFFCURVE",
"-16 -129 CURVE SMOOTH",
"-16 -82 OFFCURVE",
"12 -66 OFFCURVE",
"12 -57 CURVE SMOOTH",
"12 -49 OFFCURVE",
"6 -46 OFFCURVE",
"-7 -46 CURVE SMOOTH",
"-64 -46 OFFCURVE",
"-105 -85 OFFCURVE",
"-105 -136 CURVE SMOOTH",
"-105 -200 OFFCURVE",
"-51 -238 OFFCURVE",
"19 -238 CURVE SMOOTH",
"97 -238 OFFCURVE",
"148 -201 OFFCURVE",
"175 -140 CURVE",
"202 -159 OFFCURVE",
"234 -169 OFFCURVE",
"270 -169 CURVE SMOOTH",
"420 -169 OFFCURVE",
"483 -27 OFFCURVE",
"483 180 CURVE SMOOTH",
"483 434 LINE",
"600 434 LINE",
"614 445 OFFCURVE",
"623 468 OFFCURVE",
"623 497 CURVE",
"483 497 LINE",
"483 640 OFFCURVE",
"518 737 OFFCURVE",
"609 737 CURVE SMOOTH",
"677 737 OFFCURVE",
"706 686 OFFCURVE",
"706 620 CURVE SMOOTH",
"706 92 LINE SMOOTH",
"706 17 OFFCURVE",
"728 -14 OFFCURVE",
"783 -14 CURVE SMOOTH",
"817 -14 OFFCURVE",
"860 10 OFFCURVE",
"895 49 CURVE",
"876 75 LINE",
"859 61 OFFCURVE",
"841 54 OFFCURVE",
"826 54 CURVE SMOOTH",
"806 54 OFFCURVE",
"796 66 OFFCURVE",
"796 88 CURVE SMOOTH"
);
},
{
closed = 1;
nodes = (
"199 434 LINE",
"393 434 LINE",
"393 114 LINE SMOOTH",
"393 -27 OFFCURVE",
"358 -124 OFFCURVE",
"267 -124 CURVE SMOOTH",
"236 -124 OFFCURVE",
"211 -109 OFFCURVE",
"193 -82 CURVE",
"197 -61 OFFCURVE",
"199 -37 OFFCURVE",
"199 -13 CURVE"
);
},
{
closed = 1;
nodes = (
"392 737 OFFCURVE",
"425 705 OFFCURVE",
"433 655 CURVE",
"413 611 OFFCURVE",
"401 557 OFFCURVE",
"396 497 CURVE",
"199 497 LINE",
"199 638 OFFCURVE",
"239 737 OFFCURVE",
"340 737 CURVE SMOOTH"
);
}
);
width = 880;
}
);
},
{
glyphname = fi;
layers = (
{
hints = (
{
place = "{-105, 89}";
},
{
place = "{109, 90}";
},
{
place = "{392, 90}";
},
{
place = "{407, 93}";
},
{
horizontal = 1;
place = "{-238, 43}";
},
{
horizontal = 1;
place = "{-14, 68}";
},
{
horizontal = 1;
place = "{434, 63}";
},
{
horizontal = 1;
place = "{737, 45}";
},
{
horizontal = 1;
place = "{510, -20}";
target = down;
type = TopGhost;
}
);
layerId = UUID0;
paths = (
{
closed = 1;
nodes = (
"372 434 LINE SMOOTH",
"386 434 OFFCURVE",
"392 428 OFFCURVE",
"392 412 CURVE SMOOTH",
"392 92 LINE SMOOTH",
"392 17 OFFCURVE",
"414 -14 OFFCURVE",
"469 -14 CURVE SMOOTH",
"503 -14 OFFCURVE",
"546 10 OFFCURVE",
"581 49 CURVE",
"562 75 LINE",
"545 61 OFFCURVE",
"527 54 OFFCURVE",
"512 54 CURVE SMOOTH",
"492 54 OFFCURVE",
"482 66 OFFCURVE",
"482 88 CURVE SMOOTH",
"482 478 LINE SMOOTH",
"482 497 OFFCURVE",
"470 510 OFFCURVE",
"451 510 CURVE",
"429 502 OFFCURVE",
"409 497 OFFCURVE",
"372 497 CURVE SMOOTH",
"199 497 LINE",
"199 640 OFFCURVE",
"239 737 OFFCURVE",
"340 737 CURVE SMOOTH",
"383 737 OFFCURVE",
"407 709 OFFCURVE",
"407 666 CURVE SMOOTH",
"407 610 OFFCURVE",
"383 593 OFFCURVE",
"383 584 CURVE SMOOTH",
"383 576 OFFCURVE",
"389 573 OFFCURVE",
"402 573 CURVE SMOOTH",
"458 573 OFFCURVE",
"500 613 OFFCURVE",
"500 671 CURVE SMOOTH",
"500 736 OFFCURVE",
"438 782 OFFCURVE",
"351 782 CURVE SMOOTH",
"205 782 OFFCURVE",
"127 668 OFFCURVE",
"112 497 CURVE",
"45 481 LINE SMOOTH",
"24 476 OFFCURVE",
"21 470 OFFCURVE",
"21 434 CURVE",
"109 434 LINE",
"109 -90 LINE SMOOTH",
"109 -163 OFFCURVE",
"76 -195 OFFCURVE",
"39 -195 CURVE SMOOTH",
"8 -195 OFFCURVE",
"-16 -171 OFFCURVE",
"-16 -129 CURVE SMOOTH",
"-16 -82 OFFCURVE",
"12 -66 OFFCURVE",
"12 -57 CURVE SMOOTH",
"12 -49 OFFCURVE",
"6 -46 OFFCURVE",
"-7 -46 CURVE SMOOTH",
"-64 -46 OFFCURVE",
"-105 -85 OFFCURVE",
"-105 -136 CURVE SMOOTH",
"-105 -200 OFFCURVE",
"-51 -238 OFFCURVE",
"19 -238 CURVE SMOOTH",
"142 -238 OFFCURVE",
"199 -147 OFFCURVE",
"199 -13 CURVE SMOOTH",
"199 434 LINE"
);
}
);
width = 616;
}
);
unicode = FB01;
},
{
glyphname = fl;
layers = (
{
hints = (
{
place = "{-105, 89}";
},
{
place = "{109, 90}";
},
{
place = "{422, 90}";
},
{
horizontal = 1;
place = "{-238, 43}";
},
{
horizontal = 1;
place = "{-14, 68}";
},
{
horizontal = 1;
place = "{434, 63}";
},
{
horizontal = 1;
place = "{737, 45}";
}
);
layerId = UUID0;
paths = (
{
closed = 1;
nodes = (
"45 481 LINE SMOOTH",
"24 476 OFFCURVE",
"21 470 OFFCURVE",
"21 434 CURVE",
"109 434 LINE",
"109 -90 LINE SMOOTH",
"109 -163 OFFCURVE",
"76 -195 OFFCURVE",
"39 -195 CURVE SMOOTH",
"8 -195 OFFCURVE",
"-16 -171 OFFCURVE",
"-16 -129 CURVE SMOOTH",
"-16 -82 OFFCURVE",
"12 -66 OFFCURVE",
"12 -57 CURVE SMOOTH",
"12 -49 OFFCURVE",
"6 -46 OFFCURVE",
"-7 -46 CURVE SMOOTH",
"-64 -46 OFFCURVE",
"-105 -85 OFFCURVE",
"-105 -136 CURVE SMOOTH",
"-105 -200 OFFCURVE",
"-51 -238 OFFCURVE",
"19 -238 CURVE SMOOTH",
"142 -238 OFFCURVE",
"199 -147 OFFCURVE",
"199 -13 CURVE SMOOTH",
"199 434 LINE",
"316 434 LINE",
"330 445 OFFCURVE",
"339 468 OFFCURVE",
"339 497 CURVE",
"199 497 LINE",
"199 640 OFFCURVE",
"234 737 OFFCURVE",
"325 737 CURVE SMOOTH",
"393 737 OFFCURVE",
"422 686 OFFCURVE",
"422 620 CURVE SMOOTH",
"422 92 LINE SMOOTH",
"422 17 OFFCURVE",
"444 -14 OFFCURVE",
"499 -14 CURVE SMOOTH",
"533 -14 OFFCURVE",
"576 10 OFFCURVE",
"611 49 CURVE",
"592 75 LINE",
"575 61 OFFCURVE",
"557 54 OFFCURVE",
"542 54 CURVE SMOOTH",
"522 54 OFFCURVE",
"512 66 OFFCURVE",
"512 88 CURVE SMOOTH",
"513 746 LINE SMOOTH",
"513 765 OFFCURVE",
"511 778 OFFCURVE",
"492 778 CURVE SMOOTH",
"480 778 OFFCURVE",
"455 768 OFFCURVE",
"431 751 CURVE",
"405 770 OFFCURVE",
"373 782 OFFCURVE",
"337 782 CURVE SMOOTH",
"201 782 OFFCURVE",
"126 668 OFFCURVE",
"112 497 CURVE"
);
}
);
width = 626;
}
);
unicode = FB02;
},
{
glyphname = ordfeminine;
layers = (
{
hints = (
{
place = "{45, 81}";
},
{
place = "{244, 75}";
},
{
horizontal = 1;
place = "{361, 55}";
},
{
horizontal = 1;
place = "{522, 40}";
},
{
horizontal = 1;
place = "{689, 42}";
}
);
layerId = UUID0;
paths = (
{
closed = 1;
nodes = (
"244 558 LINE",
"223 562 OFFCURVE",
"204 562 OFFCURVE",
"190 562 CURVE SMOOTH",
"101 562 OFFCURVE",
"45 520 OFFCURVE",
"45 452 CURVE SMOOTH",
"45 399 OFFCURVE",
"86 361 OFFCURVE",
"142 361 CURVE SMOOTH",
"186 361 OFFCURVE",
"223 381 OFFCURVE",
"245 414 CURVE",
"250 377 OFFCURVE",
"268 361 OFFCURVE",
"303 361 CURVE SMOOTH",
"329 361 OFFCURVE",
"361 380 OFFCURVE",
"388 409 CURVE",
"369 435 LINE",
"354 425 OFFCURVE",
"341 420 OFFCURVE",
"333 420 CURVE SMOOTH",
"324 420 OFFCURVE",
"319 425 OFFCURVE",
"319 437 CURVE SMOOTH",
"319 602 LINE SMOOTH",
"319 691 OFFCURVE",
"282 731 OFFCURVE",
"196 731 CURVE SMOOTH",
"124 731 OFFCURVE",
"63 688 OFFCURVE",
"63 636 CURVE SMOOTH",
"63 613 OFFCURVE",
"80 598 OFFCURVE",
"102 598 CURVE SMOOTH",
"116 598 OFFCURVE",
"130 603 OFFCURVE",
"142 613 CURVE",
"142 663 OFFCURVE",
"160 689 OFFCURVE",
"196 689 CURVE SMOOTH",
"228 689 OFFCURVE",
"244 664 OFFCURVE",
"244 615 CURVE SMOOTH"
);
},
{
closed = 1;
nodes = (
"142 416 OFFCURVE",
"126 433 OFFCURVE",
"126 462 CURVE SMOOTH",
"126 500 OFFCURVE",
"154 522 OFFCURVE",
"205 522 CURVE SMOOTH",
"222 522 OFFCURVE",
"236 521 OFFCURVE",
"244 518 CURVE",
"243 458 OFFCURVE",
"214 416 OFFCURVE",
"171 416 CURVE SMOOTH"
);
}
);
width = 398;
}
);
unicode = 00AA;
},
{
glyphname = ordmasculine;
layers = (
{
hints = (
{
place = "{40, 85}";
},
{
place = "{309, 86}";
},
{
horizontal = 1;
place = "{361, 47}";
},
{
horizontal = 1;
place = "{686, 45}";
}
);
layerId = UUID0;
paths = (
{
closed = 1;
nodes = (
"125 632 OFFCURVE",
"158 686 OFFCURVE",
"211 686 CURVE SMOOTH",
"269 686 OFFCURVE",
"309 626 OFFCURVE",
"309 540 CURVE SMOOTH",
"309 459 OFFCURVE",
"275 408 OFFCURVE",
"222 408 CURVE SMOOTH",
"166 408 OFFCURVE",
"125 463 OFFCURVE",
"125 546 CURVE SMOOTH"
);
},
{
closed = 1;
nodes = (
"40 434 OFFCURVE",
"108 361 OFFCURVE",
"217 361 CURVE SMOOTH",
"326 361 OFFCURVE",
"395 434 OFFCURVE",
"395 546 CURVE SMOOTH",
"395 659 OFFCURVE",
"326 731 OFFCURVE",
"217 731 CURVE SMOOTH",
"108 731 OFFCURVE",
"40 659 OFFCURVE",
"40 546 CURVE SMOOTH"
);
}
);
width = 435;
}
);
unicode = 00BA;
},
{
color = 4;
glyphname = "Be-cy";
layers = (
{
layerId = UUID0;
paths = (
{
closed = 1;
nodes = (
"337 52 CURVE SMOOTH",
"298 52 OFFCURVE",
"227 57 OFFCURVE",
"227 183 CURVE SMOOTH",
"227 585 LINE SMOOTH",
"227 647 OFFCURVE",
"238 662 OFFCURVE",
"290 662 CURVE SMOOTH",
"388 662 LINE SMOOTH",
"458 662 OFFCURVE",
"477 644 OFFCURVE",
"497 572 CURVE SMOOTH",
"502 549 LINE",
"537 561 LINE",
"537 738 LINE",
"520 751 LINE",
"502 738 LINE SMOOTH",
"483 723 OFFCURVE",
"446 718 OFFCURVE",
"389 718 CURVE SMOOTH",
"83 718 LINE",
"70 702 LINE",
"83 684 LINE SMOOTH",
"115 640 OFFCURVE",
"127 597 OFFCURVE",
"127 517 CURVE SMOOTH",
"127 133 LINE SMOOTH",
"127 69 OFFCURVE",
"113 55 OFFCURVE",
"63 40 CURVE",
"40 34 LINE",
"53 0 LINE",
"332 0 LINE SMOOTH",
"523 0 OFFCURVE",
"591 88 OFFCURVE",
"591 210 CURVE SMOOTH",
"591 322 OFFCURVE",
"497 419 OFFCURVE",
"345 419 CURVE SMOOTH",
"295 419 OFFCURVE",
"248 409 OFFCURVE",
"248 384 CURVE SMOOTH",
"248 372 OFFCURVE",
"252 361 OFFCURVE",
"262 361 CURVE SMOOTH",
"275 361 OFFCURVE",
"289 370 OFFCURVE",
"330 370 CURVE SMOOTH",
"425 370 OFFCURVE",
"487 301 OFFCURVE",
"487 215 CURVE SMOOTH",
"487 120 OFFCURVE",
"433 52 OFFCURVE"
);
}
);
width = 622;
}
);
leftMetricsKey = "En-cy";
unicode = 0411;
},
{
color = 5;
glyphname = "Ge-cy";
layers = (
{
anchors = (
{
name = bottomright;
position = "{99, 0}";
},
{
name = center;
position = "{169, 359}";
},
{
name = top;
position = "{287, 718}";
}
);
background = {
components = (
{
name = F;
transform = "{1, 0, 0, 1, 15, 0}";
}
);
};
guideLines = (
{
angle = 90;
position = "{99, 178}";
}
);
layerId = UUID0;
paths = (
{
closed = 1;
nodes = (
"53 718 LINE",
"40 702 LINE",
"53 684 LINE SMOOTH",
"86 640 OFFCURVE",
"99 597 OFFCURVE",
"99 517 CURVE SMOOTH",
"99 201 LINE SMOOTH",
"99 119 OFFCURVE",
"86 78 OFFCURVE",
"53 34 CURVE SMOOTH",
"40 16 LINE",
"53 0 LINE",
"273 0 LINE",
"285 34 LINE",
"261 40 LINE",
"211 55 OFFCURVE",
"197 69 OFFCURVE",
"197 133 CURVE SMOOTH",
"197 585 LINE SMOOTH",
"197 647 OFFCURVE",
"209 662 OFFCURVE",
"261 662 CURVE SMOOTH",
"347 662 LINE SMOOTH",
"418 662 OFFCURVE",
"440 645 OFFCURVE",
"456 572 CURVE SMOOTH",
"461 549 LINE",
"496 561 LINE",
"496 738 LINE",
"480 751 LINE",
"461 738 LINE SMOOTH",
"441 724 OFFCURVE",
"406 718 OFFCURVE",
"348 718 CURVE SMOOTH"
);
}
);
width = 509;
}
);
leftMetricsKey = "En-cy";
unicode = 0413;
},
{
color = 4;
glyphname = "Gheupturn-cy";
layers = (
{
background = {
paths = (
{
closed = 1;
nodes = (
"67 718 LINE",
"54 702 LINE",
"67 684 LINE SMOOTH",
"100 640 OFFCURVE",
"113 597 OFFCURVE",
"113 517 CURVE SMOOTH",
"113 201 LINE SMOOTH",
"113 119 OFFCURVE",
"100 78 OFFCURVE",
"67 34 CURVE SMOOTH",
"54 16 LINE",
"67 0 LINE",
"287 0 LINE",
"299 34 LINE",
"275 40 LINE",
"225 55 OFFCURVE",
"211 69 OFFCURVE",
"211 133 CURVE SMOOTH",
"211 585 LINE SMOOTH",
"211 647 OFFCURVE",
"223 662 OFFCURVE",
"275 662 CURVE SMOOTH",
"361 662 LINE SMOOTH",
"432 662 OFFCURVE",
"454 645 OFFCURVE",
"470 572 CURVE SMOOTH",
"475 549 LINE",
"510 561 LINE",
"510 738 LINE",
"494 751 LINE",
"475 738 LINE SMOOTH",
"455 724 OFFCURVE",
"420 718 OFFCURVE",
"362 718 CURVE SMOOTH"
);
}
);
};
layerId = UUID0;
paths = (
{
closed = 1;
nodes = (
"53 718 LINE",
"40 702 LINE",
"53 684 LINE SMOOTH",
"87 639 OFFCURVE",
"100 597 OFFCURVE",
"100 517 CURVE SMOOTH",
"100 201 LINE SMOOTH",
"100 118 OFFCURVE",
"87 78 OFFCURVE",
"53 34 CURVE SMOOTH",
"40 16 LINE",
"53 0 LINE",
"273 0 LINE",
"285 34 LINE",
"261 40 LINE SMOOTH",
"212 53 OFFCURVE",
"198 71 OFFCURVE",
"198 133 CURVE SMOOTH",
"198 585 LINE SMOOTH",
"198 647 OFFCURVE",
"210 662 OFFCURVE",
"261 662 CURVE SMOOTH",
"363 662 LINE SMOOTH",
"421 662 OFFCURVE",
"455 655 OFFCURVE",
"476 640 CURVE SMOOTH",
"494 627 LINE",
"510 640 LINE",
"510 884 LINE",
"476 896 LINE",
"470 873 LINE SMOOTH",
"443 768 OFFCURVE",
"413 718 OFFCURVE",
"322 718 CURVE SMOOTH"
);
}
);
width = 523;
}
);
leftMetricsKey = "En-cy";
rightMetricsKey = "Ge-cy";
unicode = 0490;
},
{
color = 5;
glyphname = "De-cy";
layers = (
{
background = {
paths = (
{
closed = 1;
nodes = (
"626 0 LINE",
"636 30 LINE",
"617 35 LINE SMOOTH",
"572 47 OFFCURVE",
"559 62 OFFCURVE",
"559 117 CURVE SMOOTH",
"559 480 LINE SMOOTH",
"559 554 OFFCURVE",
"569 595 OFFCURVE",
"601 634 CURVE SMOOTH",
"615 651 LINE",
"601 666 LINE",
"399 666 LINE",
"388 634 LINE",
"408 629 LINE SMOOTH",
"455 617 OFFCURVE",
"468 600 OFFCURVE",
"468 543 CURVE SMOOTH",
"468 366 LINE",
"165 366 LINE",
"165 480 LINE SMOOTH",
"165 554 OFFCURVE",
"178 593 OFFCURVE",
"207 634 CURVE SMOOTH",
"219 651 LINE",
"207 666 LINE",
"3 666 LINE",
"-8 634 LINE",
"14 629 LINE",
"60 616 OFFCURVE",
"73 600 OFFCURVE",
"73 543 CURVE SMOOTH",
"73 123 LINE SMOOTH",
"73 64 OFFCURVE",
"60 51 OFFCURVE",
"14 37 CURVE",
"-8 32 LINE",
"3 0 LINE",
"231 0 LINE",
"240 30 LINE",
"221 35 LINE SMOOTH",
"177 47 OFFCURVE",
"165 62 OFFCURVE",
"165 117 CURVE SMOOTH",
"165 310 LINE",
"468 310 LINE",
"468 123 LINE SMOOTH",
"468 64 OFFCURVE",
"456 49 OFFCURVE",
"408 37 CURVE SMOOTH",
"388 32 LINE",
"399 0 LINE"
);
}
);
};
layerId = UUID0;
paths = (
{
closed = 1;
nodes = (
"576 517 LINE SMOOTH",
"576 597 OFFCURVE",
"589 640 OFFCURVE",
"623 684 CURVE",
"634 702 LINE",
"623 718 LINE",
"135 718 LINE",
"123 684 LINE",
"145 678 LINE SMOOTH",
"184 668 OFFCURVE",
"214 650 OFFCURVE",
"211 595 CURVE SMOOTH",
"189 268 OFFCURVE",
"172 66 OFFCURVE",
"1 43 CURVE",
"1 -181 LINE",
"35 -193 LINE",
"40 -169 LINE SMOOTH",
"70 -63 OFFCURVE",
"100 0 OFFCURVE",
"190 0 CURVE SMOOTH",
"496 0 LINE SMOOTH",
"588 0 OFFCURVE",
"617 -63 OFFCURVE",
"645 -169 CURVE SMOOTH",
"651 -193 LINE",
"685 -181 LINE",
"685 42 LINE",
"631 42 OFFCURVE",
"576 61 OFFCURVE",
"576 105 CURVE SMOOTH"
);
},
{
closed = 1;
nodes = (
"139 57 LINE",
"228 112 OFFCURVE",
"267 296 OFFCURVE",
"288 622 CURVE SMOOTH",
"291 655 OFFCURVE",
"315 662 OFFCURVE",
"352 662 CURVE SMOOTH",
"413 662 LINE SMOOTH",
"466 662 OFFCURVE",
"478 647 OFFCURVE",
"478 585 CURVE SMOOTH",
"478 133 LINE SMOOTH",
"478 69 OFFCURVE",
"466 57 OFFCURVE",
"413 57 CURVE SMOOTH"
);
}
);
width = 677;
},
{
associatedMasterId = UUID0;
layerId = "7DFB1CC7-6762-4082-AEE1-EF2CE0DE867E";
name = "Sep 24 16, 11:01";
paths = (
{
closed = 1;
nodes = (
"534 480 LINE SMOOTH",
"534 554 OFFCURVE",
"546 594 OFFCURVE",
"577 634 CURVE",
"588 651 LINE",
"577 666 LINE",
"95 666 LINE",
"84 634 LINE",
"104 629 LINE SMOOTH",
"140 620 OFFCURVE",
"165 603 OFFCURVE",
"165 552 CURVE SMOOTH",
"165 249 OFFCURVE",
"152 61 OFFCURVE",
"20 40 CURVE",
"20 -168 LINE",
"52 -179 LINE",
"57 -157 LINE SMOOTH",
"84 -58 OFFCURVE",
"112 0 OFFCURVE",
"196 0 CURVE SMOOTH",
"460 0 LINE SMOOTH",
"545 0 OFFCURVE",
"572 -58 OFFCURVE",
"598 -157 CURVE SMOOTH",
"603 -179 LINE",
"635 -168 LINE",
"635 39 LINE",
"585 39 OFFCURVE",
"534 57 OFFCURVE",
"534 97 CURVE SMOOTH"
);
},
{
closed = 1;
nodes = (
"148 53 LINE",
"210 104 OFFCURVE",
"237 275 OFFCURVE",
"237 577 CURVE SMOOTH",
"237 608 OFFCURVE",
"262 614 OFFCURVE",
"296 614 CURVE SMOOTH",
"383 614 LINE SMOOTH",
"432 614 OFFCURVE",
"443 600 OFFCURVE",
"443 543 CURVE SMOOTH",
"443 123 LINE SMOOTH",
"443 64 OFFCURVE",
"432 53 OFFCURVE",
"383 53 CURVE SMOOTH"
);
}
);
width = 652;
}
);
unicode = 0414;
},
{
color = 5;
glyphname = "Zhe-cy";
layers = (
{
anchors = (
{
name = bottomright;
position = "{778, 0}";
},
{
name = top;
position = "{508, 718}";
}
);
layerId = UUID0;
paths = (
{
closed = 1;
nodes = (
"607 0 LINE",
"618 32 LINE",
"597 38 LINE SMOOTH",
"566 52 OFFCURVE",
"558 67 OFFCURVE",
"558 126 CURVE SMOOTH",
"558 517 LINE SMOOTH",
"558 597 OFFCURVE",
"567 640 OFFCURVE",
"593 684 CURVE",
"605 702 LINE",
"593 718 LINE",
"415 718 LINE",
"405 684 LINE",
"426 678 LINE SMOOTH",
"452 664 OFFCURVE",
"459 647 OFFCURVE",
"459 585 CURVE SMOOTH",
"459 133 LINE SMOOTH",
"459 69 OFFCURVE",
"449 55 OFFCURVE",
"415 40 CURVE SMOOTH",
"394 34 LINE",
"405 0 LINE"
);
},
{
closed = 1;
nodes = (
"817 257 LINE SMOOTH",
"781 329 OFFCURVE",
"734 362 OFFCURVE",
"656 369 CURVE",
"656 335 LINE",
"882 624 LINE SMOOTH",
"908 657 OFFCURVE",
"931 672 OFFCURVE",
"960 678 CURVE SMOOTH",
"983 684 LINE",
"972 718 LINE",
"800 718 LINE",
"782 702 LINE",
"793 686 LINE",
"813 659 OFFCURVE",
"811 618 OFFCURVE",
"788 589 CURVE SMOOTH",
"624 381 LINE",
"602 381 LINE SMOOTH",
"583 381 OFFCURVE",
"581 367 OFFCURVE",
"581 357 CURVE SMOOTH",
"581 353 OFFCURVE",
"582 347 OFFCURVE",
"586 346 CURVE SMOOTH",
"631 331 OFFCURVE",
"664 310 OFFCURVE",
"686 266 CURVE SMOOTH",
"776 84 LINE SMOOTH",
"808 20 OFFCURVE",
"847 -14 OFFCURVE",
"910 -14 CURVE SMOOTH",
"946 -14 OFFCURVE",
"978 -3 OFFCURVE",
"1006 26 CURVE",
"990 55 LINE",
"976 44 OFFCURVE",
"964 41 OFFCURVE",
"951 41 CURVE SMOOTH",
"933 41 OFFCURVE",
"922 52 OFFCURVE",
"912 71 CURVE SMOOTH"
);
},
{
closed = 1;
nodes = (
"94 52 OFFCURVE",
"83 41 OFFCURVE",
"65 41 CURVE SMOOTH",
"52 41 OFFCURVE",
"40 44 OFFCURVE",
"26 55 CURVE",
"10 26 LINE",
"38 -3 OFFCURVE",
"70 -14 OFFCURVE",
"106 -14 CURVE SMOOTH",
"169 -14 OFFCURVE",
"208 20 OFFCURVE",
"240 84 CURVE SMOOTH",
"330 266 LINE SMOOTH",
"352 310 OFFCURVE",
"385 331 OFFCURVE",
"430 346 CURVE SMOOTH",
"434 347 OFFCURVE",
"435 353 OFFCURVE",
"435 357 CURVE SMOOTH",
"435 367 OFFCURVE",
"433 381 OFFCURVE",
"414 381 CURVE SMOOTH",
"392 381 LINE",
"228 589 LINE SMOOTH",
"205 618 OFFCURVE",
"203 659 OFFCURVE",
"223 686 CURVE",
"234 702 LINE",
"216 718 LINE",
"44 718 LINE",
"33 684 LINE",
"56 678 LINE SMOOTH",
"85 672 OFFCURVE",
"108 657 OFFCURVE",
"134 624 CURVE SMOOTH",
"360 335 LINE",
"360 369 LINE",
"282 362 OFFCURVE",
"235 329 OFFCURVE",
"199 257 CURVE SMOOTH",
"104 71 LINE SMOOTH"
);
}
);
width = 1016;
}
);
leftMetricsKey = "=|Ka-cy";
rightMetricsKey = "Ka-cy";
unicode = 0416;
},
{
color = 5;
glyphname = "Ze-cy";
layers = (
{
anchors = (
{
name = bottom;
position = "{271, 0}";
},
{
name = top;
position = "{271, 718}";
}
);
layerId = UUID0;
paths = (
{
closed = 1;
nodes = (
"73 742 LINE",
"57 730 LINE",
"57 531 LINE",
"90 520 LINE",
"95 542 LINE SMOOTH",
"121 651 OFFCURVE",
"171 676 OFFCURVE",
"256 676 CURVE SMOOTH",
"327 676 OFFCURVE",
"373 630 OFFCURVE",
"373 551 CURVE SMOOTH",
"373 478 OFFCURVE",
"350 426 OFFCURVE",
"238 404 CURVE SMOOTH",
"197 396 OFFCURVE",
"179 390 OFFCURVE",
"179 370 CURVE SMOOTH",
"179 357 OFFCURVE",
"185 350 OFFCURVE",
"191 350 CURVE SMOOTH",
"203 350 OFFCURVE",
"218 356 OFFCURVE",
"251 356 CURVE SMOOTH",
"363 356 OFFCURVE",
"408 278 OFFCURVE",
"408 191 CURVE SMOOTH",
"408 98 OFFCURVE",
"350 43 OFFCURVE",
"253 43 CURVE SMOOTH",
"163 43 OFFCURVE",
"122 85 OFFCURVE",
"122 156 CURVE SMOOTH",
"122 209 OFFCURVE",
"145 232 OFFCURVE",
"145 241 CURVE SMOOTH",
"145 253 OFFCURVE",
"138 253 OFFCURVE",
"124 253 CURVE SMOOTH",
"67 253 OFFCURVE",
"23 211 OFFCURVE",
"23 148 CURVE SMOOTH",
"23 40 OFFCURVE",
"136 -14 OFFCURVE",
"256 -14 CURVE SMOOTH",
"413 -14 OFFCURVE",
"517 67 OFFCURVE",
"517 184 CURVE SMOOTH",
"517 290 OFFCURVE",
"471 359 OFFCURVE",
"339 387 CURVE",
"431 419 OFFCURVE",
"482 474 OFFCURVE",
"482 556 CURVE SMOOTH",
"482 675 OFFCURVE",
"381 732 OFFCURVE",
"269 732 CURVE SMOOTH",
"198 732 OFFCURVE",
"161 718 OFFCURVE",
"128 718 CURVE SMOOTH",
"114 718 OFFCURVE",
"102 720 OFFCURVE",
"90 730 CURVE"
);
}
);
width = 541;
}
);
unicode = 0417;
},
{
color = 5;
glyphname = "Ii-cy";
layers = (
{
anchors = (
{
name = bottomright;
position = "{533, 0}";
},
{
name = top;
position = "{364, 718}";
}
);
background = {
paths = (
{
closed = 1;
nodes = (
"210 480 LINE SMOOTH",
"210 554 OFFCURVE",
"221 594 OFFCURVE",
"252 634 CURVE SMOOTH",
"264 651 LINE",
"252 666 LINE",
"48 666 LINE",
"37 634 LINE",
"59 629 LINE",
"105 616 OFFCURVE",
"118 600 OFFCURVE",
"118 543 CURVE SMOOTH",
"118 123 LINE SMOOTH",
"118 64 OFFCURVE",
"105 51 OFFCURVE",
"59 37 CURVE",
"37 32 LINE",
"48 0 LINE",
"276 0 LINE",
"285 30 LINE",
"266 35 LINE SMOOTH",
"222 48 OFFCURVE",
"210 62 OFFCURVE",
"210 117 CURVE SMOOTH"
);
},
{
closed = 1;
nodes = (
"523 123 LINE SMOOTH",
"523 64 OFFCURVE",
"511 49 OFFCURVE",
"463 37 CURVE SMOOTH",
"443 32 LINE",
"454 0 LINE",
"681 0 LINE",
"691 30 LINE",
"672 35 LINE SMOOTH",
"627 47 OFFCURVE",
"614 62 OFFCURVE",
"614 117 CURVE SMOOTH",
"614 480 LINE SMOOTH",
"614 554 OFFCURVE",
"624 595 OFFCURVE",
"656 634 CURVE SMOOTH",
"670 651 LINE",
"656 666 LINE",
"454 666 LINE",
"443 634 LINE",
"463 629 LINE SMOOTH",
"510 617 OFFCURVE",
"523 600 OFFCURVE",
"523 543 CURVE SMOOTH"
);
},
{
closed = 1;
nodes = (
"527 556 LINE",
"196 196 LINE",
"196 120 LINE",
"527 480 LINE"
);
}
);
};
guideLines = (
{
angle = 90;
position = "{533, 154}";
}
);
layerId = UUID0;
paths = (
{
closed = 1;
nodes = (
"198 517 LINE SMOOTH",
"198 597 OFFCURVE",
"210 640 OFFCURVE",
"243 684 CURVE SMOOTH",
"256 702 LINE",
"243 718 LINE",
"23 718 LINE",
"11 684 LINE",
"35 678 LINE",
"85 664 OFFCURVE",
"99 647 OFFCURVE",
"99 585 CURVE SMOOTH",
"99 133 LINE SMOOTH",
"99 69 OFFCURVE",
"85 55 OFFCURVE",
"35 40 CURVE",
"11 34 LINE",
"23 0 LINE",
"269 0 LINE",
"279 32 LINE",
"258 38 LINE SMOOTH",
"211 52 OFFCURVE",
"198 67 OFFCURVE",
"198 126 CURVE SMOOTH"
);
},
{
closed = 1;
nodes = (
"535 133 LINE SMOOTH",
"535 69 OFFCURVE",
"522 53 OFFCURVE",
"471 40 CURVE SMOOTH",
"449 34 LINE",
"461 0 LINE",
"706 0 LINE",
"716 32 LINE",
"696 38 LINE SMOOTH",
"647 51 OFFCURVE",
"633 67 OFFCURVE",
"633 126 CURVE SMOOTH",
"633 517 LINE SMOOTH",
"633 597 OFFCURVE",
"644 641 OFFCURVE",
"679 684 CURVE SMOOTH",
"694 702 LINE",
"679 718 LINE",
"461 718 LINE",
"449 684 LINE",
"471 678 LINE SMOOTH",
"521 665 OFFCURVE",
"535 647 OFFCURVE",
"535 585 CURVE SMOOTH"
);
},
{
closed = 1;
nodes = (
"540 599 LINE",
"183 211 LINE",
"183 129 LINE",
"540 517 LINE"
);
}
);
width = 731;
}
);
unicode = 0418;
},
{
color = 5;
glyphname = "Ka-cy";
layers = (
{
anchors = (
{
name = bottomright;
position = "{536, 0}";
},
{
name = center;
position = "{234, 353}";
},
{
name = top;
position = "{342, 718}";
}
);
layerId = UUID0;
paths = (
{
closed = 1;
nodes = (
"273 0 LINE",
"283 32 LINE",
"262 38 LINE SMOOTH",
"215 52 OFFCURVE",
"202 67 OFFCURVE",
"202 126 CURVE SMOOTH",
"202 517 LINE SMOOTH",
"202 597 OFFCURVE",
"214 640 OFFCURVE",
"247 684 CURVE SMOOTH",
"260 702 LINE",
"247 718 LINE",
"27 718 LINE",
"15 684 LINE",
"39 678 LINE",
"89 664 OFFCURVE",
"103 647 OFFCURVE",
"103 585 CURVE SMOOTH",
"103 133 LINE SMOOTH",
"103 69 OFFCURVE",
"89 55 OFFCURVE",
"39 40 CURVE",
"15 34 LINE",
"27 0 LINE"
);
},
{
closed = 1;
nodes = (
"462 257 LINE SMOOTH",
"425 329 OFFCURVE",
"379 362 OFFCURVE",
"300 369 CURVE",
"300 335 LINE",
"526 624 LINE SMOOTH",
"552 657 OFFCURVE",
"575 672 OFFCURVE",
"604 678 CURVE SMOOTH",
"628 684 LINE",
"616 718 LINE",
"444 718 LINE",
"426 702 LINE",
"437 686 LINE",
"457 659 OFFCURVE",
"455 617 OFFCURVE",
"432 589 CURVE SMOOTH",
"269 381 LINE",
"246 381 LINE SMOOTH",
"228 381 OFFCURVE",
"225 367 OFFCURVE",
"225 357 CURVE SMOOTH",
"225 353 OFFCURVE",
"227 347 OFFCURVE",
"230 346 CURVE SMOOTH",
"275 331 OFFCURVE",
"308 310 OFFCURVE",
"330 266 CURVE SMOOTH",
"421 84 LINE SMOOTH",
"452 21 OFFCURVE",
"491 -14 OFFCURVE",
"554 -14 CURVE SMOOTH",
"590 -14 OFFCURVE",
"622 -3 OFFCURVE",
"650 26 CURVE",
"634 55 LINE",
"620 44 OFFCURVE",
"608 41 OFFCURVE",
"595 41 CURVE SMOOTH",
"577 41 OFFCURVE",
"566 52 OFFCURVE",
"556 71 CURVE SMOOTH"
);
}
);
width = 660;
}
);
unicode = 041A;
},
{
color = 5;
glyphname = "El-cy";
layers = (
{
background = {
components = (
{
name = "De-cy";
transform = "{1, 0, 0, 1, 29, 0}";
}
);
};
layerId = UUID0;
paths = (
{
closed = 1;
nodes = (
"633 702 LINE",
"621 718 LINE",
"172 718 LINE",
"159 684 LINE",
"183 679 LINE SMOOTH",
"231 670 OFFCURVE",
"259 643 OFFCURVE",
"254 584 CURVE SMOOTH",
"219 207 OFFCURVE",
"180 65 OFFCURVE",
"103 65 CURVE SMOOTH",
"80 65 OFFCURVE",
"69 89 OFFCURVE",
"64 112 CURVE SMOOTH",
"58 137 OFFCURVE",
"49 148 OFFCURVE",
"32 148 CURVE SMOOTH",
"7 148 OFFCURVE",
"-16 126 OFFCURVE",
"-16 86 CURVE SMOOTH",
"-16 19 OFFCURVE",
"33 -14 OFFCURVE",
"88 -14 CURVE SMOOTH",
"203 -14 OFFCURVE",
"278 100 OFFCURVE",
"321 622 CURVE SMOOTH",
"324 655 OFFCURVE",
"347 662 OFFCURVE",
"383 662 CURVE SMOOTH",
"412 662 LINE SMOOTH",
"464 662 OFFCURVE",
"476 647 OFFCURVE",
"476 585 CURVE SMOOTH",
"476 133 LINE SMOOTH",
"476 69 OFFCURVE",
"462 55 OFFCURVE",
"412 40 CURVE",
"389 34 LINE",
"401 0 LINE",
"646 0 LINE",
"656 32 LINE",
"636 38 LINE SMOOTH",
"587 52 OFFCURVE",
"575 67 OFFCURVE",
"575 126 CURVE SMOOTH",
"575 517 LINE SMOOTH",
"575 597 OFFCURVE",
"587 640 OFFCURVE",
"621 684 CURVE SMOOTH"
);
}
);
width = 674;
},
{
associatedMasterId = UUID0;
layerId = "B5B2F7BA-21FC-4108-874A-8B3286CE163F";
name = "Sep 24 16, 11:05";
paths = (
{
closed = 1;
nodes = (
"583 651 LINE",
"571 666 LINE",
"122 666 LINE",
"110 634 LINE",
"132 629 LINE SMOOTH",
"168 620 OFFCURVE",
"173 614 OFFCURVE",
"173 552 CURVE SMOOTH",
"173 299 OFFCURVE",
"159 70 OFFCURVE",
"91 70 CURVE SMOOTH",
"67 70 OFFCURVE",
"56 95 OFFCURVE",
"51 119 CURVE SMOOTH",
"47 140 OFFCURVE",
"44 162 OFFCURVE",
"29 162 CURVE SMOOTH",
"0 162 OFFCURVE",
"-19 121 OFFCURVE",
"-19 80 CURVE SMOOTH",
"-19 18 OFFCURVE",
"26 -13 OFFCURVE",
"77 -13 CURVE SMOOTH",
"144 -13 OFFCURVE",
"243 15 OFFCURVE",
"243 577 CURVE SMOOTH",
"243 608 OFFCURVE",
"267 614 OFFCURVE",
"301 614 CURVE SMOOTH",
"378 614 LINE SMOOTH",
"426 614 OFFCURVE",
"437 600 OFFCURVE",
"437 543 CURVE SMOOTH",
"437 123 LINE SMOOTH",
"437 64 OFFCURVE",
"424 51 OFFCURVE",
"378 37 CURVE",
"356 32 LINE",
"367 0 LINE",
"595 0 LINE",
"604 30 LINE",
"585 35 LINE SMOOTH",
"540 48 OFFCURVE",
"529 62 OFFCURVE",
"529 117 CURVE SMOOTH",
"529 480 LINE SMOOTH",
"529 554 OFFCURVE",
"540 594 OFFCURVE",
"571 634 CURVE SMOOTH"
);
}
);
width = 645;
}
);
unicode = 041B;
},
{
color = 4;
glyphname = "Pe-cy";
layers = (
{
anchors = (
{
name = bottomright;
position = "{473, 0}";
}
);
guideLines = (
{
angle = 90;
position = "{473, 172}";
}
);
layerId = UUID0;
paths = (
{
closed = 1;
nodes = (
"408 662 LINE SMOOTH",
"461 662 OFFCURVE",
"473 647 OFFCURVE",
"473 585 CURVE SMOOTH",
"473 133 LINE SMOOTH",
"473 69 OFFCURVE",
"459 55 OFFCURVE",
"408 40 CURVE",
"386 34 LINE",
"399 0 LINE",
"643 0 LINE",
"654 32 LINE",
"632 38 LINE SMOOTH",
"584 52 OFFCURVE",
"571 67 OFFCURVE",
"571 126 CURVE SMOOTH",
"571 517 LINE SMOOTH",
"571 597 OFFCURVE",
"583 640 OFFCURVE",
"617 684 CURVE",
"630 702 LINE",
"617 718 LINE",
"31 718 LINE",
"18 702 LINE",
"31 684 LINE SMOOTH",
"64 640 OFFCURVE",
"77 597 OFFCURVE",
"77 517 CURVE SMOOTH",
"77 201 LINE SMOOTH",
"77 119 OFFCURVE",
"64 78 OFFCURVE",
"31 34 CURVE SMOOTH",
"18 16 LINE",
"31 0 LINE",
"251 0 LINE",
"263 34 LINE",
"239 40 LINE",
"189 55 OFFCURVE",
"175 69 OFFCURVE",
"175 133 CURVE SMOOTH",
"175 585 LINE SMOOTH",
"175 647 OFFCURVE",
"187 662 OFFCURVE",
"239 662 CURVE SMOOTH"
);
}
);
width = 672;
}
);
unicode = 041F;
},
{
color = 5;
glyphname = "U-cy";
layers = (
{
anchors = (
{
name = top;
position = "{316, 718}";
}
);
background = {
components = (
{
name = H;
transform = "{1, 0, 0, 1, -55, 0}";
}
);
};
layerId = UUID0;
paths = (
{
closed = 1;
nodes = (
"388 273 LINE",
"195 571 LINE SMOOTH",
"165 619 OFFCURVE",
"156 665 OFFCURVE",
"211 678 CURVE SMOOTH",
"233 684 LINE",
"221 718 LINE",
"-31 718 LINE",
"-35 702 LINE",
"6 684 OFFCURVE",
"35 649 OFFCURVE",
"82 576 CURVE SMOOTH",
"332 183 LINE"
);
},
{
closed = 1;
nodes = (
"301 171 LINE SMOOTH",
"261 83 OFFCURVE",
"236 47 OFFCURVE",
"197 47 CURVE SMOOTH",
"173 47 OFFCURVE",
"159 66 OFFCURVE",
"159 95 CURVE SMOOTH",
"159 126 OFFCURVE",
"173 148 OFFCURVE",
"173 157 CURVE SMOOTH",
"173 165 OFFCURVE",
"167 170 OFFCURVE",
"152 170 CURVE SMOOTH",
"103 170 OFFCURVE",
"67 125 OFFCURVE",
"67 78 CURVE SMOOTH",
"67 23 OFFCURVE",
"111 -14 OFFCURVE",
"181 -14 CURVE SMOOTH",
"253 -14 OFFCURVE",
"310 31 OFFCURVE",
"370 168 CURVE SMOOTH",
"553 584 LINE SMOOTH",
"569 621 OFFCURVE",
"584 651 OFFCURVE",
"608 684 CURVE SMOOTH",
"622 702 LINE",
"611 718 LINE",
"420 718 LINE",
"408 684 LINE",
"430 678 LINE SMOOTH",
"483 666 OFFCURVE",
"496 606 OFFCURVE",
"461 527 CURVE SMOOTH"
);
}
);
width = 599;
},
{
anchors = (
{
name = top;
position = "{310, 666}";
}
);
associatedMasterId = UUID0;
layerId = "0E7269A7-B3FD-4590-AFA9-C3E6D284B01F";
name = "Sep 24 16, 11:07";
paths = (
{
closed = 1;
nodes = (
"589 651 LINE",
"578 666 LINE",
"401 666 LINE",
"390 634 LINE",
"411 629 LINE SMOOTH",
"439 623 OFFCURVE",
"457 602 OFFCURVE",
"457 570 CURVE SMOOTH",
"457 546 OFFCURVE",
"455 526 OFFCURVE",
"435 481 CURVE SMOOTH",
"334 259 LINE",
"197 530 LINE SMOOTH",
"183 559 OFFCURVE",
"174 576 OFFCURVE",
"174 592 CURVE SMOOTH",
"174 611 OFFCURVE",
"185 623 OFFCURVE",
"211 629 CURVE SMOOTH",
"232 634 LINE",
"221 666 LINE",
"12 666 LINE",
"0 651 LINE",
"40 621 OFFCURVE",
"64 591 OFFCURVE",
"93 534 CURVE SMOOTH",
"284 149 LINE",
"253 69 OFFCURVE",
"209 46 OFFCURVE",
"173 46 CURVE SMOOTH",
"150 46 OFFCURVE",
"134 61 OFFCURVE",
"134 88 CURVE SMOOTH",
"134 123 OFFCURVE",
"153 144 OFFCURVE",
"153 153 CURVE SMOOTH",
"153 160 OFFCURVE",
"148 165 OFFCURVE",
"134 165 CURVE SMOOTH",
"84 165 OFFCURVE",
"49 128 OFFCURVE",
"49 78 CURVE SMOOTH",
"49 17 OFFCURVE",
"90 -13 OFFCURVE",
"155 -13 CURVE SMOOTH",
"221 -13 OFFCURVE",
"285 13 OFFCURVE",
"350 156 CURVE SMOOTH",
"525 542 LINE SMOOTH",
"540 576 OFFCURVE",
"552 605 OFFCURVE",
"576 634 CURVE SMOOTH"
);
}
);
width = 579;
}
);
unicode = 0423;
},
{
color = 5;
glyphname = "Ef-cy";
layers = (
{
layerId = UUID0;
paths = (
{
closed = 1;
nodes = (
"107 387 CURVE SMOOTH",
"107 534 OFFCURVE",
"201 604 OFFCURVE",
"328 610 CURVE SMOOTH",
"352 611 OFFCURVE",
"358 604 OFFCURVE",
"358 585 CURVE SMOOTH",
"358 93 LINE SMOOTH",
"358 31 OFFCURVE",
"344 15 OFFCURVE",
"295 0 CURVE",
"271 -5 LINE",
"283 -40 LINE",
"528 -40 LINE",
"540 -8 LINE",
"518 -2 LINE SMOOTH",
"470 12 OFFCURVE",
"457 28 OFFCURVE",
"457 86 CURVE SMOOTH",
"457 585 LINE SMOOTH",
"457 603 OFFCURVE",
"463 610 OFFCURVE",
"487 610 CURVE SMOOTH",
"614 610 OFFCURVE",
"709 535 OFFCURVE",
"709 391 CURVE SMOOTH",
"709 266 OFFCURVE",
"641 183 OFFCURVE",
"496 164 CURVE SMOOTH",
"484 162 OFFCURVE",
"481 153 OFFCURVE",
"481 147 CURVE SMOOTH",
"481 125 OFFCURVE",
"498 116 OFFCURVE",
"520 116 CURVE SMOOTH",
"645 116 OFFCURVE",
"822 193 OFFCURVE",
"822 383 CURVE SMOOTH",
"822 555 OFFCURVE",
"688 659 OFFCURVE",
"463 664 CURVE",
"470 719 OFFCURVE",
"484 745 OFFCURVE",
"503 778 CURVE SMOOTH",
"515 797 LINE",
"503 813 LINE",
"313 813 LINE",
"302 778 LINE",
"324 772 LINE SMOOTH",
"354 763 OFFCURVE",
"357 721 OFFCURVE",
"358 665 CURVE",
"142 662 OFFCURVE",
"-7 558 OFFCURVE",
"-7 381 CURVE SMOOTH",
"-7 193 OFFCURVE",
"170 116 OFFCURVE",
"295 116 CURVE SMOOTH",
"318 116 OFFCURVE",
"334 125 OFFCURVE",
"334 147 CURVE SMOOTH",
"334 153 OFFCURVE",
"333 162 OFFCURVE",
"320 164 CURVE SMOOTH",
"174 183 OFFCURVE",
"107 267 OFFCURVE"
);
}
);
width = 814;
}
);
unicode = 0424;
},
{
color = 4;
glyphname = "Che-cy";
layers = (
{
anchors = (
{
name = bottomright;
position = "{426, 0}";
},
{
name = center;
position = "{290, 309}";
},
{
name = top;
position = "{279, 718}";
}
);
guideLines = (
{
angle = 90;
position = "{426, 142}";
}
);
layerId = UUID0;
paths = (
{
closed = 1;
nodes = (
"351 0 LINE",
"596 0 LINE",
"608 32 LINE",
"586 38 LINE SMOOTH",
"538 52 OFFCURVE",
"526 67 OFFCURVE",
"526 126 CURVE SMOOTH",
"526 517 LINE SMOOTH",
"526 597 OFFCURVE",
"537 640 OFFCURVE",
"570 684 CURVE SMOOTH",
"583 702 LINE",
"570 718 LINE",
"351 718 LINE",
"338 684 LINE",
"363 678 LINE",
"413 664 OFFCURVE",
"426 647 OFFCURVE",
"426 585 CURVE SMOOTH",
"426 402 LINE",
"391 369 OFFCURVE",
"351 334 OFFCURVE",
"271 334 CURVE SMOOTH",
"194 334 OFFCURVE",
"154 367 OFFCURVE",
"154 445 CURVE SMOOTH",
"154 733 LINE",
"24 719 LINE",
"10 702 LINE",
"24 685 LINE SMOOTH",
"48 653 OFFCURVE",
"55 625 OFFCURVE",
"55 543 CURVE SMOOTH",
"55 419 LINE SMOOTH",
"55 313 OFFCURVE",
"119 261 OFFCURVE",
"230 261 CURVE SMOOTH",
"319 261 OFFCURVE",
"372 293 OFFCURVE",
"426 333 CURVE",
"426 133 LINE SMOOTH",
"426 69 OFFCURVE",
"413 55 OFFCURVE",
"363 40 CURVE",
"338 34 LINE"
);
}
);
width = 628;
}
);
unicode = 0427;
},
{
color = 4;
glyphname = "Tse-cy";
layers = (
{
layerId = UUID0;
paths = (
{
closed = 1;
nodes = (
"13 34 LINE",
"25 0 LINE",
"515 0 LINE SMOOTH",
"606 0 OFFCURVE",
"628 -55 OFFCURVE",
"663 -169 CURVE SMOOTH",
"669 -193 LINE",
"704 -181 LINE",
"704 42 LINE",
"650 42 OFFCURVE",
"596 61 OFFCURVE",
"596 105 CURVE SMOOTH",
"596 517 LINE SMOOTH",
"596 597 OFFCURVE",
"607 640 OFFCURVE",
"640 684 CURVE SMOOTH",
"653 702 LINE",
"640 718 LINE",
"420 718 LINE",
"408 684 LINE",
"432 678 LINE",
"482 664 OFFCURVE",
"496 647 OFFCURVE",
"496 585 CURVE SMOOTH",
"496 133 LINE SMOOTH",
"496 69 OFFCURVE",
"484 57 OFFCURVE",
"432 57 CURVE SMOOTH",
"263 57 LINE SMOOTH",
"211 57 OFFCURVE",
"199 69 OFFCURVE",
"199 133 CURVE SMOOTH",
"199 517 LINE SMOOTH",
"199 597 OFFCURVE",
"211 640 OFFCURVE",
"245 684 CURVE SMOOTH",
"258 702 LINE",
"245 718 LINE",
"25 718 LINE",
"13 684 LINE",
"37 678 LINE",
"86 664 OFFCURVE",
"100 647 OFFCURVE",
"100 585 CURVE SMOOTH",
"100 133 LINE SMOOTH",
"100 69 OFFCURVE",
"86 55 OFFCURVE",
"37 40 CURVE"
);
}
);
width = 714;
}
);
unicode = 0426;
},
{
color = 4;
glyphname = "Sha-cy";
layers = (
{
layerId = UUID0;
paths = (
{
closed = 1;
nodes = (
"1046 0 LINE",
"1057 32 LINE",
"1036 38 LINE SMOOTH",
"988 51 OFFCURVE",
"976 67 OFFCURVE",
"976 126 CURVE SMOOTH",
"976 517 LINE SMOOTH",
"976 597 OFFCURVE",
"989 639 OFFCURVE",
"1020 684 CURVE SMOOTH",
"1033 702 LINE",
"1020 718 LINE",
"800 718 LINE",
"789 684 LINE",
"813 678 LINE",
"863 664 OFFCURVE",
"876 647 OFFCURVE",
"876 585 CURVE SMOOTH",
"876 133 LINE SMOOTH",
"876 69 OFFCURVE",
"865 57 OFFCURVE",
"813 57 CURVE SMOOTH",
"649 57 LINE SMOOTH",
"608 57 OFFCURVE",
"598 70 OFFCURVE",
"598 126 CURVE SMOOTH",
"598 517 LINE SMOOTH",
"598 597 OFFCURVE",
"611 640 OFFCURVE",
"645 684 CURVE",
"657 702 LINE",
"645 718 LINE",
"429 718 LINE",
"416 684 LINE",
"440 678 LINE SMOOTH",
"491 664 OFFCURVE",
"504 647 OFFCURVE",
"504 585 CURVE SMOOTH",
"504 133 LINE SMOOTH",
"504 69 OFFCURVE",
"489 57 OFFCURVE",
"436 57 CURVE SMOOTH",
"290 57 LINE SMOOTH",
"238 57 OFFCURVE",
"227 69 OFFCURVE",
"227 133 CURVE SMOOTH",
"227 517 LINE SMOOTH",
"227 597 OFFCURVE",
"241 639 OFFCURVE",
"272 684 CURVE SMOOTH",
"285 702 LINE",
"272 718 LINE",
"52 718 LINE",
"40 684 LINE",
"64 678 LINE",
"113 664 OFFCURVE",
"127 647 OFFCURVE",
"127 585 CURVE SMOOTH",
"127 133 LINE SMOOTH",
"127 69 OFFCURVE",
"113 55 OFFCURVE",
"64 40 CURVE",
"40 34 LINE",
"52 0 LINE"
);
}
);
width = 1102;
}
);
leftMetricsKey = "En-cy";
rightMetricsKey = "En-cy";
unicode = 0428;
},
{
color = 4;
glyphname = "Shcha-cy";
layers = (
{
layerId = UUID0;
paths = (
{
closed = 1;
nodes = (
"40 34 LINE",
"52 0 LINE",
"894 0 LINE SMOOTH",
"986 0 OFFCURVE",
"1015 -64 OFFCURVE",
"1044 -169 CURVE SMOOTH",
"1050 -193 LINE",
"1084 -181 LINE",
"1084 42 LINE",
"1030 42 OFFCURVE",
"976 61 OFFCURVE",
"976 105 CURVE SMOOTH",
"976 517 LINE SMOOTH",
"976 597 OFFCURVE",
"989 639 OFFCURVE",
"1020 684 CURVE SMOOTH",
"1033 702 LINE",
"1020 718 LINE",
"800 718 LINE",
"789 684 LINE",
"813 678 LINE",
"863 664 OFFCURVE",
"876 647 OFFCURVE",
"876 585 CURVE SMOOTH",
"876 133 LINE SMOOTH",
"876 69 OFFCURVE",
"865 57 OFFCURVE",
"813 57 CURVE SMOOTH",
"649 57 LINE SMOOTH",
"608 57 OFFCURVE",
"598 70 OFFCURVE",
"598 126 CURVE SMOOTH",
"598 517 LINE SMOOTH",
"598 597 OFFCURVE",
"611 640 OFFCURVE",
"645 684 CURVE",
"657 702 LINE",
"645 718 LINE",
"429 718 LINE",
"416 684 LINE",
"440 678 LINE SMOOTH",
"491 664 OFFCURVE",
"504 647 OFFCURVE",
"504 585 CURVE SMOOTH",
"504 133 LINE SMOOTH",
"504 69 OFFCURVE",
"489 57 OFFCURVE",
"436 57 CURVE SMOOTH",
"290 57 LINE SMOOTH",
"238 57 OFFCURVE",
"227 69 OFFCURVE",
"227 133 CURVE SMOOTH",
"227 517 LINE SMOOTH",
"227 597 OFFCURVE",
"241 639 OFFCURVE",
"272 684 CURVE SMOOTH",
"285 702 LINE",
"272 718 LINE",
"52 718 LINE",
"40 684 LINE",
"64 678 LINE",
"113 664 OFFCURVE",
"127 647 OFFCURVE",
"127 585 CURVE SMOOTH",
"127 133 LINE SMOOTH",
"127 69 OFFCURVE",
"113 55 OFFCURVE",
"64 40 CURVE"
);
}
);
width = 1094;
}
);
leftMetricsKey = "En-cy";
rightMetricsKey = "Tse-cy";
unicode = 0429;
},
{
color = 4;
glyphname = "Dzhe-cy";
layers = (
{
layerId = UUID0;
paths = (
{
closed = 1;
nodes = (
"183 0 LINE SMOOTH",
"316 0 OFFCURVE",
"352 -15 OFFCURVE",
"388 -152 CURVE SMOOTH",
"393 -177 LINE",
"428 -164 LINE",
"428 0 LINE",
"693 0 LINE",
"703 32 LINE",
"683 38 LINE SMOOTH",
"635 52 OFFCURVE",
"623 67 OFFCURVE",
"623 126 CURVE SMOOTH",
"623 517 LINE SMOOTH",
"623 597 OFFCURVE",
"634 640 OFFCURVE",
"667 684 CURVE SMOOTH",
"680 702 LINE",
"667 718 LINE",
"447 718 LINE",
"435 684 LINE",
"459 678 LINE",
"509 664 OFFCURVE",
"523 647 OFFCURVE",
"523 585 CURVE SMOOTH",
"523 133 LINE SMOOTH",
"523 69 OFFCURVE",
"511 57 OFFCURVE",
"459 57 CURVE SMOOTH",
"290 57 LINE SMOOTH",
"238 57 OFFCURVE",
"226 69 OFFCURVE",
"226 133 CURVE SMOOTH",
"226 517 LINE SMOOTH",
"226 597 OFFCURVE",
"238 640 OFFCURVE",
"272 684 CURVE SMOOTH",
"285 702 LINE",
"272 718 LINE",
"52 718 LINE",
"40 684 LINE",
"64 678 LINE",
"113 664 OFFCURVE",
"127 647 OFFCURVE",
"127 585 CURVE SMOOTH",
"127 133 LINE SMOOTH",
"127 69 OFFCURVE",
"113 55 OFFCURVE",
"64 40 CURVE",
"40 34 LINE",
"52 0 LINE"
);
}
);
width = 748;
}
);
leftMetricsKey = "En-cy";
rightMetricsKey = "En-cy";
unicode = 040F;
},
{
color = 4;
glyphname = "Softsign-cy";
layers = (
{
layerId = UUID0;
paths = (
{
closed = 1;
nodes = (
"226 517 LINE SMOOTH",
"226 597 OFFCURVE",
"239 639 OFFCURVE",
"272 684 CURVE SMOOTH",
"285 702 LINE",
"272 718 LINE",
"52 718 LINE",
"40 684 LINE",
"64 678 LINE SMOOTH",
"113 665 OFFCURVE",
"127 645 OFFCURVE",
"127 585 CURVE SMOOTH",
"127 133 LINE SMOOTH",
"127 71 OFFCURVE",
"113 53 OFFCURVE",
"64 40 CURVE SMOOTH",
"40 34 LINE",
"52 0 LINE",
"331 0 LINE SMOOTH",
"522 0 OFFCURVE",
"591 88 OFFCURVE",
"591 210 CURVE SMOOTH",
"591 322 OFFCURVE",
"497 419 OFFCURVE",
"345 419 CURVE SMOOTH",
"295 419 OFFCURVE",
"248 409 OFFCURVE",
"248 384 CURVE SMOOTH",
"248 372 OFFCURVE",
"252 361 OFFCURVE",
"262 361 CURVE SMOOTH",
"274 361 OFFCURVE",
"287 370 OFFCURVE",
"328 370 CURVE SMOOTH",
"424 370 OFFCURVE",
"487 301 OFFCURVE",
"487 215 CURVE SMOOTH",
"487 120 OFFCURVE",
"433 52 OFFCURVE",
"337 52 CURVE SMOOTH",
"299 52 OFFCURVE",
"226 57 OFFCURVE",
"226 183 CURVE SMOOTH"
);
}
);
width = 613;
}
);
leftMetricsKey = "En-cy";
unicode = 042C;
},
{
color = 4;
glyphname = "Hardsign-cy";
layers = (
{
layerId = UUID0;
paths = (
{
closed = 1;
nodes = (
"452 0 LINE SMOOTH",
"643 0 OFFCURVE",
"713 88 OFFCURVE",
"713 210 CURVE SMOOTH",
"713 322 OFFCURVE",
"619 419 OFFCURVE",
"467 419 CURVE SMOOTH",
"418 419 OFFCURVE",
"370 409 OFFCURVE",
"370 384 CURVE SMOOTH",
"370 372 OFFCURVE",
"374 361 OFFCURVE",
"383 361 CURVE SMOOTH",
"394 361 OFFCURVE",
"408 370 OFFCURVE",
"449 370 CURVE SMOOTH",
"545 370 OFFCURVE",
"609 301 OFFCURVE",
"609 215 CURVE SMOOTH",
"609 120 OFFCURVE",
"554 52 OFFCURVE",
"458 52 CURVE SMOOTH",
"420 52 OFFCURVE",
"347 57 OFFCURVE",
"347 183 CURVE SMOOTH",
"347 517 LINE SMOOTH",
"347 597 OFFCURVE",
"360 639 OFFCURVE",
"393 684 CURVE SMOOTH",
"406 702 LINE",
"393 718 LINE",
"168 718 LINE SMOOTH",
"111 718 OFFCURVE",
"75 723 OFFCURVE",
"54 738 CURVE SMOOTH",
"37 751 LINE",
"20 738 LINE",
"20 561 LINE",
"54 549 LINE",
"60 572 LINE SMOOTH",
"79 644 OFFCURVE",
"98 662 OFFCURVE",
"169 662 CURVE SMOOTH",
"195 662 LINE SMOOTH",
"224 662 OFFCURVE",
"249 647 OFFCURVE",
"249 585 CURVE SMOOTH",
"249 133 LINE SMOOTH",
"249 71 OFFCURVE",
"235 53 OFFCURVE",
"185 40 CURVE SMOOTH",
"161 34 LINE",
"174 0 LINE"
);
}
);
width = 735;
}
);
leftMetricsKey = T;
rightMetricsKey = "Softsign-cy";
unicode = 042A;
},
{
color = 4;
glyphname = "Yeru-cy";
layers = (
{
anchors = (
{
name = top;
position = "{468, 718}";
}
);
layerId = UUID0;
paths = (
{
closed = 1;
nodes = (
"227 517 LINE SMOOTH",
"227 597 OFFCURVE",
"239 639 OFFCURVE",
"272 684 CURVE SMOOTH",
"285 702 LINE",
"272 718 LINE",
"52 718 LINE",
"40 684 LINE",
"64 678 LINE SMOOTH",
"113 665 OFFCURVE",
"127 645 OFFCURVE",
"127 585 CURVE SMOOTH",
"127 133 LINE SMOOTH",
"127 71 OFFCURVE",
"113 53 OFFCURVE",
"64 40 CURVE SMOOTH",
"40 34 LINE",
"52 0 LINE",
"331 0 LINE SMOOTH",
"507 0 OFFCURVE",
"577 88 OFFCURVE",
"577 210 CURVE SMOOTH",
"577 322 OFFCURVE",
"484 419 OFFCURVE",
"345 419 CURVE SMOOTH",
"296 419 OFFCURVE",
"248 409 OFFCURVE",
"248 384 CURVE SMOOTH",
"248 372 OFFCURVE",
"252 361 OFFCURVE",
"262 361 CURVE SMOOTH",
"274 361 OFFCURVE",
"287 370 OFFCURVE",
"328 370 CURVE SMOOTH",
"410 370 OFFCURVE",
"473 301 OFFCURVE",
"473 215 CURVE SMOOTH",
"473 120 OFFCURVE",
"421 52 OFFCURVE",
"338 52 CURVE SMOOTH",
"299 52 OFFCURVE",
"227 57 OFFCURVE",
"227 183 CURVE SMOOTH"
);
},
{
closed = 1;
nodes = (
"880 0 LINE",
"891 32 LINE",
"869 38 LINE SMOOTH",
"822 52 OFFCURVE",
"809 67 OFFCURVE",
"809 126 CURVE SMOOTH",
"809 517 LINE SMOOTH",
"809 597 OFFCURVE",
"822 640 OFFCURVE",
"855 684 CURVE",
"867 702 LINE",
"855 718 LINE",
"634 718 LINE",
"623 684 LINE",
"646 678 LINE SMOOTH",
"695 664 OFFCURVE",
"711 647 OFFCURVE",
"711 585 CURVE SMOOTH",
"711 133 LINE SMOOTH",
"711 69 OFFCURVE",
"695 55 OFFCURVE",
"646 40 CURVE",
"623 34 LINE",
"634 0 LINE"
);
}
);
width = 936;
}
);
leftMetricsKey = "En-cy";
rightMetricsKey = "En-cy";
unicode = 042B;
},
{
color = 5;
glyphname = "Lje-cy";
layers = (
{
background = {
paths = (
{
closed = 1;
nodes = (
"406 614 LINE",
"417 614 LINE SMOOTH",
"465 614 OFFCURVE",
"476 600 OFFCURVE",
"476 543 CURVE SMOOTH",
"476 123 LINE SMOOTH",
"476 64 OFFCURVE",
"463 51 OFFCURVE",
"417 37 CURVE",
"395 32 LINE",
"406 0 LINE",
"634 0 LINE",
"643 30 LINE",
"624 35 LINE SMOOTH",
"579 48 OFFCURVE",
"568 62 OFFCURVE",
"568 117 CURVE SMOOTH",
"568 480 LINE SMOOTH",
"568 554 OFFCURVE",
"579 594 OFFCURVE",
"610 634 CURVE SMOOTH",
"622 651 LINE",
"610 666 LINE",
"406 666 LINE"
);
},
{
closed = 1;
nodes = (
"406 666 LINE",
"194 666 LINE",
"182 634 LINE",
"204 630 LINE SMOOTH",
"249 622 OFFCURVE",
"275 596 OFFCURVE",
"270 542 CURVE SMOOTH",
"238 192 OFFCURVE",
"201 60 OFFCURVE",
"130 60 CURVE SMOOTH",
"108 60 OFFCURVE",
"99 82 OFFCURVE",
"94 104 CURVE SMOOTH",
"88 127 OFFCURVE",
"80 137 OFFCURVE",
"64 137 CURVE SMOOTH",
"41 137 OFFCURVE",
"20 117 OFFCURVE",
"20 80 CURVE SMOOTH",
"20 18 OFFCURVE",
"65 -13 OFFCURVE",
"116 -13 CURVE SMOOTH",
"223 -13 OFFCURVE",
"292 93 OFFCURVE",
"332 577 CURVE SMOOTH",
"335 608 OFFCURVE",
"356 614 OFFCURVE",
"390 614 CURVE SMOOTH",
"406 614 LINE"
);
}
);
};
layerId = UUID0;
paths = (
{
closed = 1;
nodes = (
"644 419 OFFCURVE",
"597 409 OFFCURVE",
"597 384 CURVE SMOOTH",
"597 372 OFFCURVE",
"600 361 OFFCURVE",
"611 361 CURVE SMOOTH",
"622 361 OFFCURVE",
"635 370 OFFCURVE",
"676 370 CURVE SMOOTH",
"772 370 OFFCURVE",
"836 301 OFFCURVE",
"836 215 CURVE SMOOTH",
"836 120 OFFCURVE",
"782 52 OFFCURVE",
"686 52 CURVE SMOOTH",
"647 52 OFFCURVE",
"575 57 OFFCURVE",
"575 183 CURVE SMOOTH",
"575 517 LINE SMOOTH",
"575 597 OFFCURVE",
"587 640 OFFCURVE",
"620 684 CURVE",
"633 702 LINE",
"620 718 LINE",
"172 718 LINE",
"159 684 LINE",
"183 679 LINE SMOOTH",
"231 671 OFFCURVE",
"259 643 OFFCURVE",
"254 584 CURVE SMOOTH",
"219 207 OFFCURVE",
"179 65 OFFCURVE",
"103 65 CURVE SMOOTH",
"79 65 OFFCURVE",
"69 88 OFFCURVE",
"64 112 CURVE SMOOTH",
"57 137 OFFCURVE",
"49 148 OFFCURVE",
"32 148 CURVE SMOOTH",
"7 148 OFFCURVE",
"-16 126 OFFCURVE",
"-16 86 CURVE SMOOTH",
"-16 19 OFFCURVE",
"33 -14 OFFCURVE",
"88 -14 CURVE SMOOTH",
"203 -14 OFFCURVE",
"277 100 OFFCURVE",
"321 622 CURVE SMOOTH",
"324 655 OFFCURVE",
"346 662 OFFCURVE",
"383 662 CURVE SMOOTH",
"412 662 LINE SMOOTH",
"464 662 OFFCURVE",
"476 647 OFFCURVE",
"476 585 CURVE SMOOTH",
"476 133 LINE SMOOTH",
"476 71 OFFCURVE",
"462 53 OFFCURVE",
"412 40 CURVE SMOOTH",
"388 34 LINE",
"400 0 LINE",
"681 0 LINE SMOOTH",
"871 0 OFFCURVE",
"939 88 OFFCURVE",
"939 210 CURVE SMOOTH",
"939 322 OFFCURVE",
"846 419 OFFCURVE",
"694 419 CURVE SMOOTH"
);
}
);
width = 961;
}
);
leftMetricsKey = "El-cy";
rightMetricsKey = "Softsign-cy";
unicode = 0409;
},
{
color = 4;
glyphname = "Nje-cy";
layers = (
{
layerId = UUID0;
paths = (
{
closed = 1;
nodes = (
"652 517 LINE SMOOTH",
"652 597 OFFCURVE",
"666 639 OFFCURVE",
"697 684 CURVE",
"712 702 LINE",
"697 718 LINE",
"479 718 LINE",
"467 684 LINE",
"489 678 LINE SMOOTH",
"540 665 OFFCURVE",
"554 645 OFFCURVE",
"554 585 CURVE SMOOTH",
"554 395 LINE",
"227 395 LINE",
"227 517 LINE SMOOTH",
"227 597 OFFCURVE",
"239 640 OFFCURVE",
"272 684 CURVE SMOOTH",
"285 702 LINE",
"272 718 LINE",
"52 718 LINE",
"40 684 LINE",
"64 678 LINE",
"114 664 OFFCURVE",
"128 647 OFFCURVE",
"128 585 CURVE SMOOTH",
"128 133 LINE SMOOTH",
"128 69 OFFCURVE",
"114 55 OFFCURVE",
"64 40 CURVE",
"40 34 LINE",
"52 0 LINE",
"298 0 LINE",
"308 32 LINE",
"287 38 LINE SMOOTH",
"240 52 OFFCURVE",
"227 67 OFFCURVE",
"227 126 CURVE SMOOTH",
"227 334 LINE",
"554 334 LINE",
"554 133 LINE SMOOTH",
"554 71 OFFCURVE",
"540 53 OFFCURVE",
"489 40 CURVE SMOOTH",
"467 34 LINE",
"479 0 LINE",
"757 0 LINE SMOOTH",
"947 0 OFFCURVE",
"1018 88 OFFCURVE",
"1018 210 CURVE SMOOTH",
"1018 322 OFFCURVE",
"924 419 OFFCURVE",
"772 419 CURVE SMOOTH",
"723 419 OFFCURVE",
"675 409 OFFCURVE",
"675 384 CURVE SMOOTH",
"675 372 OFFCURVE",
"678 361 OFFCURVE",
"688 361 CURVE SMOOTH",
"699 361 OFFCURVE",
"714 370 OFFCURVE",
"754 370 CURVE SMOOTH",
"850 370 OFFCURVE",
"914 301 OFFCURVE",
"914 215 CURVE SMOOTH",
"914 120 OFFCURVE",
"860 52 OFFCURVE",
"765 52 CURVE SMOOTH",
"725 52 OFFCURVE",
"652 57 OFFCURVE",
"652 183 CURVE SMOOTH"
);
}
);
width = 1040;
}
);
leftMetricsKey = "En-cy";
rightMetricsKey = "Softsign-cy";
unicode = 040A;
},
{
color = 4;
glyphname = "E-cy";
layers = (
{
layerId = UUID0;
paths = (
{
closed = 1;
nodes = (
"358 732 CURVE SMOOTH",
"139 732 OFFCURVE",
"35 565 OFFCURVE",
"35 358 CURVE SMOOTH",
"35 153 OFFCURVE",
"139 -14 OFFCURVE",
"354 -14 CURVE SMOOTH",
"461 -14 OFFCURVE",
"535 37 OFFCURVE",
"588 112 CURVE",
"589 115 OFFCURVE",
"590 119 OFFCURVE",
"590 121 CURVE SMOOTH",
"590 135 OFFCURVE",
"571 149 OFFCURVE",
"558 149 CURVE SMOOTH",
"555 149 OFFCURVE",
"554 148 OFFCURVE",
"552 144 CURVE SMOOTH",
"515 91 OFFCURVE",
"451 55 OFFCURVE",
"363 55 CURVE SMOOTH",
"239 55 OFFCURVE",
"159 172 OFFCURVE",
"148 322 CURVE",
"437 322 LINE",
"455 336 OFFCURVE",
"461 362 OFFCURVE",
"461 385 CURVE",
"147 385 LINE",
"154 527 OFFCURVE",
"210 677 OFFCURVE",
"358 677 CURVE SMOOTH",
"434 677 OFFCURVE",
"485 633 OFFCURVE",
"485 571 CURVE SMOOTH",
"485 516 OFFCURVE",
"454 491 OFFCURVE",
"454 481 CURVE SMOOTH",
"454 473 OFFCURVE",
"461 469 OFFCURVE",
"476 469 CURVE SMOOTH",
"537 469 OFFCURVE",
"582 516 OFFCURVE",
"582 585 CURVE SMOOTH",
"582 673 OFFCURVE",
"489 732 OFFCURVE"
);
}
);
width = 616;
}
);
leftMetricsKey = O;
rightMetricsKey = C;
unicode = 0404;
},
{
color = 4;
glyphname = "Ereversed-cy";
layers = (
{
layerId = UUID0;
paths = (
{
closed = 1;
nodes = (
"258 732 CURVE SMOOTH",
"199 732 OFFCURVE",
"158 718 OFFCURVE",
"126 718 CURVE SMOOTH",
"111 718 OFFCURVE",
"100 720 OFFCURVE",
"88 730 CURVE",
"70 742 LINE",
"53 730 LINE",
"53 551 LINE",
"88 539 LINE",
"93 562 LINE SMOOTH",
"115 645 OFFCURVE",
"174 676 OFFCURVE",
"235 676 CURVE SMOOTH",
"387 676 OFFCURVE",
"449 535 OFFCURVE",
"456 395 CURVE",
"169 395 LINE",
"150 382 OFFCURVE",
"145 354 OFFCURVE",
"145 333 CURVE",
"456 333 LINE",
"450 172 OFFCURVE",
"374 43 OFFCURVE",
"254 43 CURVE SMOOTH",
"186 43 OFFCURVE",
"123 85 OFFCURVE",
"123 156 CURVE SMOOTH",
"123 209 OFFCURVE",
"146 232 OFFCURVE",
"146 241 CURVE SMOOTH",
"146 253 OFFCURVE",
"139 253 OFFCURVE",
"126 253 CURVE SMOOTH",
"67 253 OFFCURVE",
"26 211 OFFCURVE",
"26 148 CURVE SMOOTH",
"26 40 OFFCURVE",
"139 -14 OFFCURVE",
"257 -14 CURVE SMOOTH",
"470 -14 OFFCURVE",
"571 153 OFFCURVE",
"571 358 CURVE SMOOTH",
"571 566 OFFCURVE",
"470 732 OFFCURVE"
);
}
);
width = 606;
}
);
leftMetricsKey = "=|C";
rightMetricsKey = O;
unicode = 042D;
},
{
color = 5;
glyphname = "Tshe-cy";
layers = (
{
background = {
components = (
{
name = "Che-cy";
transform = "{-1, 0, 0, -1, 733, 666}";
}
);
};
layerId = UUID0;
paths = (
{
closed = 1;
nodes = (
"325 315 LINE",
"361 349 OFFCURVE",
"401 384 OFFCURVE",
"481 384 CURVE SMOOTH",
"559 384 OFFCURVE",
"599 351 OFFCURVE",
"599 273 CURVE SMOOTH",
"599 -15 LINE",
"726 -1 LINE",
"739 16 LINE",
"726 33 LINE SMOOTH",
"704 64 OFFCURVE",
"696 93 OFFCURVE",
"696 175 CURVE SMOOTH",
"696 300 LINE SMOOTH",
"696 405 OFFCURVE",
"635 456 OFFCURVE",
"522 456 CURVE SMOOTH",
"433 456 OFFCURVE",
"380 426 OFFCURVE",
"325 387 CURVE",
"325 585 LINE SMOOTH",
"325 647 OFFCURVE",
"332 662 OFFCURVE",
"360 662 CURVE SMOOTH",
"428 662 LINE SMOOTH",
"498 662 OFFCURVE",
"520 645 OFFCURVE",
"537 572 CURVE SMOOTH",
"542 549 LINE",
"577 561 LINE",
"577 738 LINE",
"559 751 LINE",
"542 738 LINE SMOOTH",
"522 724 OFFCURVE",
"486 718 OFFCURVE",
"429 718 CURVE SMOOTH",
"168 718 LINE SMOOTH",
"111 718 OFFCURVE",
"75 723 OFFCURVE",
"55 738 CURVE SMOOTH",
"38 751 LINE",
"20 738 LINE",
"20 561 LINE",
"55 549 LINE",
"60 572 LINE SMOOTH",
"77 645 OFFCURVE",
"98 662 OFFCURVE",
"169 662 CURVE SMOOTH",
"193 662 LINE SMOOTH",
"222 662 OFFCURVE",
"227 647 OFFCURVE",
"227 585 CURVE SMOOTH",
"227 201 LINE SMOOTH",
"227 119 OFFCURVE",
"215 78 OFFCURVE",
"182 34 CURVE",
"170 16 LINE",
"182 0 LINE",
"402 0 LINE",
"414 34 LINE",
"390 40 LINE",
"339 55 OFFCURVE",
"325 69 OFFCURVE",
"325 133 CURVE SMOOTH"
);
}
);
width = 769;
}
);
leftMetricsKey = T;
unicode = 040B;
},
{
color = 4;
glyphname = "Iu-cy";
layers = (
{
layerId = UUID0;
paths = (
{
closed = 1;
nodes = (
"298 0 LINE",
"308 32 LINE",
"287 38 LINE SMOOTH",
"240 52 OFFCURVE",
"227 67 OFFCURVE",
"227 126 CURVE SMOOTH",
"227 334 LINE",
"374 334 LINE",
"382 139 OFFCURVE",
"483 -14 OFFCURVE",
"690 -14 CURVE SMOOTH",
"903 -14 OFFCURVE",
"1007 151 OFFCURVE",
"1007 358 CURVE SMOOTH",
"1007 565 OFFCURVE",
"903 731 OFFCURVE",
"690 731 CURVE SMOOTH",
"489 731 OFFCURVE",
"387 582 OFFCURVE",
"375 395 CURVE",
"227 395 LINE",
"227 517 LINE SMOOTH",
"227 597 OFFCURVE",
"239 640 OFFCURVE",
"272 684 CURVE SMOOTH",
"285 702 LINE",
"272 718 LINE",
"52 718 LINE",
"40 684 LINE",
"64 678 LINE",
"113 664 OFFCURVE",
"128 647 OFFCURVE",
"128 585 CURVE SMOOTH",
"128 133 LINE SMOOTH",
"128 69 OFFCURVE",
"113 55 OFFCURVE",
"64 40 CURVE",
"40 34 LINE",
"52 0 LINE"
);
},
{
closed = 1;
nodes = (
"898 355 CURVE SMOOTH",
"898 183 OFFCURVE",
"822 44 OFFCURVE",
"686 44 CURVE SMOOTH",
"550 44 OFFCURVE",
"482 180 OFFCURVE",
"482 349 CURVE SMOOTH",
"482 527 OFFCURVE",
"558 675 OFFCURVE",
"696 675 CURVE SMOOTH",
"853 675 OFFCURVE",
"898 481 OFFCURVE"
);
}
);
width = 1042;
}
);
leftMetricsKey = "En-cy";
rightMetricsKey = O;
unicode = 042E;
},
{
color = 4;
glyphname = "Ia-cy";
layers = (
{
layerId = UUID0;
paths = (
{
closed = 1;
nodes = (
"10 26 LINE",
"39 -3 OFFCURVE",
"70 -14 OFFCURVE",
"102 -14 CURVE SMOOTH",
"172 -14 OFFCURVE",
"200 31 OFFCURVE",
"241 103 CURVE SMOOTH",
"331 264 LINE SMOOTH",
"347 290 OFFCURVE",
"361 299 OFFCURVE",
"399 313 CURVE SMOOTH",
"415 319 OFFCURVE",
"417 330 OFFCURVE",
"417 337 CURVE SMOOTH",
"417 349 OFFCURVE",
"414 360 OFFCURVE",
"403 360 CURVE SMOOTH",
"396 360 OFFCURVE",
"384 354 OFFCURVE",
"354 354 CURVE SMOOTH",
"257 354 OFFCURVE",
"202 417 OFFCURVE",
"202 509 CURVE SMOOTH",
"202 602 OFFCURVE",
"257 676 OFFCURVE",
"363 676 CURVE SMOOTH",
"432 676 OFFCURVE",
"441 647 OFFCURVE",
"441 630 CURVE SMOOTH",
"441 201 LINE SMOOTH",
"441 118 OFFCURVE",
"427 78 OFFCURVE",
"396 34 CURVE",
"384 16 LINE",
"396 0 LINE",
"614 0 LINE",
"625 34 LINE",
"604 40 LINE SMOOTH",
"553 53 OFFCURVE",
"539 71 OFFCURVE",
"539 133 CURVE SMOOTH",
"539 626 LINE SMOOTH",
"539 644 OFFCURVE",
"546 649 OFFCURVE",
"561 649 CURVE SMOOTH",
"619 649 LINE",
"632 687 LINE",
"580 706 OFFCURVE",
"477 731 OFFCURVE",
"384 731 CURVE SMOOTH",
"180 731 OFFCURVE",
"99 634 OFFCURVE",
"99 513 CURVE SMOOTH",
"99 420 OFFCURVE",
"147 335 OFFCURVE",
"252 309 CURVE",
"233 298 OFFCURVE",
"224 282 OFFCURVE",
"213 261 CURVE SMOOTH",
"104 71 LINE",
"94 56 OFFCURVE",
"83 41 OFFCURVE",
"66 41 CURVE SMOOTH",
"53 41 OFFCURVE",
"42 44 OFFCURVE",
"26 55 CURVE"
);
}
);
width = 677;
}
);
rightMetricsKey = "En-cy";
unicode = 042F;
},
{
color = 5;
glyphname = "Dje-cy";
layers = (
{
background = {
components = (
{
name = O;
transform = "{1, 0, 0, 1, 67, -130}";
}
);
};
layerId = UUID0;
paths = (
{
closed = 1;
nodes = (
"740 380 OFFCURVE",
"651 458 OFFCURVE",
"522 458 CURVE SMOOTH",
"469 458 OFFCURVE",
"410 445 OFFCURVE",
"347 419 CURVE",
"347 585 LINE SMOOTH",
"347 647 OFFCURVE",
"354 662 OFFCURVE",
"382 662 CURVE SMOOTH",
"428 662 LINE SMOOTH",
"498 662 OFFCURVE",
"517 644 OFFCURVE",
"537 572 CURVE SMOOTH",
"542 549 LINE",
"577 561 LINE",
"577 738 LINE",
"560 751 LINE",
"542 738 LINE SMOOTH",
"523 723 OFFCURVE",
"486 718 OFFCURVE",
"429 718 CURVE SMOOTH",
"168 718 LINE SMOOTH",
"111 718 OFFCURVE",
"75 723 OFFCURVE",
"55 738 CURVE SMOOTH",
"38 751 LINE",
"20 738 LINE",
"20 561 LINE",
"55 549 LINE",
"60 572 LINE SMOOTH",
"80 644 OFFCURVE",
"98 662 OFFCURVE",
"169 662 CURVE SMOOTH",
"215 662 LINE SMOOTH",
"244 662 OFFCURVE",
"249 647 OFFCURVE",
"249 585 CURVE SMOOTH",
"249 201 LINE SMOOTH",
"249 119 OFFCURVE",
"237 78 OFFCURVE",
"204 34 CURVE",
"192 16 LINE",
"204 0 LINE",
"391 0 LINE",
"403 34 LINE",
"379 40 LINE",
"354 55 OFFCURVE",
"347 69 OFFCURVE",
"347 133 CURVE SMOOTH",
"347 361 LINE",
"401 379 OFFCURVE",
"448 388 OFFCURVE",
"488 388 CURVE SMOOTH",
"580 388 OFFCURVE",
"632 326 OFFCURVE",
"632 204 CURVE SMOOTH",
"632 69 OFFCURVE",
"578 6 OFFCURVE",
"536 6 CURVE SMOOTH",
"513 6 OFFCURVE",
"502 22 OFFCURVE",
"489 22 CURVE SMOOTH",
"482 22 OFFCURVE",
"475 15 OFFCURVE",
"475 0 CURVE SMOOTH",
"475 -29 OFFCURVE",
"500 -58 OFFCURVE",
"548 -58 CURVE SMOOTH",
"652 -58 OFFCURVE",
"740 66 OFFCURVE",
"740 217 CURVE SMOOTH"
);
}
);
width = 760;
}
);
leftMetricsKey = T;
unicode = 0402;
},
{
color = 4;
glyphname = "Yat-cy";
layers = (
{
background = {
paths = (
{
closed = 1;
nodes = (
"509 429 LINE",
"541 440 LINE",
"541 585 LINE",
"525 597 LINE",
"509 585 LINE SMOOTH",
"491 571 OFFCURVE",
"457 566 OFFCURVE",
"404 566 CURVE SMOOTH",
"161 566 LINE SMOOTH",
"108 566 OFFCURVE",
"75 571 OFFCURVE",
"56 585 CURVE SMOOTH",
"40 597 LINE",
"24 585 LINE",
"24 440 LINE",
"56 429 LINE",
"61 451 LINE SMOOTH",
"76 502 OFFCURVE",
"96 514 OFFCURVE",
"162 514 CURVE SMOOTH",
"204 514 LINE SMOOTH",
"231 514 OFFCURVE",
"236 510 OFFCURVE",
"236 493 CURVE",
"328 493 LINE",
"328 510 OFFCURVE",
"334 514 OFFCURVE",
"360 514 CURVE SMOOTH",
"403 514 LINE SMOOTH",
"468 514 OFFCURVE",
"489 502 OFFCURVE",
"504 451 CURVE SMOOTH"
);
}
);
};
layerId = UUID0;
paths = (
{
closed = 1;
nodes = (
"326 567 LINE SMOOTH",
"326 647 OFFCURVE",
"340 688 OFFCURVE",
"371 733 CURVE SMOOTH",
"384 751 LINE",
"371 768 LINE",
"151 768 LINE",
"140 733 LINE",
"163 728 LINE SMOOTH",
"213 717 OFFCURVE",
"227 694 OFFCURVE",
"227 635 CURVE SMOOTH",
"227 133 LINE SMOOTH",
"227 71 OFFCURVE",
"213 53 OFFCURVE",
"163 40 CURVE SMOOTH",
"140 34 LINE",
"151 0 LINE",
"421 0 LINE SMOOTH",
"585 0 OFFCURVE",
"660 79 OFFCURVE",
"660 185 CURVE SMOOTH",
"660 307 OFFCURVE",
"563 375 OFFCURVE",
"437 375 CURVE SMOOTH",
"389 375 OFFCURVE",
"345 365 OFFCURVE",
"345 343 CURVE SMOOTH",
"345 332 OFFCURVE",
"349 321 OFFCURVE",
"358 321 CURVE SMOOTH",
"369 321 OFFCURVE",
"381 330 OFFCURVE",
"419 330 CURVE SMOOTH",
"505 330 OFFCURVE",
"565 276 OFFCURVE",
"565 181 CURVE SMOOTH",
"565 94 OFFCURVE",
"516 47 OFFCURVE",
"427 47 CURVE SMOOTH",
"364 47 OFFCURVE",
"326 79 OFFCURVE",
"326 183 CURVE SMOOTH"
);
},
{
closed = 1;
nodes = (
"521 462 LINE",
"556 474 LINE",
"556 631 LINE",
"538 644 LINE",
"521 631 LINE SMOOTH",
"502 616 OFFCURVE",
"465 610 OFFCURVE",
"408 610 CURVE SMOOTH",
"168 610 LINE SMOOTH",
"110 610 OFFCURVE",
"75 616 OFFCURVE",
"54 631 CURVE SMOOTH",
"37 644 LINE",
"20 631 LINE",
"20 474 LINE",
"54 462 LINE",
"60 486 LINE SMOOTH",
"73 542 OFFCURVE",
"97 554 OFFCURVE",
"169 554 CURVE SMOOTH",
"192 554 LINE SMOOTH",
"221 554 OFFCURVE",
"227 550 OFFCURVE",
"227 531 CURVE",
"326 531 LINE",
"326 550 OFFCURVE",
"333 554 OFFCURVE",
"361 554 CURVE SMOOTH",
"407 554 LINE SMOOTH",
"477 554 OFFCURVE",
"500 541 OFFCURVE",
"516 486 CURVE SMOOTH"
);
}
);
width = 682;
}
);
leftMetricsKey = T;
rightMetricsKey = "Softsign-cy";
unicode = 0462;
},
{
color = 4;
glyphname = "Yusbig-cy";
layers = (
{
background = {
paths = (
{
closed = 1;
nodes = (
"311 631 OFFCURVE",
"315 655 OFFCURVE",
"330 666 CURVE",
"703 666 LINE",
"703 648 OFFCURVE",
"699 626 OFFCURVE",
"684 614 CURVE",
"311 614 LINE"
);
}
);
};
guideLines = (
{
position = "{450, 380}";
}
);
layerId = UUID0;
paths = (
{
closed = 1;
nodes = (
"558 345 LINE",
"713 578 LINE SMOOTH",
"752 636 OFFCURVE",
"769 657 OFFCURVE",
"800 684 CURVE",
"814 702 LINE",
"802 718 LINE",
"209 718 LINE",
"196 702 LINE",
"241 673 OFFCURVE",
"261 635 OFFCURVE",
"301 576 CURVE SMOOTH",
"459 337 LINE",
"459 133 LINE SMOOTH",
"459 69 OFFCURVE",
"450 55 OFFCURVE",
"415 40 CURVE",
"394 34 LINE",
"405 0 LINE",
"607 0 LINE",
"618 32 LINE",
"597 38 LINE",
"566 52 OFFCURVE",
"558 67 OFFCURVE",
"558 126 CURVE SMOOTH"
);
},
{
closed = 1;
nodes = (
"349 649 OFFCURVE",
"360 662 OFFCURVE",
"381 662 CURVE SMOOTH",
"670 662 LINE SMOOTH",
"695 662 OFFCURVE",
"697 646 OFFCURVE",
"682 622 CURVE SMOOTH",
"523 379 LINE",
"365 625 LINE SMOOTH"
);
},
{
closed = 1;
nodes = (
"413 367 OFFCURVE",
"411 381 OFFCURVE",
"393 381 CURVE SMOOTH",
"360 381 LINE SMOOTH",
"282 381 OFFCURVE",
"235 336 OFFCURVE",
"199 257 CURVE",
"104 71 LINE SMOOTH",
"94 52 OFFCURVE",
"83 41 OFFCURVE",
"65 41 CURVE SMOOTH",
"52 41 OFFCURVE",
"40 44 OFFCURVE",
"26 55 CURVE",
"10 26 LINE",
"38 -3 OFFCURVE",
"70 -14 OFFCURVE",
"106 -14 CURVE SMOOTH",
"169 -14 OFFCURVE",
"208 21 OFFCURVE",
"240 84 CURVE SMOOTH",
"330 266 LINE SMOOTH",
"352 310 OFFCURVE",
"374 331 OFFCURVE",
"409 346 CURVE SMOOTH",
"412 347 OFFCURVE",
"413 350 OFFCURVE",
"413 357 CURVE SMOOTH"
);
},
{
closed = 1;
nodes = (
"976 44 OFFCURVE",
"964 41 OFFCURVE",
"951 41 CURVE SMOOTH",
"933 41 OFFCURVE",
"922 52 OFFCURVE",
"912 71 CURVE SMOOTH",
"817 257 LINE",
"781 336 OFFCURVE",
"734 381 OFFCURVE",
"656 381 CURVE SMOOTH",
"623 381 LINE SMOOTH",
"605 381 OFFCURVE",
"603 367 OFFCURVE",
"603 357 CURVE SMOOTH",
"603 350 OFFCURVE",
"605 347 OFFCURVE",
"610 345 CURVE SMOOTH",
"643 332 OFFCURVE",
"662 314 OFFCURVE",
"686 266 CURVE SMOOTH",
"776 84 LINE SMOOTH",
"808 20 OFFCURVE",
"847 -14 OFFCURVE",
"910 -14 CURVE SMOOTH",
"946 -14 OFFCURVE",
"978 -3 OFFCURVE",
"1006 26 CURVE",
"990 55 LINE"
);
}
);
width = 1016;
}
);
leftMetricsKey = "=|Ka-cy";
rightMetricsKey = "Ka-cy";
unicode = 046A;
},
{
color = 4;
glyphname = "Fita-cy";
layers = (
{
background = {
paths = (
{
closed = 1;
nodes = (
"450 147 CURVE",
"451 149 OFFCURVE",
"454 152 OFFCURVE",
"454 156 CURVE SMOOTH",
"454 168 OFFCURVE",
"439 181 OFFCURVE",
"429 181 CURVE SMOOTH",
"425 181 OFFCURVE",
"423 180 OFFCURVE",
"421 178 CURVE SMOOTH",
"384 142 OFFCURVE",
"337 125 OFFCURVE",
"285 125 CURVE SMOOTH",
"195 125 OFFCURVE",
"148 192 OFFCURVE",
"148 301 CURVE SMOOTH",
"148 432 OFFCURVE",
"195 504 OFFCURVE",
"275 504 CURVE SMOOTH",
"332 504 OFFCURVE",
"363 460 OFFCURVE",
"363 414 CURVE SMOOTH",
"363 361 OFFCURVE",
"324 309 OFFCURVE",
"245 309 CURVE SMOOTH",
"207 309 OFFCURVE",
"195 321 OFFCURVE",
"185 321 CURVE SMOOTH",
"178 321 OFFCURVE",
"172 311 OFFCURVE",
"172 300 CURVE SMOOTH",
"172 267 OFFCURVE",
"247 257 OFFCURVE",
"274 257 CURVE SMOOTH",
"389 257 OFFCURVE",
"451 337 OFFCURVE",
"451 413 CURVE SMOOTH",
"451 483 OFFCURVE",
"400 549 OFFCURVE",
"293 549 CURVE SMOOTH",
"147 549 OFFCURVE",
"52 450 OFFCURVE",
"52 301 CURVE SMOOTH",
"52 158 OFFCURVE",
"136 64 OFFCURVE",
"266 64 CURVE SMOOTH",
"338 64 OFFCURVE",
"403 92 OFFCURVE"
);
}
);
};
components = (
{
name = O;
}
);
layerId = UUID0;
paths = (
{
closed = 1;
nodes = (
"524 414 OFFCURVE",
"518 417 OFFCURVE",
"508 412 CURVE SMOOTH",
"473 395 OFFCURVE",
"446 388 OFFCURVE",
"425 388 CURVE SMOOTH",
"389 388 OFFCURVE",
"363 424 OFFCURVE",
"315 424 CURVE SMOOTH",
"281 424 OFFCURVE",
"237 403 OFFCURVE",
"204 370 CURVE SMOOTH",
"196 362 OFFCURVE",
"194 354 OFFCURVE",
"197 342 CURVE SMOOTH",
"200 329 OFFCURVE",
"214 325 OFFCURVE",
"226 331 CURVE SMOOTH",
"256 346 OFFCURVE",
"279 354 OFFCURVE",
"308 354 CURVE SMOOTH",
"353 354 OFFCURVE",
"367 319 OFFCURVE",
"421 319 CURVE SMOOTH",
"453 319 OFFCURVE",
"496 345 OFFCURVE",
"532 381 CURVE SMOOTH",
"537 386 OFFCURVE",
"538 395 OFFCURVE",
"532 403 CURVE SMOOTH"
);
}
);
width = 733;
}
);
leftMetricsKey = O;
rightMetricsKey = O;
unicode = 0472;
},
{
color = 4;
glyphname = "Izhitsa-cy";
layers = (
{
background = {
components = (
{
name = V;
transform = "{1, 0, 0, 1, 28, 0}";
}
);
};
layerId = UUID0;
paths = (
{
closed = 1;
nodes = (
"576 722 OFFCURVE",
"518 683 OFFCURVE",
"480 542 CURVE SMOOTH",
"343 37 LINE",
"375 38 LINE",
"199 585 LINE SMOOTH",
"192 606 OFFCURVE",
"187 621 OFFCURVE",
"187 634 CURVE SMOOTH",
"187 658 OFFCURVE",
"201 672 OFFCURVE",
"233 678 CURVE",
"255 684 LINE",
"244 718 LINE",
"18 718 LINE",
"5 702 LINE",
"48 669 OFFCURVE",
"73 646 OFFCURVE",
"95 580 CURVE SMOOTH",
"290 0 LINE",
"404 0 LINE",
"546 519 LINE SMOOTH",
"573 618 OFFCURVE",
"595 650 OFFCURVE",
"628 650 CURVE SMOOTH",
"658 650 OFFCURVE",
"662 634 OFFCURVE",
"666 608 CURVE SMOOTH",
"669 583 OFFCURVE",
"674 572 OFFCURVE",
"691 572 CURVE SMOOTH",
"729 572 OFFCURVE",
"752 605 OFFCURVE",
"752 635 CURVE SMOOTH",
"752 693 OFFCURVE",
"714 722 OFFCURVE",
"648 722 CURVE SMOOTH"
);
}
);
width = 752;
}
);
leftMetricsKey = V;
unicode = 0474;
},
{
color = 4;
glyphname = "Ghemiddlehook-cy";
layers = (
{
background = {
components = (
{
name = O;
transform = "{1, 0, 0, 1, -16, -27}";
}
);
};
layerId = UUID0;
paths = (
{
closed = 1;
nodes = (
"509 -76 OFFCURVE",
"576 61 OFFCURVE",
"576 181 CURVE SMOOTH",
"576 311 OFFCURVE",
"499 426 OFFCURVE",
"343 426 CURVE SMOOTH",
"275 426 OFFCURVE",
"228 416 OFFCURVE",
"179 397 CURVE",
"179 326 LINE",
"207 347 OFFCURVE",
"248 367 OFFCURVE",
"313 367 CURVE SMOOTH",
"421 367 OFFCURVE",
"473 273 OFFCURVE",
"473 170 CURVE SMOOTH",
"473 84 OFFCURVE",
"437 -15 OFFCURVE",
"365 -15 CURVE SMOOTH",
"330 -15 OFFCURVE",
"323 0 OFFCURVE",
"311 0 CURVE SMOOTH",
"303 0 OFFCURVE",
"299 -7 OFFCURVE",
"299 -22 CURVE SMOOTH",
"299 -51 OFFCURVE",
"324 -76 OFFCURVE",
"377 -76 CURVE SMOOTH"
);
},
{
closed = 1;
nodes = (
"53.001 718.014 LINE",
"40 702.014 LINE",
"53.001 684.014 LINE SMOOTH",
"86.002 640.013 OFFCURVE",
"99.002 597.012 OFFCURVE",
"99.002 517.01 CURVE SMOOTH",
"99.002 201.004 LINE SMOOTH",
"99.002 119.002 OFFCURVE",
"86.002 78.002 OFFCURVE",
"53.001 34 CURVE SMOOTH",
"40 16 LINE",
"53.001 0 LINE",
"243 0 LINE",
"255 34 LINE",
"231 40 LINE",
"204 55 OFFCURVE",
"197.004 69.001 OFFCURVE",
"197.004 133.003 CURVE SMOOTH",
"197.004 585.012 LINE SMOOTH",
"197.004 647.013 OFFCURVE",
"209.004 662.013 OFFCURVE",
"261.005 662.013 CURVE SMOOTH",
"347.007 662.013 LINE SMOOTH",
"418.008 662.013 OFFCURVE",
"440.009 645.013 OFFCURVE",
"456.009 572.011 CURVE SMOOTH",
"461.009 549.011 LINE",
"496.01 561.011 LINE",
"496.01 738.015 LINE",
"480.01 751.015 LINE",
"461.009 738.015 LINE SMOOTH",
"441.009 724.014 OFFCURVE",
"406.008 718.014 OFFCURVE",
"348.007 718.014 CURVE SMOOTH"
);
}
);
width = 602;
}
);
unicode = 0494;
},
{
color = 4;
glyphname = "Zedescender-cy";
layers = (
{
background = {
paths = (
{
closed = 1;
nodes = (
"309 -152 LINE",
"277 -164 LINE",
"272 -141 LINE SMOOTH",
"242 -16 OFFCURVE",
"219 -10 OFFCURVE",
"184 0 CURVE",
"309 0 LINE"
);
}
);
};
components = (
{
name = "Ze-cy";
}
);
layerId = UUID0;
paths = (
{
closed = 1;
nodes = (
"321 -164 LINE",
"321 0 LINE",
"186 -2 LINE",
"224 -13 OFFCURVE",
"252 -17 OFFCURVE",
"281 -152 CURVE SMOOTH",
"287 -177 LINE"
);
}
);
width = 541;
}
);
leftMetricsKey = "Ze-cy";
rightMetricsKey = "Ze-cy";
unicode = 0498;
},
{
color = 4;
glyphname = "Kaverticalstroke-cy";
layers = (
{
components = (
{
name = "verticalbar-cy.case";
transform = "{1, 0, 0, 1, 214, -9}";
}
);
layerId = UUID0;
paths = (
{
closed = 1;
nodes = (
"297 0 LINE",
"307 32 LINE",
"287 38 LINE SMOOTH",
"239 51 OFFCURVE",
"226 67 OFFCURVE",
"226 126 CURVE SMOOTH",
"226 517 LINE SMOOTH",
"226 597 OFFCURVE",
"240 639 OFFCURVE",
"271 684 CURVE SMOOTH",
"284 702 LINE",
"271 718 LINE",
"52 718 LINE",
"40 684 LINE",
"63 678 LINE",
"113 664 OFFCURVE",
"127 647 OFFCURVE",
"127 585 CURVE SMOOTH",
"127 133 LINE SMOOTH",
"127 69 OFFCURVE",
"113 55 OFFCURVE",
"63 40 CURVE",
"40 34 LINE",
"52 0 LINE"
);
},
{
closed = 1;
nodes = (
"470 300 LINE SMOOTH",
"451 333 OFFCURVE",
"427 351 OFFCURVE",
"401 363 CURVE",
"581 624 LINE SMOOTH",
"605 659 OFFCURVE",
"629 672 OFFCURVE",
"658 678 CURVE SMOOTH",
"682 684 LINE",
"670 718 LINE",
"488 718 LINE",
"470 702 LINE",
"478 684 LINE",
"483 673 OFFCURVE",
"491 655 OFFCURVE",
"491 639 CURVE SMOOTH",
"491 623 OFFCURVE",
"489 609 OFFCURVE",
"471 582 CURVE SMOOTH",
"334 381 LINE",
"311 381 LINE SMOOTH",
"293 381 OFFCURVE",
"291 367 OFFCURVE",
"291 357 CURVE SMOOTH",
"291 353 OFFCURVE",
"292 347 OFFCURVE",
"295 346 CURVE",
"320 334 OFFCURVE",
"333 327 OFFCURVE",
"347 301 CURVE SMOOTH",
"467 84 LINE SMOOTH",
"500 23 OFFCURVE",
"536 -14 OFFCURVE",
"599 -14 CURVE SMOOTH",
"630 -14 OFFCURVE",
"663 -3 OFFCURVE",
"691 26 CURVE",
"675 55 LINE",
"661 44 OFFCURVE",
"649 41 OFFCURVE",
"636 41 CURVE SMOOTH",
"618 41 OFFCURVE",
"609 54 OFFCURVE",
"597 71 CURVE"
);
}
);
width = 701;
}
);
leftMetricsKey = "En-cy";
rightMetricsKey = "Ka-cy";
unicode = 049C;
},
{
color = 4;
glyphname = "Kabashkir-cy";
layers = (
{
background = {
paths = (
{
closed = 1;
nodes = (
"351 422 LINE",
"352 666 LINE",
"184 666 LINE SMOOTH",
"131 666 OFFCURVE",
"98 671 OFFCURVE",
"79 685 CURVE SMOOTH",
"63 697 LINE",
"47 685 LINE",
"47 520 LINE",
"79 509 LINE",
"84 531 LINE SMOOTH",
"99 598 OFFCURVE",
"119 614 OFFCURVE",
"185 614 CURVE SMOOTH",
"227 614 LINE SMOOTH",
"254 614 OFFCURVE",
"259 600 OFFCURVE",
"259 543 CURVE SMOOTH",
"259 422 LINE"
);
}
);
};
layerId = UUID0;
paths = (
{
closed = 1;
nodes = (
"348 540 LINE SMOOTH",
"350 606 OFFCURVE",
"363 645 OFFCURVE",
"393 684 CURVE",
"406 702 LINE",
"393 718 LINE",
"168 718 LINE SMOOTH",
"111 718 OFFCURVE",
"75 723 OFFCURVE",
"55 738 CURVE SMOOTH",
"38 751 LINE",
"20 738 LINE",
"20 561 LINE",
"55 549 LINE",
"60 572 LINE SMOOTH",
"76 645 OFFCURVE",
"98 662 OFFCURVE",
"169 662 CURVE SMOOTH",
"214 662 LINE SMOOTH",
"243 662 OFFCURVE",
"249 647 OFFCURVE",
"249 585 CURVE SMOOTH",
"249 133 LINE SMOOTH",
"249 69 OFFCURVE",
"235 55 OFFCURVE",
"185 40 CURVE",
"162 34 LINE",
"173 0 LINE",
"419 0 LINE",
"429 32 LINE",
"408 38 LINE SMOOTH",
"361 52 OFFCURVE",
"348 67 OFFCURVE",
"348 126 CURVE SMOOTH"
);
},
{
closed = 1;
nodes = (
"742 44 OFFCURVE",
"730 41 OFFCURVE",
"717 41 CURVE SMOOTH",
"698 41 OFFCURVE",
"690 54 OFFCURVE",
"678 71 CURVE",
"551 300 LINE SMOOTH",
"531 333 OFFCURVE",
"508 351 OFFCURVE",
"482 363 CURVE",
"662 624 LINE SMOOTH",
"685 659 OFFCURVE",
"710 672 OFFCURVE",
"739 678 CURVE SMOOTH",
"763 684 LINE",
"751 718 LINE",
"569 718 LINE",
"551 702 LINE",
"559 684 LINE",
"564 673 OFFCURVE",
"572 655 OFFCURVE",
"572 639 CURVE SMOOTH",
"572 623 OFFCURVE",
"569 610 OFFCURVE",
"552 582 CURVE",
"415 381 LINE",
"392 381 LINE SMOOTH",
"374 381 OFFCURVE",
"372 367 OFFCURVE",
"372 357 CURVE SMOOTH",
"372 353 OFFCURVE",
"373 347 OFFCURVE",
"376 346 CURVE",
"401 334 OFFCURVE",
"413 327 OFFCURVE",
"428 301 CURVE SMOOTH",
"547 84 LINE SMOOTH",
"581 23 OFFCURVE",
"616 -14 OFFCURVE",
"680 -14 CURVE SMOOTH",
"711 -14 OFFCURVE",
"744 -3 OFFCURVE",
"772 26 CURVE",
"756 55 LINE"
);
}
);
width = 782;
}
);
leftMetricsKey = T;
rightMetricsKey = "Ka-cy";
unicode = 04A0;
},
{
color = 4;
glyphname = "Enghe-cy";
layers = (
{
layerId = UUID0;
paths = (
{
closed = 1;
nodes = (
"886 738 LINE SMOOTH",
"865 723 OFFCURVE",
"831 718 OFFCURVE",
"772 718 CURVE SMOOTH",
"507 718 LINE",
"494 702 LINE",
"507 684 LINE",
"541 640 OFFCURVE",
"554 597 OFFCURVE",
"554 517 CURVE SMOOTH",
"554 395 LINE",
"227 395 LINE",
"227 517 LINE SMOOTH",
"227 597 OFFCURVE",
"239 640 OFFCURVE",
"272 684 CURVE",
"285 702 LINE",
"272 718 LINE",
"52 718 LINE",
"40 684 LINE",
"64 678 LINE",
"114 664 OFFCURVE",
"128 647 OFFCURVE",
"128 585 CURVE SMOOTH",
"128 133 LINE SMOOTH",
"128 69 OFFCURVE",
"114 55 OFFCURVE",
"64 40 CURVE",
"40 34 LINE",
"52 0 LINE",
"298 0 LINE",
"308 32 LINE",
"287 38 LINE SMOOTH",
"240 52 OFFCURVE",
"227 67 OFFCURVE",
"227 126 CURVE SMOOTH",
"227 334 LINE",
"554 334 LINE",
"554 133 LINE SMOOTH",
"554 69 OFFCURVE",
"540 55 OFFCURVE",
"489 40 CURVE",
"467 34 LINE",
"479 0 LINE",
"724 0 LINE",
"735 32 LINE",
"714 38 LINE SMOOTH",
"666 52 OFFCURVE",
"652 67 OFFCURVE",
"652 126 CURVE SMOOTH",
"652 585 LINE SMOOTH",
"652 647 OFFCURVE",
"664 662 OFFCURVE",
"715 662 CURVE SMOOTH",
"771 662 LINE SMOOTH",
"843 662 OFFCURVE",
"861 644 OFFCURVE",
"880 572 CURVE",
"886 549 LINE",
"920 561 LINE",
"920 738 LINE",
"904 751 LINE"
);
}
);
width = 933;
}
);
leftMetricsKey = "En-cy";
rightMetricsKey = "Ge-cy";
unicode = 04A4;
},
{
color = 4;
glyphname = "Esdescender-cy";
layers = (
{
components = (
{
name = "Es-cy";
}
);
layerId = UUID0;
paths = (
{
closed = 1;
nodes = (
"394 -164 LINE",
"394 0 LINE",
"260 -2 LINE",
"297 -13 OFFCURVE",
"328 -15 OFFCURVE",
"355 -152 CURVE SMOOTH",
"360 -177 LINE"
);
}
);
width = 617;
}
);
leftMetricsKey = C;
rightMetricsKey = C;
unicode = 04AA;
},
{
color = 4;
glyphname = "Shha-cy";
layers = (
{
background = {
paths = (
{
closed = 1;
nodes = (
"276 0 LINE",
"285 30 LINE",
"266 35 LINE SMOOTH",
"222 48 OFFCURVE",
"210 62 OFFCURVE",
"210 117 CURVE SMOOTH",
"210 480 LINE SMOOTH",
"210 554 OFFCURVE",
"221 594 OFFCURVE",
"252 634 CURVE SMOOTH",
"264 651 LINE",
"252 666 LINE",
"48 666 LINE",
"37 634 LINE",
"59 629 LINE",
"105 616 OFFCURVE",
"118 600 OFFCURVE",
"118 543 CURVE SMOOTH",
"118 123 LINE SMOOTH",
"118 64 OFFCURVE",
"105 51 OFFCURVE",
"59 37 CURVE",
"37 32 LINE",
"48 0 LINE"
);
}
);
};
components = (
{
name = "Che-cy";
transform = "{-1, 0, 0, -1, 628, 718}";
}
);
layerId = UUID0;
width = 628;
}
);
unicode = 04BA;
},
{
color = 4;
glyphname = "Chekhakassian-cy";
layers = (
{
components = (
{
name = "Che-cy";
}
);
layerId = UUID0;
paths = (
{
closed = 1;
nodes = (
"425 105 LINE",
"425 61 OFFCURVE",
"372 42 OFFCURVE",
"318 42 CURVE",
"318 -181 LINE",
"352 -193 LINE",
"359 -169 LINE SMOOTH",
"392 -55 OFFCURVE",
"416 0 OFFCURVE",
"506 0 CURVE SMOOTH",
"526 0 LINE",
"526 105 LINE"
);
}
);
width = 613;
}
);
unicode = 04CB;
},
{
color = 4;
glyphname = "Schwa-cy";
layers = (
{
background = {
paths = (
{
closed = 1;
nodes = (
"574 525 OFFCURVE",
"481 679 OFFCURVE",
"284 679 CURVE SMOOTH",
"229 679 OFFCURVE",
"191 666 OFFCURVE",
"162 666 CURVE SMOOTH",
"148 666 OFFCURVE",
"137 668 OFFCURVE",
"126 677 CURVE",
"110 688 LINE",
"94 677 LINE",
"94 511 LINE",
"126 500 LINE",
"131 521 LINE SMOOTH",
"149 598 OFFCURVE",
"206 627 OFFCURVE",
"263 627 CURVE SMOOTH",
"404 627 OFFCURVE",
"461 496 OFFCURVE",
"468 366 CURVE",
"574 332 LINE"
);
}
);
};
layerId = UUID0;
paths = (
{
closed = 1;
nodes = (
"594 566 OFFCURVE",
"491 732 OFFCURVE",
"271 732 CURVE SMOOTH",
"212 732 OFFCURVE",
"171 718 OFFCURVE",
"139 718 CURVE SMOOTH",
"124 718 OFFCURVE",
"112 720 OFFCURVE",
"101 730 CURVE",
"83 742 LINE",
"66 730 LINE",
"66 551 LINE",
"101 539 LINE",
"106 562 LINE SMOOTH",
"125 645 OFFCURVE",
"187 676 OFFCURVE",
"248 676 CURVE SMOOTH",
"408 676 OFFCURVE",
"472 535 OFFCURVE",
"480 395 CURVE SMOOTH",
"481 161 OFFCURVE",
"409 44 OFFCURVE",
"280 44 CURVE SMOOTH",
"195 44 OFFCURVE",
"135 97 OFFCURVE",
"135 206 CURVE SMOOTH",
"135 312 OFFCURVE",
"203 382 OFFCURVE",
"311 382 CURVE SMOOTH",
"364 382 OFFCURVE",
"382 363 OFFCURVE",
"397 363 CURVE SMOOTH",
"409 363 OFFCURVE",
"418 378 OFFCURVE",
"418 396 CURVE SMOOTH",
"418 420 OFFCURVE",
"368 438 OFFCURVE",
"297 438 CURVE SMOOTH",
"137 438 OFFCURVE",
"35 328 OFFCURVE",
"35 199 CURVE SMOOTH",
"35 79 OFFCURVE",
"120 -13 OFFCURVE",
"260 -13 CURVE SMOOTH",
"455 -13 OFFCURVE",
"589 133 OFFCURVE",
"593 358 CURVE SMOOTH"
);
}
);
width = 628;
},
{
associatedMasterId = UUID0;
layerId = "CE4B15EE-02A6-4EFB-A3CE-53C87B272695";
name = "Sep 24 16, 10:41";
paths = (
{
closed = 1;
nodes = (
"158 679 OFFCURVE",
"76 633 OFFCURVE",
"76 558 CURVE SMOOTH",
"76 515 OFFCURVE",
"103 481 OFFCURVE",
"159 481 CURVE SMOOTH",
"173 481 OFFCURVE",
"180 485 OFFCURVE",
"180 492 CURVE SMOOTH",
"180 500 OFFCURVE",
"166 516 OFFCURVE",
"166 552 CURVE SMOOTH",
"166 596 OFFCURVE",
"209 628 OFFCURVE",
"274 628 CURVE SMOOTH",
"420 628 OFFCURVE",
"469 471 OFFCURVE",
"469 343 CURVE SMOOTH",
"469 149 OFFCURVE",
"402 41 OFFCURVE",
"282 41 CURVE SMOOTH",
"191 41 OFFCURVE",
"126 90 OFFCURVE",
"126 191 CURVE SMOOTH",
"126 279 OFFCURVE",
"187 354 OFFCURVE",
"289 354 CURVE SMOOTH",
"338 354 OFFCURVE",
"355 337 OFFCURVE",
"369 337 CURVE SMOOTH",
"380 337 OFFCURVE",
"388 351 OFFCURVE",
"388 367 CURVE SMOOTH",
"388 390 OFFCURVE",
"342 406 OFFCURVE",
"276 406 CURVE SMOOTH",
"118 406 OFFCURVE",
"33 294 OFFCURVE",
"33 185 CURVE SMOOTH",
"33 83 OFFCURVE",
"109 -12 OFFCURVE",
"264 -12 CURVE SMOOTH",
"448 -12 OFFCURVE",
"573 128 OFFCURVE",
"573 343 CURVE SMOOTH",
"573 524 OFFCURVE",
"477 679 OFFCURVE",
"273 679 CURVE SMOOTH"
);
}
);
width = 605;
}
);
leftMetricsKey = O;
rightMetricsKey = O;
unicode = 04D8;
},
{
color = 4;
glyphname = "Obarred-cy";
layers = (
{
components = (
{
name = "O-cy";
}
);
layerId = UUID0;
paths = (
{
closed = 1;
nodes = (
"596 331 LINE",
"612 344 OFFCURVE",
"616 368 OFFCURVE",
"616 387 CURVE",
"85 387 LINE",
"68 375 OFFCURVE",
"64 349 OFFCURVE",
"64 331 CURVE"
);
}
);
width = 679;
}
);
unicode = 04E8;
},
{
color = 0;
glyphname = "De-cy.loclBGR";
layers = (
{
layerId = UUID0;
paths = (
{
closed = 1;
nodes = (
"685 42 LINE",
"632 50 OFFCURVE",
"606 90 OFFCURVE",
"593 137 CURVE",
"498 611 LINE SMOOTH",
"486 671 OFFCURVE",
"462 717 OFFCURVE",
"409 717 CURVE SMOOTH",
"370 717 OFFCURVE",
"323 717 OFFCURVE",
"269 678 CURVE",
"343 664 OFFCURVE",
"379 631 OFFCURVE",
"379 594 CURVE SMOOTH",
"379 582 OFFCURVE",
"375 569 OFFCURVE",
"366 557 CURVE",
"273 402 OFFCURVE",
"100 296 OFFCURVE",
"100 134 CURVE SMOOTH",
"100 68 OFFCURVE",
"64 51 OFFCURVE",
"1 43 CURVE",
"1 -181 LINE",
"35 -193 LINE",
"40 -169 LINE",
"73 -56 OFFCURVE",
"102 0 OFFCURVE",
"190 0 CURVE SMOOTH",
"496 0 LINE SMOOTH",
"587 -3 OFFCURVE",
"613 -53 OFFCURVE",
"645 -169 CURVE SMOOTH",
"651 -193 LINE",
"685 -181 LINE"
);
},
{
closed = 1;
nodes = (
"211 181 CURVE SMOOTH",
"211 301 OFFCURVE",
"355 372 OFFCURVE",
"419 545 CURVE",
"484 104 LINE SMOOTH",
"487 82 OFFCURVE",
"480 57 OFFCURVE",
"449 57 CURVE SMOOTH",
"300 57 LINE SMOOTH",
"216 57 OFFCURVE",
"211 124 OFFCURVE"
);
}
);
width = 677;
}
);
},
{
color = 0;
glyphname = "El-cy.loclBGR";
layers = (
{
layerId = UUID0;
paths = (
{
closed = 1;
nodes = (
"438 31 LINE SMOOTH",
"442 3 OFFCURVE",
"457 -14 OFFCURVE",
"482 -14 CURVE SMOOTH",
"534 -14 OFFCURVE",
"586 21 OFFCURVE",
"635 70 CURVE",
"622 106 LINE",
"561 106 LINE SMOOTH",
"543 106 OFFCURVE",
"539 114 OFFCURVE",
"533 137 CURVE",
"438 611 LINE SMOOTH",
"426 671 OFFCURVE",
"402 717 OFFCURVE",
"349 717 CURVE SMOOTH",
"310 717 OFFCURVE",
"263 717 OFFCURVE",
"209 678 CURVE",
"283 664 OFFCURVE",
"319 631 OFFCURVE",
"319 594 CURVE SMOOTH",
"319 582 OFFCURVE",
"315 569 OFFCURVE",
"306 557 CURVE",
"213 402 OFFCURVE",
"40 296 OFFCURVE",
"40 134 CURVE SMOOTH",
"40 93 OFFCURVE",
"43 43 OFFCURVE",
"61 -14 CURVE",
"175 6 LINE",
"210 24 LINE",
"165 86 OFFCURVE",
"155 167 OFFCURVE",
"155 209 CURVE SMOOTH",
"155 329 OFFCURVE",
"295 372 OFFCURVE",
"359 545 CURVE"
);
}
);
width = 674;
}
);
},
{
color = 5;
glyphname = "be-cy";
layers = (
{
background = {
components = (
{
name = o;
}
);
};
layerId = UUID0;
paths = (
{
closed = 1;
nodes = (
"112 400 LINE",
"114 531 OFFCURVE",
"133 637 OFFCURVE",
"187 651 CURVE SMOOTH",
"255 669 OFFCURVE",
"320 638 OFFCURVE",
"391 638 CURVE SMOOTH",
"448 638 OFFCURVE",
"489 664 OFFCURVE",
"489 728 CURVE SMOOTH",
"489 754 OFFCURVE",
"473 787 OFFCURVE",
"462 787 CURVE SMOOTH",
"447 787 OFFCURVE",
"446 754 OFFCURVE",
"420 736 CURVE SMOOTH",
"407 729 OFFCURVE",
"388 726 OFFCURVE",
"364 726 CURVE SMOOTH",
"340 726 OFFCURVE",
"315 729 OFFCURVE",
"286 729 CURVE SMOOTH",
"100 729 OFFCURVE",
"14 535 OFFCURVE",
"14 307 CURVE SMOOTH",
"14 110 OFFCURVE",
"115 -14 OFFCURVE",
"272 -14 CURVE SMOOTH",
"424 -14 OFFCURVE",
"513 100 OFFCURVE",
"513 249 CURVE SMOOTH",
"513 413 OFFCURVE",
"399 495 OFFCURVE",
"285 495 CURVE SMOOTH",
"215 495 OFFCURVE",
"158 462 OFFCURVE",
"120 400 CURVE"
);
},
{
closed = 1;
nodes = (
"258 40 CURVE SMOOTH",
"165 40 OFFCURVE",
"118 133 OFFCURVE",
"118 247 CURVE SMOOTH",
"118 371 OFFCURVE",
"172 443 OFFCURVE",
"259 443 CURVE SMOOTH",
"366 443 OFFCURVE",
"407 333 OFFCURVE",
"407 245 CURVE SMOOTH",
"407 135 OFFCURVE",
"352 40 OFFCURVE"
);
}
);
width = 540;
}
);
unicode = 0431;
},
{
color = 4;
glyphname = "ve-cy";
layers = (
{
layerId = UUID0;
paths = (
{
closed = 1;
nodes = (
"28 0 LINE",
"18 32 LINE",
"38 38 LINE SMOOTH",
"86 49 OFFCURVE",
"97 66 OFFCURVE",
"97 124 CURVE SMOOTH",
"97 413 LINE SMOOTH",
"97 430 OFFCURVE",
"91 434 OFFCURVE",
"78 434 CURVE SMOOTH",
"24 434 LINE",
"13 469 LINE",
"63 488 OFFCURVE",
"164 509 OFFCURVE",
"255 509 CURVE SMOOTH",
"421 509 OFFCURVE",
"494 457 OFFCURVE",
"494 373 CURVE SMOOTH",
"494 323 OFFCURVE",
"467 282 OFFCURVE",
"424 258 CURVE",
"490 239 OFFCURVE",
"528 198 OFFCURVE",
"528 140 CURVE SMOOTH",
"528 43 OFFCURVE",
"447 0 OFFCURVE",
"300 0 CURVE SMOOTH"
);
},
{
closed = 1;
nodes = (
"298 230 LINE SMOOTH",
"258 230 OFFCURVE",
"224 241 OFFCURVE",
"224 261 CURVE SMOOTH",
"224 272 OFFCURVE",
"226 279 OFFCURVE",
"235 279 CURVE SMOOTH",
"242 279 OFFCURVE",
"254 272 OFFCURVE",
"282 272 CURVE SMOOTH",
"354 272 OFFCURVE",
"396 306 OFFCURVE",
"396 364 CURVE SMOOTH",
"396 420 OFFCURVE",
"355 457 OFFCURVE",
"264 457 CURVE SMOOTH",
"195 457 OFFCURVE",
"188 432 OFFCURVE",
"188 415 CURVE SMOOTH",
"188 168 LINE SMOOTH",
"188 54 OFFCURVE",
"262 50 OFFCURVE",
"302 50 CURVE SMOOTH",
"360 50 OFFCURVE",
"424 77 OFFCURVE",
"424 144 CURVE SMOOTH",
"424 198 OFFCURVE",
"377 226 OFFCURVE",
"305 230 CURVE SMOOTH"
);
}
);
width = 571;
}
);
unicode = 0432;
},
{
color = 5;
glyphname = "ge-cy";
layers = (
{
anchors = (
{
name = bottomright;
position = "{98, 0}";
},
{
name = center;
position = "{171, 249}";
},
{
name = top;
position = "{258, 492}";
}
);
guideLines = (
{
angle = 90;
position = "{98, 176}";
}
);
layerId = UUID0;
paths = (
{
closed = 1;
nodes = (
"56 492 LINE",
"45 478 LINE",
"56 460 LINE",
"86 422 OFFCURVE",
"98 381 OFFCURVE",
"98 306 CURVE SMOOTH",
"98 176 LINE SMOOTH",
"98 100 OFFCURVE",
"86 71 OFFCURVE",
"56 31 CURVE",
"45 15 LINE",
"56 0 LINE",
"256 0 LINE",
"267 31 LINE",
"246 38 LINE SMOOTH",
"199 51 OFFCURVE",
"187 65 OFFCURVE",
"187 122 CURVE SMOOTH",
"187 370 LINE SMOOTH",
"187 427 OFFCURVE",
"198 439 OFFCURVE",
"246 439 CURVE SMOOTH",
"300 439 LINE SMOOTH",
"366 439 OFFCURVE",
"383 424 OFFCURVE",
"400 357 CURVE",
"407 336 LINE",
"437 346 LINE",
"437 510 LINE",
"422 523 LINE",
"407 510 LINE",
"388 496 OFFCURVE",
"354 492 OFFCURVE",
"301 492 CURVE SMOOTH"
);
}
);
width = 462;
}
);
leftMetricsKey = "en-cy";
unicode = 0433;
},
{
color = 4;
glyphname = "gheupturn-cy";
layers = (
{
layerId = UUID0;
paths = (
{
closed = 1;
nodes = (
"46 492 LINE",
"35 478 LINE",
"46 460 LINE",
"76 422 OFFCURVE",
"88 381 OFFCURVE",
"88 306 CURVE SMOOTH",
"88 176 LINE SMOOTH",
"88 100 OFFCURVE",
"76 71 OFFCURVE",
"46 31 CURVE",
"35 15 LINE",
"46 0 LINE",
"247 0 LINE",
"258 31 LINE",
"237 38 LINE SMOOTH",
"190 51 OFFCURVE",
"178 65 OFFCURVE",
"178 122 CURVE SMOOTH",
"178 370 LINE SMOOTH",
"178 427 OFFCURVE",
"189 439 OFFCURVE",
"237 439 CURVE SMOOTH",
"274 439 LINE SMOOTH",
"297 439 OFFCURVE",
"329 436 OFFCURVE",
"353 419 CURVE",
"370 408 LINE",
"385 419 LINE",
"385 650 LINE",
"353 663 LINE",
"346 640 LINE",
"320 540 OFFCURVE",
"291 492 OFFCURVE",
"204 492 CURVE SMOOTH"
);
}
);
width = 410;
}
);
rightMetricsKey = "ge-cy";
unicode = 0491;
},
{
color = 4;
glyphname = "de-cy";
layers = (
{
background = {
paths = (
{
closed = 1;
nodes = (
"542 0 LINE",
"551 28 LINE",
"534 33 LINE SMOOTH",
"494 45 OFFCURVE",
"483 56 OFFCURVE",
"483 107 CURVE SMOOTH",
"483 289 LINE SMOOTH",
"483 359 OFFCURVE",
"491 397 OFFCURVE",
"520 433 CURVE SMOOTH",
"532 448 LINE",
"520 461 LINE",
"335 461 LINE",
"324 433 LINE",
"345 427 LINE SMOOTH",
"388 415 OFFCURVE",
"399 401 OFFCURVE",
"399 348 CURVE SMOOTH",
"399 259 LINE",
"176 259 LINE",
"176 289 LINE SMOOTH",
"176 359 OFFCURVE",
"187 396 OFFCURVE",
"214 433 CURVE SMOOTH",
"225 448 LINE",
"214 461 LINE",
"29 461 LINE",
"19 433 LINE",
"38 427 LINE SMOOTH",
"81 413 OFFCURVE",
"92 401 OFFCURVE",
"92 348 CURVE SMOOTH",
"92 113 LINE SMOOTH",
"92 60 OFFCURVE",
"81 49 OFFCURVE",
"38 35 CURVE SMOOTH",
"19 29 LINE",
"29 0 LINE",
"237 0 LINE",
"246 28 LINE",
"228 33 LINE SMOOTH",
"188 44 OFFCURVE",
"176 56 OFFCURVE",
"176 107 CURVE SMOOTH",
"176 205 LINE",
"399 205 LINE",
"399 113 LINE SMOOTH",
"399 60 OFFCURVE",
"388 47 OFFCURVE",
"345 35 CURVE SMOOTH",
"324 29 LINE",
"335 0 LINE"
);
}
);
};
layerId = UUID0;
paths = (
{
closed = 1;
nodes = (
"497 312 LINE SMOOTH",
"497 387 OFFCURVE",
"506 426 OFFCURVE",
"537 467 CURVE",
"549 482 LINE",
"537 497 LINE",
"105 497 LINE",
"95 467 LINE",
"116 460 LINE SMOOTH",
"172 451 OFFCURVE",
"189 444 OFFCURVE",
"179 384 CURVE SMOOTH",
"156 180 OFFCURVE",
"156 54 OFFCURVE",
"15 39 CURVE",
"15 -167 LINE",
"46 -179 LINE",
"52 -158 LINE SMOOTH",
"82 -51 OFFCURVE",
"105 0 OFFCURVE",
"189 0 CURVE SMOOTH",
"414 0 LINE SMOOTH",
"497 0 OFFCURVE",
"525 -51 OFFCURVE",
"551 -158 CURVE SMOOTH",
"556 -180 LINE",
"586 -168 LINE",
"586 39 LINE",
"537 39 OFFCURVE",
"497 56 OFFCURVE",
"497 97 CURVE SMOOTH"
);
},
{
closed = 1;
nodes = (
"142 52 LINE",
"209 88 OFFCURVE",
"228 201 OFFCURVE",
"251 405 CURVE SMOOTH",
"254 437 OFFCURVE",
"276 442 OFFCURVE",
"309 442 CURVE SMOOTH",
"347 442 LINE SMOOTH",
"395 442 OFFCURVE",
"406 429 OFFCURVE",
"406 373 CURVE SMOOTH",
"406 122 LINE SMOOTH",
"406 65 OFFCURVE",
"395 52 OFFCURVE",
"347 52 CURVE SMOOTH"
);
}
);
width = 611;
}
);
rightMetricsKey = "tse-cy";
unicode = 0434;
},
{
color = 4;
glyphname = "zhe-cy";
layers = (
{
anchors = (
{
name = bottomright;
position = "{618, 0}";
},
{
name = top;
position = "{403, 497}";
}
);
layerId = UUID0;
paths = (
{
closed = 1;
nodes = (
"494 0 LINE",
"504 30 LINE",
"486 36 LINE SMOOTH",
"454 45 OFFCURVE",
"448 59 OFFCURVE",
"448 115 CURVE SMOOTH",
"448 312 LINE SMOOTH",
"448 387 OFFCURVE",
"459 426 OFFCURVE",
"489 467 CURVE SMOOTH",
"501 483 LINE",
"489 497 LINE",
"290 497 LINE",
"278 467 LINE",
"298 460 LINE SMOOTH",
"345 447 OFFCURVE",
"358 432 OFFCURVE",
"358 375 CURVE SMOOTH",
"358 122 LINE SMOOTH",
"358 65 OFFCURVE",
"345 51 OFFCURVE",
"298 38 CURVE SMOOTH",
"278 31 LINE",
"290 0 LINE"
);
},
{
closed = 1;
nodes = (
"221 374 LINE SMOOTH",
"204 397 OFFCURVE",
"203 409 OFFCURVE",
"203 425 CURVE SMOOTH",
"203 440 OFFCURVE",
"210 454 OFFCURVE",
"214 466 CURVE",
"222 482 LINE",
"205 497 LINE",
"43 497 LINE",
"33 466 LINE",
"54 460 LINE SMOOTH",
"82 454 OFFCURVE",
"104 442 OFFCURVE",
"125 410 CURVE SMOOTH",
"232 251 LINE",
"208 239 OFFCURVE",
"185 222 OFFCURVE",
"168 191 CURVE SMOOTH",
"101 65 LINE",
"91 49 OFFCURVE",
"82 38 OFFCURVE",
"66 38 CURVE SMOOTH",
"54 38 OFFCURVE",
"43 41 OFFCURVE",
"30 51 CURVE",
"15 23 LINE",
"43 -3 OFFCURVE",
"69 -14 OFFCURVE",
"99 -14 CURVE SMOOTH",
"156 -14 OFFCURVE",
"181 19 OFFCURVE",
"222 105 CURVE SMOOTH",
"260 179 LINE SMOOTH",
"286 229 OFFCURVE",
"333 223 OFFCURVE",
"333 249 CURVE SMOOTH",
"333 256 OFFCURVE",
"331 265 OFFCURVE",
"315 265 CURVE SMOOTH",
"296 265 LINE"
);
},
{
closed = 1;
nodes = (
"638 191 LINE SMOOTH",
"621 222 OFFCURVE",
"599 239 OFFCURVE",
"576 251 CURVE",
"681 410 LINE SMOOTH",
"702 442 OFFCURVE",
"728 454 OFFCURVE",
"753 460 CURVE SMOOTH",
"775 466 LINE",
"763 497 LINE",
"600 497 LINE",
"584 482 LINE",
"593 466 LINE",
"597 454 OFFCURVE",
"604 440 OFFCURVE",
"604 425 CURVE SMOOTH",
"604 409 OFFCURVE",
"601 397 OFFCURVE",
"585 374 CURVE SMOOTH",
"510 265 LINE",
"491 265 LINE SMOOTH",
"476 265 OFFCURVE",
"473 256 OFFCURVE",
"473 249 CURVE SMOOTH",
"473 223 OFFCURVE",
"521 229 OFFCURVE",
"546 179 CURVE SMOOTH",
"584 105 LINE SMOOTH",
"626 19 OFFCURVE",
"649 -14 OFFCURVE",
"707 -14 CURVE SMOOTH",
"736 -14 OFFCURVE",
"766 -3 OFFCURVE",
"792 23 CURVE",
"776 51 LINE",
"763 41 OFFCURVE",
"752 38 OFFCURVE",
"740 38 CURVE SMOOTH",
"724 38 OFFCURVE",
"716 49 OFFCURVE",
"705 65 CURVE"
);
}
);
width = 807;
}
);
leftMetricsKey = "=|ka-cy";
rightMetricsKey = "ka-cy";
unicode = 0436;
},
{
color = 4;
glyphname = "ze-cy";
layers = (
{
anchors = (
{
name = bottom;
position = "{232, 0}";
},
{
name = top;
position = "{232, 497}";
}
);
layerId = UUID0;
paths = (
{
closed = 1;
nodes = (
"229 40 CURVE SMOOTH",
"165 40 OFFCURVE",
"123 66 OFFCURVE",
"123 115 CURVE SMOOTH",
"123 150 OFFCURVE",
"133 160 OFFCURVE",
"133 172 CURVE SMOOTH",
"133 180 OFFCURVE",
"122 183 OFFCURVE",
"111 183 CURVE SMOOTH",
"69 183 OFFCURVE",
"37 152 OFFCURVE",
"37 111 CURVE SMOOTH",
"37 29 OFFCURVE",
"129 -14 OFFCURVE",
"229 -14 CURVE SMOOTH",
"372 -14 OFFCURVE",
"443 61 OFFCURVE",
"443 136 CURVE SMOOTH",
"443 189 OFFCURVE",
"411 243 OFFCURVE",
"323 268 CURVE",
"390 288 OFFCURVE",
"424 330 OFFCURVE",
"424 388 CURVE SMOOTH",
"424 462 OFFCURVE",
"366 509 OFFCURVE",
"234 509 CURVE SMOOTH",
"187 509 OFFCURVE",
"157 497 OFFCURVE",
"132 497 CURVE SMOOTH",
"119 497 OFFCURVE",
"108 499 OFFCURVE",
"96 507 CURVE",
"80 520 LINE",
"67 507 LINE",
"67 343 LINE",
"96 333 LINE",
"103 354 LINE SMOOTH",
"125 430 OFFCURVE",
"174 456 OFFCURVE",
"233 456 CURVE SMOOTH",
"304 456 OFFCURVE",
"337 420 OFFCURVE",
"337 381 CURVE SMOOTH",
"337 331 OFFCURVE",
"315 300 OFFCURVE",
"235 287 CURVE",
"200 280 OFFCURVE",
"182 275 OFFCURVE",
"182 259 CURVE SMOOTH",
"182 249 OFFCURVE",
"186 241 OFFCURVE",
"204 241 CURVE SMOOTH",
"214 241 LINE SMOOTH",
"293 239 OFFCURVE",
"346 206 OFFCURVE",
"346 144 CURVE SMOOTH",
"346 70 OFFCURVE",
"305 40 OFFCURVE"
);
}
);
width = 478;
}
);
unicode = 0437;
},
{
color = 4;
glyphname = "ii-cy";
layers = (
{
anchors = (
{
name = bottomright;
position = "{461, 0}";
},
{
name = top;
position = "{335, 497}";
}
);
guideLines = (
{
angle = 90;
position = "{461, 167}";
}
);
layerId = UUID0;
paths = (
{
closed = 1;
nodes = (
"461 122 LINE SMOOTH",
"461 65 OFFCURVE",
"449 51 OFFCURVE",
"402 38 CURVE SMOOTH",
"382 31 LINE",
"392 0 LINE",
"617 0 LINE",
"627 30 LINE",
"607 36 LINE SMOOTH",
"564 50 OFFCURVE",
"551 59 OFFCURVE",
"551 115 CURVE SMOOTH",
"551 312 LINE SMOOTH",
"551 388 OFFCURVE",
"563 425 OFFCURVE",
"593 467 CURVE SMOOTH",
"604 483 LINE",
"593 497 LINE",
"392 497 LINE",
"382 467 LINE",
"402 460 LINE SMOOTH",
"432 451 OFFCURVE",
"448 441 OFFCURVE",
"455 399 CURVE",
"214 171 LINE",
"214 312 LINE SMOOTH",
"214 388 OFFCURVE",
"226 425 OFFCURVE",
"256 467 CURVE SMOOTH",
"268 483 LINE",
"256 497 LINE",
"55 497 LINE",
"45 467 LINE",
"65 460 LINE SMOOTH",
"111 447 OFFCURVE",
"123 432 OFFCURVE",
"123 375 CURVE SMOOTH",
"123 122 LINE SMOOTH",
"123 65 OFFCURVE",
"111 51 OFFCURVE",
"65 38 CURVE SMOOTH",
"45 31 LINE",
"55 0 LINE",
"281 0 LINE",
"290 30 LINE",
"271 36 LINE SMOOTH",
"242 43 OFFCURVE",
"226 52 OFFCURVE",
"219 96 CURVE",
"461 323 LINE"
);
}
);
width = 672;
}
);
leftMetricsKey = "en-cy";
rightMetricsKey = "en-cy";
unicode = 0438;
},
{
color = 4;
glyphname = "ka-cy";
layers = (
{
anchors = (
{
name = bottomright;
position = "{383, 0}";
},
{
name = center;
position = "{238, 245}";
},
{
name = top;
position = "{323, 497}";
}
);
background = {
components = (
{
name = k;
transform = "{1, 0, 0, 1, 34, 0}";
}
);
};
layerId = UUID0;
paths = (
{
closed = 1;
nodes = (
"279 0 LINE",
"288 30 LINE",
"269 36 LINE SMOOTH",
"226 50 OFFCURVE",
"213 59 OFFCURVE",
"213 115 CURVE SMOOTH",
"213 312 LINE SMOOTH",
"213 387 OFFCURVE",
"225 426 OFFCURVE",
"254 467 CURVE SMOOTH",
"266 483 LINE",
"254 497 LINE",
"54 497 LINE",
"45 467 LINE",
"64 460 LINE",
"111 447 OFFCURVE",
"123 432 OFFCURVE",
"123 375 CURVE SMOOTH",
"123 122 LINE SMOOTH",
"123 65 OFFCURVE",
"111 51 OFFCURVE",
"64 38 CURVE",
"45 31 LINE",
"54 0 LINE"
);
},
{
closed = 1;
nodes = (
"414 191 LINE SMOOTH",
"396 221 OFFCURVE",
"366 240 OFFCURVE",
"342 252 CURVE",
"467 410 LINE SMOOTH",
"491 440 OFFCURVE",
"513 453 OFFCURVE",
"541 460 CURVE SMOOTH",
"560 466 LINE",
"549 497 LINE",
"386 497 LINE",
"370 482 LINE",
"378 466 LINE SMOOTH",
"383 454 OFFCURVE",
"385 443 OFFCURVE",
"385 431 CURVE SMOOTH",
"385 412 OFFCURVE",
"380 393 OFFCURVE",
"365 374 CURVE SMOOTH",
"275 265 LINE",
"257 265 LINE SMOOTH",
"242 265 OFFCURVE",
"240 252 OFFCURVE",
"240 245 CURVE SMOOTH",
"240 240 OFFCURVE",
"240 235 OFFCURVE",
"244 233 CURVE SMOOTH",
"266 223 OFFCURVE",
"287 216 OFFCURVE",
"301 192 CURVE SMOOTH",
"370 77 LINE SMOOTH",
"404 21 OFFCURVE",
"435 -14 OFFCURVE",
"493 -14 CURVE SMOOTH",
"522 -14 OFFCURVE",
"552 -3 OFFCURVE",
"578 23 CURVE",
"562 51 LINE",
"549 41 OFFCURVE",
"539 38 OFFCURVE",
"525 38 CURVE SMOOTH",
"510 38 OFFCURVE",
"502 49 OFFCURVE",
"492 65 CURVE SMOOTH"
);
}
);
width = 593;
},
{
anchors = (
{
name = bottomright;
position = "{343, 0}";
},
{
name = center;
position = "{208, 227}";
},
{
name = top;
position = "{287, 461}";
}
);
associatedMasterId = UUID0;
background = {
components = (
{
name = k;
}
);
};
layerId = "960495FA-7B7B-40EA-A743-886DB722C40C";
name = "Sep 24 16, 10:56";
paths = (
{
closed = 1;
nodes = (
"246 0 LINE",
"255 28 LINE",
"237 33 LINE SMOOTH",
"197 46 OFFCURVE",
"185 55 OFFCURVE",
"185 107 CURVE SMOOTH",
"185 289 LINE SMOOTH",
"185 359 OFFCURVE",
"196 395 OFFCURVE",
"223 433 CURVE SMOOTH",
"234 448 LINE",
"223 461 LINE",
"38 461 LINE",
"29 433 LINE",
"47 427 LINE",
"91 415 OFFCURVE",
"102 401 OFFCURVE",
"102 348 CURVE SMOOTH",
"102 113 LINE SMOOTH",
"102 60 OFFCURVE",
"91 47 OFFCURVE",
"47 35 CURVE",
"29 29 LINE",
"38 0 LINE"
);
},
{
closed = 1;
nodes = (
"362 177 LINE SMOOTH",
"345 205 OFFCURVE",
"327 223 OFFCURVE",
"305 234 CURVE",
"411 380 LINE SMOOTH",
"432 409 OFFCURVE",
"453 420 OFFCURVE",
"479 427 CURVE SMOOTH",
"497 432 LINE",
"487 461 LINE",
"336 461 LINE",
"321 447 LINE",
"328 432 LINE SMOOTH",
"333 421 OFFCURVE",
"335 411 OFFCURVE",
"335 400 CURVE SMOOTH",
"335 382 OFFCURVE",
"329 365 OFFCURVE",
"316 347 CURVE SMOOTH",
"243 246 LINE",
"226 246 LINE SMOOTH",
"212 246 OFFCURVE",
"210 234 OFFCURVE",
"210 227 CURVE SMOOTH",
"210 223 OFFCURVE",
"210 218 OFFCURVE",
"214 216 CURVE SMOOTH",
"234 207 OFFCURVE",
"244 200 OFFCURVE",
"257 178 CURVE SMOOTH",
"321 71 LINE SMOOTH",
"352 19 OFFCURVE",
"381 -13 OFFCURVE",
"435 -13 CURVE SMOOTH",
"462 -13 OFFCURVE",
"490 -3 OFFCURVE",
"514 21 CURVE",
"499 47 LINE",
"487 38 OFFCURVE",
"478 35 OFFCURVE",
"465 35 CURVE SMOOTH",
"451 35 OFFCURVE",
"443 45 OFFCURVE",
"434 60 CURVE SMOOTH"
);
}
);
width = 523;
}
);
leftMetricsKey = "en-cy";
unicode = 043A;
},
{
color = 4;
glyphname = "el-cy";
layers = (
{
background = {
components = (
{
name = "de-cy";
transform = "{1, 0, 0, 1, 71, 0}";
}
);
};
layerId = UUID0;
paths = (
{
closed = 1;
nodes = (
"566 482 LINE",
"552 497 LINE",
"154 497 LINE",
"144 467 LINE",
"164 460 LINE",
"221 452 OFFCURVE",
"233 442 OFFCURVE",
"229 384 CURVE SMOOTH",
"216 214 OFFCURVE",
"186 68 OFFCURVE",
"122 68 CURVE SMOOTH",
"98 68 OFFCURVE",
"89 89 OFFCURVE",
"86 107 CURVE SMOOTH",
"84 125 OFFCURVE",
"79 138 OFFCURVE",
"64 138 CURVE SMOOTH",
"34 138 OFFCURVE",
"15 115 OFFCURVE",
"15 77 CURVE SMOOTH",
"15 22 OFFCURVE",
"51 -14 OFFCURVE",
"104 -14 CURVE SMOOTH",
"176 -14 OFFCURVE",
"257 41 OFFCURVE",
"287 408 CURVE SMOOTH",
"290 440 OFFCURVE",
"311 444 OFFCURVE",
"344 444 CURVE SMOOTH",
"361 444 LINE SMOOTH",
"410 444 OFFCURVE",
"422 431 OFFCURVE",
"422 374 CURVE SMOOTH",
"422 124 LINE SMOOTH",
"422 65 OFFCURVE",
"408 51 OFFCURVE",
"361 38 CURVE SMOOTH",
"341 31 LINE",
"352 0 LINE",
"577 0 LINE",
"587 31 LINE",
"568 36 LINE",
"525 49 OFFCURVE",
"511 61 OFFCURVE",
"511 115 CURVE SMOOTH",
"511 312 LINE SMOOTH",
"511 386 OFFCURVE",
"523 426 OFFCURVE",
"552 466 CURVE"
);
}
);
width = 609;
},
{
associatedMasterId = UUID0;
layerId = "506418C2-CE60-45A3-A84A-3B7274E4081B";
name = "Sep 24 16, 10:56";
paths = (
{
closed = 1;
nodes = (
"479 447 LINE",
"466 461 LINE",
"90 461 LINE",
"81 432 LINE",
"100 427 LINE SMOOTH",
"134 418 OFFCURVE",
"138 411 OFFCURVE",
"138 356 CURVE SMOOTH",
"138 199 OFFCURVE",
"128 63 OFFCURVE",
"67 63 CURVE SMOOTH",
"44 63 OFFCURVE",
"38 87 OFFCURVE",
"34 109 CURVE",
"29 129 OFFCURVE",
"27 147 OFFCURVE",
"13 147 CURVE SMOOTH",
"-15 147 OFFCURVE",
"-32 105 OFFCURVE",
"-32 71 CURVE SMOOTH",
"-32 20 OFFCURVE",
"1 -13 OFFCURVE",
"60 -13 CURVE SMOOTH",
"110 -13 OFFCURVE",
"200 8 OFFCURVE",
"200 378 CURVE SMOOTH",
"200 408 OFFCURVE",
"222 412 OFFCURVE",
"253 412 CURVE SMOOTH",
"289 412 LINE SMOOTH",
"334 412 OFFCURVE",
"345 400 OFFCURVE",
"345 347 CURVE SMOOTH",
"345 115 LINE SMOOTH",
"345 60 OFFCURVE",
"332 47 OFFCURVE",
"289 35 CURVE SMOOTH",
"270 29 LINE",
"280 0 LINE",
"489 0 LINE",
"498 29 LINE",
"481 33 LINE",
"441 45 OFFCURVE",
"428 57 OFFCURVE",
"428 107 CURVE SMOOTH",
"428 289 LINE SMOOTH",
"428 358 OFFCURVE",
"439 395 OFFCURVE",
"466 432 CURVE"
);
}
);
width = 539;
}
);
unicode = 043B;
},
{
color = 4;
glyphname = "em-cy";
layers = (
{
layerId = UUID0;
paths = (
{
closed = 1;
nodes = (
"634 349 LINE SMOOTH",
"624 396 OFFCURVE",
"642 433 OFFCURVE",
"666 467 CURVE",
"679 483 LINE",
"664 497 LINE",
"534 497 LINE",
"388 192 LINE",
"245 497 LINE",
"76 497 LINE",
"68 467 LINE",
"87 460 LINE",
"128 450 OFFCURVE",
"148 432 OFFCURVE",
"142 393 CURVE SMOOTH",
"102 122 LINE SMOOTH",
"95 73 OFFCURVE",
"85 51 OFFCURVE",
"38 38 CURVE SMOOTH",
"15 31 LINE",
"27 0 LINE",
"199 0 LINE",
"212 14 LINE",
"200 31 LINE SMOOTH",
"178 63 OFFCURVE",
"162 101 OFFCURVE",
"169 147 CURVE SMOOTH",
"207 387 LINE",
"358 66 LINE",
"389 66 LINE",
"539 387 LINE",
"579 138 LINE SMOOTH",
"590 82 OFFCURVE",
"576 51 OFFCURVE",
"527 38 CURVE",
"508 31 LINE",
"518 0 LINE",
"720 0 LINE",
"732 14 LINE",
"690 56 OFFCURVE",
"683 104 OFFCURVE",
"668 179 CURVE SMOOTH"
);
}
);
width = 747;
},
{
associatedMasterId = UUID0;
layerId = "CE88353C-FAE5-4C03-B754-D8AFBDA62ED4";
name = "Sep 24 16, 10:59";
paths = (
{
closed = 1;
nodes = (
"578 247 LINE SMOOTH",
"577 261 OFFCURVE",
"572 314 OFFCURVE",
"572 324 CURVE SMOOTH",
"572 372 OFFCURVE",
"582 402 OFFCURVE",
"602 433 CURVE",
"614 448 LINE",
"600 461 LINE",
"479 461 LINE",
"344 178 LINE",
"211 461 LINE",
"55 461 LINE",
"47 433 LINE",
"65 427 LINE",
"103 417 OFFCURVE",
"116 405 OFFCURVE",
"116 365 CURVE SMOOTH",
"116 353 OFFCURVE",
"112 307 OFFCURVE",
"111 300 CURVE",
"99 113 LINE SMOOTH",
"96 60 OFFCURVE",
"83 47 OFFCURVE",
"39 35 CURVE SMOOTH",
"18 29 LINE",
"29 0 LINE",
"189 0 LINE",
"201 13 LINE",
"190 29 LINE SMOOTH",
"170 59 OFFCURVE",
"161 88 OFFCURVE",
"161 136 CURVE SMOOTH",
"161 147 OFFCURVE",
"165 190 OFFCURVE",
"166 220 CURVE SMOOTH",
"176 359 LINE",
"316 61 LINE",
"345 61 LINE",
"484 359 LINE",
"501 128 LINE SMOOTH",
"502 118 OFFCURVE",
"503 103 OFFCURVE",
"503 96 CURVE SMOOTH",
"503 60 OFFCURVE",
"490 45 OFFCURVE",
"453 35 CURVE",
"435 29 LINE",
"445 0 LINE",
"632 0 LINE",
"643 13 LINE",
"604 52 OFFCURVE",
"589 97 OFFCURVE",
"584 166 CURVE SMOOTH"
);
}
);
width = 689;
}
);
unicode = 043C;
},
{
color = 4;
glyphname = "en-cy";
layers = (
{
anchors = (
{
name = bottomright;
position = "{455, 0}";
}
);
guideLines = (
{
angle = 90;
position = "{455, 139}";
}
);
layerId = UUID0;
paths = (
{
closed = 1;
nodes = (
"609 0 LINE",
"618 30 LINE",
"600 36 LINE SMOOTH",
"557 49 OFFCURVE",
"545 60 OFFCURVE",
"545 115 CURVE SMOOTH",
"545 312 LINE SMOOTH",
"545 387 OFFCURVE",
"555 427 OFFCURVE",
"585 467 CURVE SMOOTH",
"598 483 LINE",
"585 497 LINE",
"386 497 LINE",
"374 467 LINE",
"396 460 LINE SMOOTH",
"443 447 OFFCURVE",
"455 432 OFFCURVE",
"455 375 CURVE SMOOTH",
"455 279 LINE",
"214 279 LINE",
"214 312 LINE SMOOTH",
"214 387 OFFCURVE",
"225 427 OFFCURVE",
"255 467 CURVE SMOOTH",
"267 483 LINE",
"255 497 LINE",
"56 497 LINE",
"45 467 LINE",
"65 460 LINE SMOOTH",
"112 447 OFFCURVE",
"124 432 OFFCURVE",
"124 375 CURVE SMOOTH",
"124 122 LINE SMOOTH",
"124 65 OFFCURVE",
"112 51 OFFCURVE",
"65 38 CURVE SMOOTH",
"45 31 LINE",
"56 0 LINE",
"280 0 LINE",
"290 30 LINE",
"270 36 LINE SMOOTH",
"227 49 OFFCURVE",
"214 60 OFFCURVE",
"214 115 CURVE SMOOTH",
"214 221 LINE",
"455 221 LINE",
"455 122 LINE SMOOTH",
"455 65 OFFCURVE",
"443 51 OFFCURVE",
"396 38 CURVE SMOOTH",
"374 31 LINE",
"386 0 LINE"
);
}
);
width = 663;
}
);
unicode = 043D;
},
{
color = 4;
glyphname = "pe-cy";
layers = (
{
anchors = (
{
name = bottomright;
position = "{418, 0}";
}
);
background = {
paths = (
{
closed = 1;
nodes = (
"587 0 LINE",
"596 30 LINE",
"578 36 LINE SMOOTH",
"535 50 OFFCURVE",
"523 60 OFFCURVE",
"523 115 CURVE SMOOTH",
"523 312 LINE SMOOTH",
"523 387 OFFCURVE",
"531 428 OFFCURVE",
"563 467 CURVE SMOOTH",
"576 483 LINE",
"563 497 LINE",
"364 497 LINE",
"352 467 LINE",
"374 460 LINE SMOOTH",
"420 445 OFFCURVE",
"433 432 OFFCURVE",
"433 375 CURVE SMOOTH",
"433 279 LINE",
"192 279 LINE",
"192 312 LINE SMOOTH",
"192 387 OFFCURVE",
"203 427 OFFCURVE",
"233 467 CURVE SMOOTH",
"245 483 LINE",
"233 497 LINE",
"34 497 LINE",
"23 467 LINE",
"43 460 LINE SMOOTH",
"89 444 OFFCURVE",
"102 432 OFFCURVE",
"102 375 CURVE SMOOTH",
"102 122 LINE SMOOTH",
"102 65 OFFCURVE",
"89 54 OFFCURVE",
"43 38 CURVE SMOOTH",
"23 31 LINE",
"34 0 LINE",
"258 0 LINE",
"268 30 LINE",
"248 36 LINE SMOOTH",
"205 49 OFFCURVE",
"192 60 OFFCURVE",
"192 115 CURVE SMOOTH",
"192 221 LINE",
"433 221 LINE",
"433 122 LINE SMOOTH",
"433 65 OFFCURVE",
"420 53 OFFCURVE",
"374 38 CURVE SMOOTH",
"352 31 LINE",
"364 0 LINE"
);
}
);
};
guideLines = (
{
angle = 90;
position = "{418, 155}";
}
);
layerId = UUID0;
paths = (
{
closed = 1;
nodes = (
"355 442 LINE SMOOTH",
"406 442 OFFCURVE",
"418 427 OFFCURVE",
"418 365 CURVE SMOOTH",
"418 133 LINE SMOOTH",
"418 69 OFFCURVE",
"404 55 OFFCURVE",
"355 40 CURVE",
"331 34 LINE",
"344 0 LINE",
"579 0 LINE",
"591 32 LINE",
"569 38 LINE SMOOTH",
"521 51 OFFCURVE",
"509 67 OFFCURVE",
"509 126 CURVE SMOOTH",
"509 295 LINE SMOOTH",
"509 377 OFFCURVE",
"520 420 OFFCURVE",
"553 462 CURVE",
"566 482 LINE",
"553 497 LINE",
"58 497 LINE",
"45 482 LINE",
"58 462 LINE",
"91 420 OFFCURVE",
"102 377 OFFCURVE",
"102 295 CURVE SMOOTH",
"102 201 LINE SMOOTH",
"102 119 OFFCURVE",
"91 78 OFFCURVE",
"58 34 CURVE SMOOTH",
"45 16 LINE",
"58 0 LINE",
"267 0 LINE",
"280 34 LINE",
"256 40 LINE",
"206 55 OFFCURVE",
"192 69 OFFCURVE",
"192 133 CURVE SMOOTH",
"192 365 LINE SMOOTH",
"192 427 OFFCURVE",
"204 442 OFFCURVE",
"256 442 CURVE SMOOTH"
);
}
);
width = 636;
}
);
leftMetricsKey = "en-cy";
rightMetricsKey = "en-cy";
unicode = 043F;
},
{
color = 4;
glyphname = "te-cy";
layers = (
{
layerId = UUID0;
paths = (
{
closed = 1;
nodes = (
"421 336 LINE",
"452 346 LINE",
"452 510 LINE",
"436 523 LINE",
"421 510 LINE",
"403 496 OFFCURVE",
"370 492 OFFCURVE",
"316 492 CURVE SMOOTH",
"139 492 LINE SMOOTH",
"86 492 OFFCURVE",
"52 496 OFFCURVE",
"33 510 CURVE",
"18 523 LINE",
"2 510 LINE",
"2 346 LINE",
"33 336 LINE",
"39 357 LINE",
"57 424 OFFCURVE",
"74 439 OFFCURVE",
"140 439 CURVE SMOOTH",
"150 439 LINE SMOOTH",
"175 439 OFFCURVE",
"182 427 OFFCURVE",
"182 370 CURVE SMOOTH",
"182 185 LINE SMOOTH",
"182 110 OFFCURVE",
"172 71 OFFCURVE",
"141 31 CURVE SMOOTH",
"129 15 LINE",
"141 0 LINE",
"341 0 LINE",
"353 31 LINE",
"330 38 LINE SMOOTH",
"284 51 OFFCURVE",
"272 65 OFFCURVE",
"272 122 CURVE SMOOTH",
"272 370 LINE SMOOTH",
"272 427 OFFCURVE",
"279 439 OFFCURVE",
"304 439 CURVE SMOOTH",
"316 439 LINE SMOOTH",
"381 439 OFFCURVE",
"397 424 OFFCURVE",
"416 357 CURVE SMOOTH"
);
}
);
width = 454;
}
);
unicode = 0442;
},
{
color = 4;
glyphname = "ef-cy";
layers = (
{
layerId = UUID0;
paths = (
{
closed = 1;
nodes = (
"344 -106 LINE SMOOTH",
"344 -169 OFFCURVE",
"335 -201 OFFCURVE",
"311 -235 CURVE SMOOTH",
"300 -251 LINE",
"311 -265 LINE",
"486 -265 LINE",
"497 -235 LINE",
"475 -231 LINE SMOOTH",
"442 -223 OFFCURVE",
"433 -206 OFFCURVE",
"433 -155 CURVE SMOOTH",
"433 409 LINE",
"465 433 OFFCURVE",
"494 444 OFFCURVE",
"529 444 CURVE SMOOTH",
"606 444 OFFCURVE",
"666 369 OFFCURVE",
"666 226 CURVE SMOOTH",
"666 107 OFFCURVE",
"608 40 OFFCURVE",
"549 40 CURVE SMOOTH",
"498 40 OFFCURVE",
"485 56 OFFCURVE",
"474 56 CURVE SMOOTH",
"463 56 OFFCURVE",
"461 44 OFFCURVE",
"461 31 CURVE SMOOTH",
"461 24 OFFCURVE",
"465 16 OFFCURVE",
"471 13 CURVE",
"499 -4 OFFCURVE",
"537 -14 OFFCURVE",
"577 -14 CURVE SMOOTH",
"696 -14 OFFCURVE",
"773 84 OFFCURVE",
"773 247 CURVE SMOOTH",
"773 418 OFFCURVE",
"683 509 OFFCURVE",
"563 509 CURVE SMOOTH",
"514 509 OFFCURVE",
"471 489 OFFCURVE",
"433 451 CURVE",
"433 736 LINE SMOOTH",
"433 767 OFFCURVE",
"426 783 OFFCURVE",
"411 783 CURVE SMOOTH",
"366 783 OFFCURVE",
"293 761 OFFCURVE",
"270 742 CURVE",
"270 708 LINE",
"323 698 LINE SMOOTH",
"341 694 OFFCURVE",
"344 685 OFFCURVE",
"344 665 CURVE SMOOTH",
"344 451 LINE",
"306 489 OFFCURVE",
"263 509 OFFCURVE",
"215 509 CURVE SMOOTH",
"95 509 OFFCURVE",
"5 418 OFFCURVE",
"5 247 CURVE SMOOTH",
"5 84 OFFCURVE",
"81 -14 OFFCURVE",
"201 -14 CURVE SMOOTH",
"242 -14 OFFCURVE",
"278 -4 OFFCURVE",
"307 13 CURVE SMOOTH",
"312 16 OFFCURVE",
"316 24 OFFCURVE",
"316 31 CURVE SMOOTH",
"316 44 OFFCURVE",
"314 56 OFFCURVE",
"304 56 CURVE SMOOTH",
"294 56 OFFCURVE",
"279 40 OFFCURVE",
"228 40 CURVE SMOOTH",
"168 40 OFFCURVE",
"111 107 OFFCURVE",
"111 226 CURVE SMOOTH",
"111 369 OFFCURVE",
"171 444 OFFCURVE",
"249 444 CURVE SMOOTH",
"283 444 OFFCURVE",
"312 433 OFFCURVE",
"344 409 CURVE"
);
}
);
width = 777;
}
);
unicode = 0444;
},
{
color = 4;
glyphname = "che-cy";
layers = (
{
anchors = (
{
name = bottomright;
position = "{354, 0}";
},
{
name = center;
position = "{248, 199}";
},
{
name = top;
position = "{249, 497}";
}
);
guideLines = (
{
angle = 90;
position = "{355, 96}";
}
);
layerId = UUID0;
paths = (
{
closed = 1;
nodes = (
"522 31 LINE",
"503 36 LINE",
"459 49 OFFCURVE",
"447 61 OFFCURVE",
"447 115 CURVE SMOOTH",
"447 312 LINE SMOOTH",
"447 386 OFFCURVE",
"457 426 OFFCURVE",
"488 467 CURVE SMOOTH",
"500 482 LINE",
"488 497 LINE",
"287 497 LINE",
"277 467 LINE",
"297 460 LINE SMOOTH",
"344 446 OFFCURVE",
"355 432 OFFCURVE",
"355 375 CURVE SMOOTH",
"355 273 LINE",
"323 245 OFFCURVE",
"284 233 OFFCURVE",
"241 233 CURVE SMOOTH",
"183 233 OFFCURVE",
"146 256 OFFCURVE",
"146 326 CURVE SMOOTH",
"146 510 LINE",
"27 498 LINE",
"15 482 LINE",
"28 468 LINE",
"51 434 OFFCURVE",
"54 429 OFFCURVE",
"54 337 CURVE SMOOTH",
"54 312 LINE SMOOTH",
"54 211 OFFCURVE",
"106 164 OFFCURVE",
"208 164 CURVE SMOOTH",
"276 164 OFFCURVE",
"320 185 OFFCURVE",
"355 213 CURVE",
"355 124 LINE SMOOTH",
"355 66 OFFCURVE",
"345 49 OFFCURVE",
"297 38 CURVE SMOOTH",
"277 32 LINE",
"287 0 LINE",
"513 0 LINE"
);
}
);
width = 567;
}
);
rightMetricsKey = "en-cy";
unicode = 0447;
},
